<?xml version="1.0" encoding="UTF-8"?>
<svg id="Layer_2" data-name="Layer 2" xmlns="http://www.w3.org/2000/svg" xmlns:xlink="http://www.w3.org/1999/xlink" viewBox="0 0 256 72.56">
  <defs>
    <clipPath id="clippath">
      <rect width="256" height="72.56" style="fill: none;"/>
    </clipPath>
    <clipPath id="clippath-1">
      <rect width="256" height="72.56" style="fill: none;"/>
    </clipPath>
    <clipPath id="clippath-2">
      <rect width="256" height="72.56" style="fill: none;"/>
    </clipPath>
  </defs>
  <g id="Layer_1-2" data-name="Layer 1">
    <g>
      <g style="clip-path: url(#clippath);">
        <path d="M58.46,12.29c-.82-.8-2.18-1.79-3.92-3.01-.93-.53-1.94-1.14-3.07-1.74-1.18-.49-2.4-1.18-3.83-1.6-2.77-1.04-6.09-1.69-9.71-1.84-3.62-.14-7.58.32-11.52,1.62-3.93,1.29-7.83,3.43-11.23,6.43-3.33,2.91-6.24,6.71-8.17,10.98-1.95,4.27-2.97,9.03-2.93,13.78.08,4.75,1.22,9.45,3.25,13.63.46,1.07,1.07,2.05,1.68,3.03.55,1.01,1.31,1.9,1.99,2.82.66.96,1.48,1.67,2.2,2.51.75.88,1.65,1.51,2.45,2.27,3.38,2.82,7.22,4.82,11.06,5.97,3.85,1.17,7.68,1.51,11.15,1.29,3.47-.23,6.63-.93,9.25-1.99,1.35-.42,2.49-1.12,3.6-1.61,1.06-.59,2.01-1.2,2.87-1.72,1.63-1.21,2.89-2.17,3.64-2.94.79-.74,1.22-1.13,1.22-1.13,0,0-.43.38-1.24,1.09-.77.76-2.06,1.69-3.7,2.84-.88.49-1.83,1.08-2.9,1.64-1.12.46-2.26,1.12-3.61,1.5-2.61.98-5.74,1.59-9.16,1.73-3.42.13-7.15-.31-10.86-1.53-3.71-1.22-7.37-3.24-10.56-6.05-.75-.74-1.63-1.4-2.28-2.22-.69-.84-1.53-1.62-2.1-2.52-.61-.89-1.3-1.72-1.8-2.71-.55-.95-1.11-1.9-1.53-2.93-1.83-4.03-2.79-8.51-2.75-12.98.08-4.47,1.15-8.9,3.07-12.83,1.92-3.95,4.63-7.33,7.87-10.02,3.15-2.62,6.77-4.5,10.38-5.59,3.62-1.09,7.22-1.41,10.49-1.2,3.27.22,6.24.87,8.7,1.87,1.27.4,2.34,1.06,3.39,1.51,1,.56,1.88,1.13,2.7,1.62,1.52,1.14,2.71,2.03,3.42,2.77.58.54.94.88,1.08,1l2.65-2.65c-.14-.12-.56-.49-1.25-1.1" style="fill: #fff;"/>
        <path d="M58.22,64.61c-.72.52-1.54,1.11-2.47,1.77-.99.56-2.06,1.22-3.27,1.86-1.27.52-2.56,1.27-4.08,1.7-2.96,1.12-6.49,1.81-10.36,1.97-3.86.15-8.09-.33-12.29-1.72-4.2-1.37-8.35-3.66-11.97-6.83-.85-.84-1.84-1.59-2.59-2.51-.78-.95-1.73-1.83-2.38-2.85-.7-1.01-1.47-1.95-2.05-3.07-.63-1.07-1.27-2.15-1.74-3.32-2.08-4.56-3.18-9.64-3.15-14.71.09-5.07,1.29-10.1,3.46-14.57,2.17-4.48,5.25-8.33,8.92-11.39,3.58-2.99,7.69-5.13,11.8-6.37,4.11-1.25,8.21-1.62,11.93-1.39,3.72.24,7.1.98,9.9,2.12,1.45.45,2.66,1.2,3.86,1.72,1.14.64,2.15,1.29,3.07,1.84.86.65,1.63,1.23,2.3,1.74.68.49,1.16,1.04,1.6,1.41.69.64,1.1,1.02,1.24,1.14l2.65-2.65c-.15-.13-.61-.54-1.41-1.25-.49-.41-1.04-.99-1.81-1.52-.75-.54-1.62-1.17-2.6-1.87-1.04-.59-2.17-1.29-3.45-1.96-1.33-.55-2.69-1.33-4.3-1.8C45.93.93,42.2.2,38.13.03c-4.07-.16-8.52.35-12.95,1.8-4.42,1.44-8.81,3.85-12.64,7.21-3.76,3.27-7.03,7.54-9.21,12.35C1.12,26.2-.03,31.56,0,36.91c.09,5.35,1.35,10.65,3.64,15.36.52,1.2,1.21,2.32,1.89,3.42.62,1.13,1.47,2.14,2.24,3.18.74,1.08,1.66,1.89,2.48,2.84.84.99,1.86,1.71,2.76,2.56,3.81,3.19,8.14,5.45,12.47,6.76,4.34,1.32,8.66,1.71,12.58,1.47,3.92-.25,7.49-1.03,10.45-2.23,1.53-.48,2.82-1.26,4.08-1.81,1.2-.67,2.27-1.36,3.25-1.94.91-.69,1.73-1.3,2.44-1.83.72-.52,1.22-1.09,1.68-1.49.9-.83,1.38-1.27,1.38-1.27,0,0-.49.43-1.4,1.24-.47.39-.99.94-1.72,1.45" style="fill: #fff;"/>
        <path d="M55.75,15.31c-.72-.7-1.91-1.57-3.45-2.64-.81-.46-1.7-1-2.69-1.52-1.04-.43-2.11-1.03-3.36-1.4-2.43-.91-5.34-1.47-8.51-1.59-3.17-.11-6.64.29-10.09,1.43-3.44,1.14-6.85,3.02-9.83,5.65-2.9,2.54-5.45,5.88-7.12,9.61-1.7,3.74-2.58,7.9-2.54,12.05.08,4.15,1.08,8.26,2.86,11.9.86,1.84,1.97,3.52,3.21,5.1.58.84,1.29,1.46,1.92,2.18.66.77,1.44,1.32,2.15,1.98,2.95,2.46,6.31,4.19,9.66,5.19,3.35,1.01,6.69,1.3,9.72,1.11,3.03-.2,5.77-.82,8.05-1.74,1.17-.37,2.17-.98,3.14-1.41.93-.52,1.74-1.05,2.5-1.5,1.42-1.05,2.51-1.89,3.16-2.57.69-.64,1.06-.98,1.06-.98,0,0-.38.33-1.08.95-.67.66-1.8,1.47-3.23,2.47-.76.43-1.59.93-2.52,1.42-.97.4-1.97.97-3.14,1.3-2.27.85-5,1.37-7.96,1.48-2.97.1-6.21-.28-9.43-1.35-3.22-1.06-6.39-2.83-9.15-5.26-.65-.64-1.41-1.22-1.97-1.93-.6-.73-1.33-1.42-1.82-2.19-1.1-1.49-2.12-3.13-2.87-4.89-1.58-3.49-2.4-7.38-2.36-11.25.08-3.87,1.02-7.71,2.68-11.1,1.67-3.41,4.01-6.33,6.83-8.66,2.73-2.26,5.85-3.88,8.98-4.81,3.13-.94,6.24-1.21,9.06-1.02,2.82.19,5.38.76,7.5,1.63,1.1.34,2.02.92,2.92,1.31.86.49,1.62.98,2.32,1.4,1.31.98,2.33,1.76,2.94,2.4.48.45.79.74.92.85l2.65-2.65c-.14-.12-.5-.44-1.09-.96" style="fill: #fff;"/>
        <path d="M53.02,18.34c-.62-.6-1.65-1.34-2.97-2.26-.7-.4-1.46-.86-2.32-1.3-.89-.37-1.81-.88-2.89-1.19-2.09-.77-4.59-1.25-7.31-1.35-2.72-.09-5.7.26-8.65,1.25-2.95.98-5.87,2.6-8.42,4.87-2.47,2.18-4.65,5.04-6.08,8.24-1.45,3.2-2.19,6.77-2.15,10.31.08,3.55.94,7.05,2.47,10.16.74,1.57,1.69,3,2.76,4.35.5.72,1.1,1.24,1.64,1.85.57.66,1.23,1.12,1.84,1.69,2.53,2.09,5.39,3.56,8.25,4.41,2.86.85,5.71,1.09,8.28.92,2.58-.18,4.92-.71,6.85-1.5,1-.32,1.84-.84,2.67-1.2.79-.44,1.48-.9,2.12-1.28,1.2-.9,2.13-1.61,2.69-2.19.58-.55.9-.84.9-.84,0,0-.32.28-.92.81-.58.56-1.53,1.24-2.75,2.09-.65.36-1.35.79-2.14,1.2-.83.33-1.67.82-2.67,1.1-1.93.72-4.24,1.15-6.76,1.24-2.52.08-5.27-.25-7.99-1.17-2.72-.91-5.41-2.41-7.74-4.48-.55-.55-1.19-1.04-1.67-1.64-.51-.62-1.13-1.21-1.54-1.86-.92-1.26-1.78-2.65-2.42-4.14-1.33-2.96-2.01-6.24-1.97-9.51.08-3.27.88-6.51,2.29-9.37,1.42-2.88,3.4-5.32,5.78-7.29,2.3-1.89,4.93-3.25,7.57-4.02,2.64-.78,5.25-1,7.63-.84,2.37.17,4.52.66,6.3,1.39.92.29,1.69.78,2.45,1.11.72.41,1.36.83,1.95,1.18,1.1.83,1.96,1.48,2.46,2.02.39.37.65.61.76.71l2.65-2.65c-.13-.11-.44-.39-.93-.82" style="fill: #fff;"/>
        <path d="M50.29,21.37c-.52-.5-1.38-1.12-2.49-1.88-1.15-.69-2.58-1.49-4.36-2.07-1.75-.64-3.84-1.04-6.11-1.11-4.54-.17-9.96,1.31-14.22,5.15-2.04,1.81-3.85,4.21-5.03,6.87-1.19,2.67-1.8,5.63-1.76,8.58.07,2.94.8,5.85,2.07,8.43.62,1.3,1.41,2.48,2.3,3.6.42.6.91,1.02,1.36,1.52.48.55,1.02.93,1.53,1.39,4.21,3.49,9.45,4.7,13.69,4.36,2.13-.16,4.06-.6,5.65-1.26,1.62-.6,2.91-1.4,3.94-2.07.99-.75,1.75-1.34,2.21-1.81.48-.45.73-.69.73-.69,0,0-.27.23-.76.66-.48.46-1.26,1.02-2.27,1.71-1.05.62-2.35,1.35-3.97,1.88-1.59.58-3.49.93-5.56,1-4.12.16-9.08-1.23-12.89-4.68-.44-.45-.98-.86-1.36-1.34-.41-.51-.93-1-1.26-1.54-.75-1.03-1.45-2.17-1.96-3.39-1.08-2.42-1.62-5.11-1.58-7.78.07-2.67.74-5.31,1.9-7.63,1.17-2.34,2.78-4.32,4.74-5.92,1.87-1.53,4.02-2.62,6.16-3.24,2.14-.62,4.27-.79,6.19-.65,1.92.15,3.66.55,5.1,1.15,1.46.54,2.62,1.27,3.55,1.87.89.68,1.58,1.2,1.99,1.64.35.33.53.5.6.57l2.65-2.65c-.11-.1-.37-.32-.77-.67" style="fill: #fff;"/>
        <path d="M93.56,27.96c-.51.71-1.13,1.37-1.86,1.99-.73.62-1.54,1.16-2.42,1.62-.89.46-1.85.83-2.88,1.09-1.03.27-2.11.4-3.23.4-1.85,0-3.54-.32-5.07-.95-1.53-.63-2.85-1.51-3.96-2.64-1.1-1.13-1.96-2.47-2.57-4.01-.61-1.54-.91-3.24-.91-5.09s.3-3.48.91-5.05c.61-1.57,1.46-2.93,2.57-4.08,1.11-1.15,2.43-2.06,3.97-2.73,1.54-.67,3.25-1,5.12-1,2.26,0,4.23.41,5.92,1.24,1.69.83,3.09,2.02,4.21,3.57l-3.75,3.61c-.73-1.02-1.59-1.84-2.59-2.46-1-.62-2.19-.93-3.57-.93-1.1,0-2.08.2-2.95.6-.88.4-1.62.95-2.22,1.66-.61.71-1.08,1.53-1.4,2.46-.33.94-.49,1.93-.49,2.97s.16,2.07.49,2.99c.33.92.79,1.73,1.4,2.41.61.68,1.34,1.22,2.19,1.6.85.39,1.81.58,2.88.58.88,0,1.63-.09,2.28-.27.64-.18,1.21-.43,1.71-.73s.94-.65,1.33-1.06c.39-.4.76-.81,1.13-1.22l3.75,3.43Z" style="fill: #fff;"/>
        <path d="M107.39,27.89c1.07,0,2.03-.21,2.88-.62.85-.41,1.57-.97,2.17-1.68.6-.7,1.05-1.52,1.37-2.44.31-.92.47-1.91.47-2.95s-.16-2.03-.47-2.95c-.32-.92-.77-1.73-1.37-2.42-.6-.69-1.32-1.24-2.17-1.64-.85-.4-1.81-.6-2.88-.6s-2.04.2-2.9.6c-.86.4-1.59.95-2.19,1.64-.6.69-1.05,1.5-1.37,2.42-.32.92-.47,1.91-.47,2.95s.16,2.03.47,2.95c.32.92.77,1.74,1.37,2.44.6.71,1.32,1.26,2.19,1.68.86.41,1.83.62,2.9.62M107.39,33.07c-1.8,0-3.47-.33-5.01-.98-1.54-.66-2.88-1.55-4.01-2.7-1.13-1.14-2.02-2.5-2.66-4.06-.65-1.57-.97-3.25-.97-5.05s.32-3.51.97-5.07c.64-1.56,1.53-2.9,2.66-4.05,1.13-1.14,2.47-2.04,4.01-2.7,1.54-.66,3.21-.98,5.01-.98s3.47.33,5.01.98c1.54.66,2.88,1.56,4.01,2.7,1.13,1.14,2.02,2.49,2.66,4.05.64,1.55.97,3.24.97,5.07s-.32,3.48-.97,5.05c-.64,1.57-1.53,2.92-2.66,4.06-1.13,1.14-2.47,2.04-4.01,2.7-1.54.66-3.21.98-5.01.98" style="fill: #fff;"/>
      </g>
      <polygon points="122.98 8.14 128.22 8.14 138.76 23.92 138.76 8.14 144.19 8.14 144.19 32.45 139.2 32.45 128.41 16.37 128.41 32.45 122.98 32.45 122.98 8.14" style="fill: #fff;"/>
      <g style="clip-path: url(#clippath-1);">
        <path d="M170.01,27.96c-.51.71-1.13,1.37-1.86,1.99-.73.62-1.54,1.16-2.42,1.62-.89.46-1.85.83-2.88,1.09-1.03.27-2.11.4-3.23.4-1.85,0-3.54-.32-5.07-.95-1.53-.63-2.85-1.51-3.96-2.64-1.1-1.13-1.96-2.47-2.57-4.01-.61-1.54-.91-3.24-.91-5.09s.3-3.48.91-5.05c.61-1.57,1.46-2.93,2.57-4.08,1.11-1.15,2.43-2.06,3.97-2.73,1.54-.67,3.25-1,5.12-1,2.26,0,4.23.41,5.92,1.24,1.69.83,3.09,2.02,4.21,3.57l-3.75,3.61c-.73-1.02-1.59-1.84-2.59-2.46-1-.62-2.19-.93-3.57-.93-1.1,0-2.08.2-2.95.6-.88.4-1.62.95-2.22,1.66-.61.71-1.08,1.53-1.4,2.46-.33.94-.49,1.93-.49,2.97s.16,2.07.49,2.99c.33.92.79,1.73,1.4,2.41.61.68,1.34,1.22,2.19,1.6.85.39,1.81.58,2.88.58.88,0,1.63-.09,2.28-.27.64-.18,1.21-.43,1.71-.73s.94-.65,1.33-1.06c.39-.4.77-.81,1.13-1.22l3.75,3.43Z" style="fill: #fff;"/>
        <path d="M181.71,19.11c1.02,0,1.82-.3,2.4-.91.58-.61.88-1.37.88-2.3,0-1-.29-1.79-.88-2.37-.58-.58-1.38-.88-2.4-.88h-3.39v6.45h3.39ZM172.96,8.14h9.04c1.41,0,2.65.2,3.72.6,1.07.4,1.96.95,2.68,1.64s1.25,1.5,1.61,2.42c.35.92.53,1.91.53,2.95,0,1.58-.35,2.96-1.04,4.14-.69,1.18-1.67,2.12-2.93,2.82l5.4,9.73h-6.05l-4.52-8.93h-3.06v8.93h-5.36V8.14Z" style="fill: #fff;"/>
      </g>
      <polygon points="194.87 8.14 211.49 8.14 211.49 12.95 200.37 12.95 200.37 17.69 209.01 17.69 209.01 22.35 200.37 22.35 200.37 27.6 212.29 27.6 212.29 32.45 194.87 32.45 194.87 8.14" style="fill: #fff;"/>
      <polygon points="222.28 12.98 214.41 12.98 214.41 8.14 235.66 8.14 235.66 12.98 227.82 12.98 227.82 32.45 222.28 32.45 222.28 12.98" style="fill: #fff;"/>
      <polygon points="238.58 8.14 238.58 32.45 256 32.45 256 27.6 244.08 27.6 244.08 22.35 252.72 22.35 252.72 17.69 244.08 17.69 244.08 12.95 255.2 12.95 255.2 8.14 238.58 8.14" style="fill: #fff;"/>
      <g style="clip-path: url(#clippath-2);">
        <path d="M91.46,60.5c-.15.24-.42.62-.82,1.13-.4.51-.96,1.03-1.68,1.55-.72.52-1.6.98-2.64,1.37-1.04.39-2.28.58-3.72.58-1.75,0-3.35-.32-4.79-.97-1.45-.64-2.69-1.54-3.72-2.68-1.03-1.14-1.83-2.49-2.39-4.05-.56-1.56-.84-3.24-.84-5.07s.28-3.43.84-4.98c.56-1.54,1.35-2.89,2.39-4.05,1.03-1.15,2.27-2.06,3.72-2.72,1.45-.66,3.04-.98,4.79-.98,1.43,0,2.67.19,3.72.58,1.05.39,1.93.84,2.64,1.37.72.52,1.28,1.04,1.68,1.55.4.51.67.89.82,1.13l-1.31.91c-.14-.19-.38-.5-.71-.93-.33-.42-.79-.86-1.39-1.29-.6-.44-1.33-.83-2.21-1.17-.88-.34-1.93-.51-3.17-.51-1.56,0-2.95.28-4.17.86-1.23.57-2.27,1.36-3.12,2.35-.85,1-1.5,2.17-1.95,3.52-.45,1.35-.68,2.8-.68,4.36s.23,3.01.69,4.35c.46,1.35,1.12,2.53,1.97,3.54.85,1.01,1.89,1.8,3.14,2.37,1.24.57,2.65.86,4.23.86,1.14,0,2.14-.17,3.01-.51.86-.34,1.59-.73,2.19-1.16.6-.44,1.07-.87,1.42-1.3.35-.42.6-.73.75-.93l1.31.91Z" style="fill: #fff;"/>
        <path d="M103.74,52.37c4.01,0,6.01-1.75,6.01-5.25,0-1.75-.53-3.06-1.59-3.94-1.06-.87-2.6-1.31-4.65-1.31h-6.09v10.5h6.31ZM95.69,40.23h7.32c1.58,0,2.92.17,4.01.51,1.09.34,1.98.82,2.66,1.44.68.62,1.17,1.35,1.48,2.19.3.84.45,1.76.45,2.75,0,1.58-.41,2.98-1.22,4.21-.81,1.23-2.11,2.05-3.88,2.46l5.79,10.75h-2l-5.65-10.53h-7.22v10.53h-1.75v-24.31Z" style="fill: #fff;"/>
      </g>
      <polygon points="116.4 40.23 130.98 40.23 130.98 41.87 118.15 41.87 118.15 51.06 128.17 51.06 128.17 52.7 118.15 52.7 118.15 62.9 131.93 62.9 131.93 64.54 116.4 64.54 116.4 40.23" style="fill: #fff;"/>
      <path d="M151.13,55.06l-5.07-12.61-5.07,12.61h10.13ZM145.26,40.23h1.75l9.95,24.31h-2.01l-3.17-7.84h-11.44l-3.13,7.84h-1.89l9.95-24.31Z" style="fill: #fff;"/>
      <polygon points="163.34 41.8 153.9 41.8 153.9 40.23 174.53 40.23 174.53 41.8 165.09 41.8 165.09 64.54 163.34 64.54 163.34 41.8" style="fill: #fff;"/>
      <rect x="178.32" y="40.23" width="1.75" height="24.31" style="fill: #fff;"/>
      <polygon points="184.37 40.23 186.37 40.23 195.27 62.39 204.13 40.23 206.02 40.23 196.07 64.54 194.32 64.54 184.37 40.23" style="fill: #fff;"/>
      <polygon points="209.56 40.23 224.14 40.23 224.14 41.87 211.31 41.87 211.31 51.06 221.33 51.06 221.33 52.7 211.31 52.7 211.31 62.9 225.08 62.9 225.08 64.54 209.56 64.54 209.56 40.23" style="fill: #fff;"/>
    </g>
  </g>
</svg>