<svg xmlns="http://www.w3.org/2000/svg" version="1.1" xmlns:xlink="http://www.w3.org/1999/xlink" xmlns:svgjs="http://svgjs.dev/svgjs" width="1000" height="1000"><style>
    #light-icon {
      display: inline;
    }
    #dark-icon {
      display: none;
    }

    @media (prefers-color-scheme: dark) {
      #light-icon {
        display: none;
      }
      #dark-icon {
        display: inline;
      }
    }
  </style><g id="light-icon"><svg xmlns="http://www.w3.org/2000/svg" version="1.1" xmlns:xlink="http://www.w3.org/1999/xlink" xmlns:svgjs="http://svgjs.dev/svgjs" width="1000" height="1000"><g clip-path="url(#SvgjsClipPath1027)"><rect width="1000" height="1000" fill="#464d53"></rect><g transform="matrix(8.75,0,0,8.75,198.08124999999995,150)"><svg xmlns="http://www.w3.org/2000/svg" version="1.1" xmlns:xlink="http://www.w3.org/1999/xlink" xmlns:svgjs="http://svgjs.dev/svgjs" width="69.01" height="80"><svg id="Layer_1" data-name="Layer 1" xmlns="http://www.w3.org/2000/svg" xmlns:xlink="http://www.w3.org/1999/xlink" viewBox="0 0 69.01 80">
  <defs>
    <style>
      .concrete-1 {
        fill: none;
      }

      .concrete-2 {
        fill: #fff;
      }

      .concrete-3 {
        clip-path: url(#clippath);
      }
    </style>
    <clipPath id="clippath">
      <rect class="concrete-1" y="0" width="69.01" height="80"></rect>
    </clipPath>
  <clipPath id="SvgjsClipPath1027"><rect width="1000" height="1000" x="0" y="0" rx="350" ry="350"></rect></clipPath></defs>
  <g class="concrete-3">
    <path class="concrete-2" d="M64.46,13.54c-.9-.88-2.4-1.97-4.33-3.32-1.02-.58-2.13-1.26-3.39-1.92-1.31-.54-2.65-1.31-4.22-1.76-3.06-1.15-6.71-1.86-10.71-2.02-3.99-.15-8.36.35-12.7,1.78-4.33,1.42-8.63,3.78-12.39,7.09-3.67,3.2-6.88,7.39-9,12.1-2.15,4.71-3.27,9.96-3.23,15.19.09,5.23,1.34,10.42,3.58,15.03.51,1.18,1.18,2.26,1.85,3.34.61,1.11,1.44,2.09,2.19,3.11.73,1.06,1.63,1.85,2.43,2.76.83.97,1.82,1.67,2.7,2.5,3.73,3.11,7.96,5.31,12.2,6.58,4.24,1.28,8.46,1.66,12.29,1.42,3.83-.25,7.31-1.02,10.2-2.19,1.49-.47,2.75-1.23,3.98-1.77,1.17-.65,2.21-1.33,3.17-1.9,1.79-1.33,3.18-2.39,4.01-3.25.87-.81,1.34-1.24,1.34-1.24,0,0-.48.42-1.37,1.21-.85.84-2.27,1.86-4.08,3.13-.97.54-2.01,1.19-3.19,1.81-1.23.51-2.5,1.23-3.98,1.66-2.88,1.08-6.33,1.75-10.1,1.9-3.76.14-7.88-.34-11.97-1.69-4.09-1.34-8.13-3.58-11.64-6.67-.82-.82-1.79-1.55-2.51-2.45-.76-.92-1.69-1.79-2.32-2.78-.68-.98-1.43-1.9-1.99-2.98-.61-1.04-1.23-2.09-1.68-3.23-2.02-4.44-3.07-9.38-3.03-14.31.09-4.93,1.27-9.81,3.39-14.15,2.11-4.35,5.1-8.08,8.68-11.05,3.48-2.89,7.46-4.96,11.45-6.16,3.99-1.21,7.96-1.56,11.57-1.33,3.61.24,6.88.96,9.59,2.07,1.4.44,2.58,1.17,3.74,1.67,1.1.62,2.08,1.25,2.98,1.79,1.68,1.25,2.99,2.24,3.77,3.06.64.6,1.04.96,1.19,1.1l2.92-2.92c-.16-.14-.62-.54-1.38-1.22"></path>
    <path class="concrete-2" d="M64.18,71.24c-.79.57-1.7,1.22-2.72,1.95-1.09.62-2.28,1.34-3.61,2.05-1.4.57-2.82,1.4-4.5,1.88-3.26,1.23-7.16,1.99-11.42,2.17-4.26.17-8.92-.37-13.55-1.89-4.63-1.51-9.21-4.04-13.19-7.53-.94-.92-2.03-1.75-2.86-2.77-.87-1.04-1.91-2.01-2.63-3.14-.77-1.11-1.62-2.15-2.26-3.38-.69-1.18-1.39-2.37-1.91-3.66-2.3-5.03-3.5-10.63-3.47-16.22.1-5.59,1.43-11.14,3.82-16.06,2.39-4.94,5.78-9.19,9.83-12.56,3.95-3.3,8.47-5.66,13-7.02,4.53-1.38,9.05-1.78,13.15-1.53,4.1.27,7.83,1.08,10.91,2.33,1.59.49,2.94,1.32,4.25,1.89,1.25.7,2.37,1.42,3.39,2.03.95.72,1.8,1.36,2.54,1.92.75.55,1.28,1.14,1.76,1.56.76.7,1.21,1.12,1.37,1.26l2.92-2.92c-.16-.14-.68-.6-1.55-1.38-.55-.45-1.15-1.09-1.99-1.68-.83-.6-1.79-1.29-2.86-2.06-1.15-.65-2.4-1.42-3.8-2.16-1.47-.61-2.97-1.47-4.74-1.99C50.63,1.03,46.53.22,42.04.03c-4.49-.18-9.4.38-14.28,1.99-4.88,1.59-9.71,4.24-13.94,7.95-4.14,3.61-7.75,8.31-10.15,13.61C1.24,28.89-.03,34.79,0,40.69c.09,5.9,1.49,11.74,4.01,16.94.57,1.33,1.33,2.55,2.08,3.77.69,1.25,1.62,2.36,2.47,3.51.82,1.19,1.83,2.09,2.74,3.13.93,1.09,2.05,1.88,3.05,2.83,4.2,3.52,8.97,6,13.75,7.45,4.78,1.46,9.55,1.89,13.88,1.63,4.33-.28,8.26-1.14,11.52-2.46,1.68-.53,3.1-1.39,4.49-2,1.33-.74,2.5-1.5,3.58-2.14,1.01-.76,1.9-1.43,2.69-2.02.79-.58,1.35-1.2,1.86-1.64.99-.91,1.52-1.4,1.52-1.4,0,0-.54.48-1.55,1.37-.52.43-1.09,1.04-1.89,1.6"></path>
    <path class="concrete-2" d="M61.46,16.88c-.79-.77-2.11-1.73-3.8-2.91-.9-.51-1.87-1.1-2.97-1.68-1.15-.47-2.32-1.14-3.7-1.54-2.68-1-5.89-1.62-9.39-1.76-3.5-.13-7.32.32-11.12,1.58-3.79,1.25-7.55,3.33-10.84,6.23-3.2,2.8-6.01,6.48-7.85,10.6-1.87,4.12-2.84,8.71-2.8,13.28.09,4.57,1.19,9.1,3.15,13.12.95,2.03,2.17,3.88,3.54,5.63.64.93,1.42,1.6,2.12,2.4.73.84,1.59,1.45,2.37,2.18,3.25,2.71,6.95,4.62,10.65,5.72,3.7,1.11,7.38,1.43,10.72,1.22,3.34-.23,6.37-.9,8.88-1.92,1.3-.41,2.39-1.08,3.46-1.55,1.02-.57,1.92-1.16,2.75-1.66,1.56-1.16,2.77-2.08,3.49-2.83.76-.71,1.16-1.08,1.16-1.08,0,0-.42.36-1.19,1.05-.74.73-1.98,1.61-3.56,2.72-.84.47-1.75,1.03-2.78,1.57-1.08.44-2.17,1.07-3.46,1.43-2.51.94-5.51,1.51-8.78,1.64-3.27.12-6.85-.31-10.39-1.49-3.55-1.17-7.05-3.12-10.09-5.8-.71-.71-1.55-1.35-2.18-2.12-.66-.8-1.47-1.56-2.01-2.42-1.21-1.64-2.33-3.45-3.17-5.39-1.74-3.85-2.65-8.13-2.6-12.4.09-4.27,1.12-8.5,2.95-12.24,1.84-3.76,4.43-6.98,7.53-9.54,3.01-2.49,6.45-4.27,9.9-5.3,3.45-1.03,6.88-1.33,9.99-1.13,3.11.21,5.93.84,8.27,1.8,1.21.38,2.22,1.01,3.22,1.45.95.54,1.79,1.08,2.56,1.54,1.45,1.09,2.57,1.94,3.25,2.64.53.49.87.81,1.01.94l2.92-2.92c-.15-.13-.55-.49-1.2-1.06"></path>
    <path class="concrete-2" d="M58.45,20.22c-.68-.66-1.82-1.48-3.27-2.49-.77-.44-1.61-.94-2.56-1.44-.99-.41-2-.97-3.18-1.31-2.31-.85-5.06-1.38-8.06-1.49-3-.1-6.28.29-9.54,1.38-3.25,1.08-6.47,2.86-9.28,5.36-2.72,2.4-5.13,5.56-6.7,9.09-1.59,3.53-2.42,7.46-2.37,11.37.08,3.91,1.03,7.78,2.72,11.2.81,1.73,1.86,3.31,3.04,4.8.55.79,1.21,1.36,1.81,2.04.63.72,1.36,1.24,2.03,1.86,2.78,2.31,5.94,3.93,9.09,4.86,3.15.94,6.29,1.21,9.13,1.02,2.84-.2,5.42-.78,7.55-1.66,1.1-.35,2.03-.92,2.94-1.33.87-.49,1.63-.99,2.34-1.42,1.33-.99,2.35-1.78,2.96-2.42.64-.6.99-.92.99-.92,0,0-.35.31-1.02.89-.63.62-1.69,1.37-3.03,2.3-.72.4-1.49.87-2.36,1.32-.91.37-1.85.9-2.94,1.21-2.13.79-4.68,1.27-7.46,1.37-2.77.09-5.81-.27-8.81-1.29-3-1-5.97-2.66-8.53-4.94-.6-.6-1.31-1.15-1.84-1.8-.56-.68-1.25-1.33-1.7-2.06-1.01-1.39-1.96-2.92-2.67-4.56-1.47-3.26-2.22-6.88-2.17-10.49.08-3.61.97-7.17,2.52-10.33,1.56-3.17,3.74-5.87,6.38-8.03,2.53-2.09,5.44-3.58,8.35-4.43,2.9-.86,5.79-1.1,8.41-.92,2.62.19,4.99.72,6.95,1.53,1.01.32,1.86.85,2.7,1.22.8.45,1.5.91,2.15,1.3,1.21.92,2.16,1.63,2.72,2.23.43.4.72.67.84.78l2.92-2.92c-.14-.12-.49-.43-1.02-.9"></path>
    <path class="concrete-2" d="M55.45,23.56c-.58-.55-1.52-1.23-2.74-2.07-1.27-.76-2.85-1.64-4.81-2.28-1.93-.71-4.23-1.14-6.74-1.23-5-.19-10.98,1.45-15.68,5.68-2.25,2-4.25,4.64-5.55,7.58-1.32,2.94-1.99,6.21-1.94,9.46.08,3.25.88,6.45,2.29,9.29.68,1.43,1.55,2.74,2.53,3.98.46.66,1,1.12,1.5,1.68.53.6,1.13,1.02,1.69,1.53,4.64,3.85,10.42,5.18,15.09,4.81,2.35-.17,4.47-.66,6.23-1.39,1.79-.66,3.2-1.54,4.34-2.28,1.09-.82,1.93-1.47,2.43-2,.53-.5.81-.76.81-.76,0,0-.29.25-.84.73-.52.51-1.39,1.12-2.5,1.89-1.16.68-2.59,1.49-4.38,2.07-1.75.64-3.85,1.03-6.13,1.1-4.54.18-10.01-1.36-14.21-5.16-.49-.49-1.07-.95-1.49-1.48-.46-.56-1.03-1.11-1.39-1.7-.82-1.13-1.59-2.39-2.16-3.74-1.19-2.67-1.79-5.63-1.74-8.58.08-2.94.81-5.85,2.09-8.41,1.29-2.58,3.06-4.76,5.22-6.52,2.06-1.68,4.43-2.89,6.79-3.57,2.36-.69,4.71-.87,6.83-.72,2.12.16,4.04.6,5.62,1.27,1.61.6,2.88,1.4,3.91,2.06.98.75,1.74,1.33,2.19,1.81.39.36.58.55.66.62l2.92-2.92c-.12-.11-.41-.36-.85-.74"></path>
  </g>
</svg></svg></g></g></svg></g><g id="dark-icon"><svg xmlns="http://www.w3.org/2000/svg" version="1.1" xmlns:xlink="http://www.w3.org/1999/xlink" xmlns:svgjs="http://svgjs.dev/svgjs" width="1000" height="1000"><g><g transform="matrix(12.5,0,0,12.5,68.68749999999994,0)"><svg xmlns="http://www.w3.org/2000/svg" version="1.1" xmlns:xlink="http://www.w3.org/1999/xlink" xmlns:svgjs="http://svgjs.dev/svgjs" width="69.01" height="80"><svg id="Layer_1" data-name="Layer 1" xmlns="http://www.w3.org/2000/svg" xmlns:xlink="http://www.w3.org/1999/xlink" viewBox="0 0 69.01 80">
  <defs>
    <style>
      .concrete-1 {
        fill: none;
      }

      .concrete-2 {
        fill: #fff;
      }

      .concrete-3 {
        clip-path: url(#clippath);
      }
    </style>
    <clipPath id="clippath">
      <rect class="concrete-1" y="0" width="69.01" height="80"></rect>
    </clipPath>
  </defs>
  <g class="concrete-3">
    <path class="concrete-2" d="M64.46,13.54c-.9-.88-2.4-1.97-4.33-3.32-1.02-.58-2.13-1.26-3.39-1.92-1.31-.54-2.65-1.31-4.22-1.76-3.06-1.15-6.71-1.86-10.71-2.02-3.99-.15-8.36.35-12.7,1.78-4.33,1.42-8.63,3.78-12.39,7.09-3.67,3.2-6.88,7.39-9,12.1-2.15,4.71-3.27,9.96-3.23,15.19.09,5.23,1.34,10.42,3.58,15.03.51,1.18,1.18,2.26,1.85,3.34.61,1.11,1.44,2.09,2.19,3.11.73,1.06,1.63,1.85,2.43,2.76.83.97,1.82,1.67,2.7,2.5,3.73,3.11,7.96,5.31,12.2,6.58,4.24,1.28,8.46,1.66,12.29,1.42,3.83-.25,7.31-1.02,10.2-2.19,1.49-.47,2.75-1.23,3.98-1.77,1.17-.65,2.21-1.33,3.17-1.9,1.79-1.33,3.18-2.39,4.01-3.25.87-.81,1.34-1.24,1.34-1.24,0,0-.48.42-1.37,1.21-.85.84-2.27,1.86-4.08,3.13-.97.54-2.01,1.19-3.19,1.81-1.23.51-2.5,1.23-3.98,1.66-2.88,1.08-6.33,1.75-10.1,1.9-3.76.14-7.88-.34-11.97-1.69-4.09-1.34-8.13-3.58-11.64-6.67-.82-.82-1.79-1.55-2.51-2.45-.76-.92-1.69-1.79-2.32-2.78-.68-.98-1.43-1.9-1.99-2.98-.61-1.04-1.23-2.09-1.68-3.23-2.02-4.44-3.07-9.38-3.03-14.31.09-4.93,1.27-9.81,3.39-14.15,2.11-4.35,5.1-8.08,8.68-11.05,3.48-2.89,7.46-4.96,11.45-6.16,3.99-1.21,7.96-1.56,11.57-1.33,3.61.24,6.88.96,9.59,2.07,1.4.44,2.58,1.17,3.74,1.67,1.1.62,2.08,1.25,2.98,1.79,1.68,1.25,2.99,2.24,3.77,3.06.64.6,1.04.96,1.19,1.1l2.92-2.92c-.16-.14-.62-.54-1.38-1.22"></path>
    <path class="concrete-2" d="M64.18,71.24c-.79.57-1.7,1.22-2.72,1.95-1.09.62-2.28,1.34-3.61,2.05-1.4.57-2.82,1.4-4.5,1.88-3.26,1.23-7.16,1.99-11.42,2.17-4.26.17-8.92-.37-13.55-1.89-4.63-1.51-9.21-4.04-13.19-7.53-.94-.92-2.03-1.75-2.86-2.77-.87-1.04-1.91-2.01-2.63-3.14-.77-1.11-1.62-2.15-2.26-3.38-.69-1.18-1.39-2.37-1.91-3.66-2.3-5.03-3.5-10.63-3.47-16.22.1-5.59,1.43-11.14,3.82-16.06,2.39-4.94,5.78-9.19,9.83-12.56,3.95-3.3,8.47-5.66,13-7.02,4.53-1.38,9.05-1.78,13.15-1.53,4.1.27,7.83,1.08,10.91,2.33,1.59.49,2.94,1.32,4.25,1.89,1.25.7,2.37,1.42,3.39,2.03.95.72,1.8,1.36,2.54,1.92.75.55,1.28,1.14,1.76,1.56.76.7,1.21,1.12,1.37,1.26l2.92-2.92c-.16-.14-.68-.6-1.55-1.38-.55-.45-1.15-1.09-1.99-1.68-.83-.6-1.79-1.29-2.86-2.06-1.15-.65-2.4-1.42-3.8-2.16-1.47-.61-2.97-1.47-4.74-1.99C50.63,1.03,46.53.22,42.04.03c-4.49-.18-9.4.38-14.28,1.99-4.88,1.59-9.71,4.24-13.94,7.95-4.14,3.61-7.75,8.31-10.15,13.61C1.24,28.89-.03,34.79,0,40.69c.09,5.9,1.49,11.74,4.01,16.94.57,1.33,1.33,2.55,2.08,3.77.69,1.25,1.62,2.36,2.47,3.51.82,1.19,1.83,2.09,2.74,3.13.93,1.09,2.05,1.88,3.05,2.83,4.2,3.52,8.97,6,13.75,7.45,4.78,1.46,9.55,1.89,13.88,1.63,4.33-.28,8.26-1.14,11.52-2.46,1.68-.53,3.1-1.39,4.49-2,1.33-.74,2.5-1.5,3.58-2.14,1.01-.76,1.9-1.43,2.69-2.02.79-.58,1.35-1.2,1.86-1.64.99-.91,1.52-1.4,1.52-1.4,0,0-.54.48-1.55,1.37-.52.43-1.09,1.04-1.89,1.6"></path>
    <path class="concrete-2" d="M61.46,16.88c-.79-.77-2.11-1.73-3.8-2.91-.9-.51-1.87-1.1-2.97-1.68-1.15-.47-2.32-1.14-3.7-1.54-2.68-1-5.89-1.62-9.39-1.76-3.5-.13-7.32.32-11.12,1.58-3.79,1.25-7.55,3.33-10.84,6.23-3.2,2.8-6.01,6.48-7.85,10.6-1.87,4.12-2.84,8.71-2.8,13.28.09,4.57,1.19,9.1,3.15,13.12.95,2.03,2.17,3.88,3.54,5.63.64.93,1.42,1.6,2.12,2.4.73.84,1.59,1.45,2.37,2.18,3.25,2.71,6.95,4.62,10.65,5.72,3.7,1.11,7.38,1.43,10.72,1.22,3.34-.23,6.37-.9,8.88-1.92,1.3-.41,2.39-1.08,3.46-1.55,1.02-.57,1.92-1.16,2.75-1.66,1.56-1.16,2.77-2.08,3.49-2.83.76-.71,1.16-1.08,1.16-1.08,0,0-.42.36-1.19,1.05-.74.73-1.98,1.61-3.56,2.72-.84.47-1.75,1.03-2.78,1.57-1.08.44-2.17,1.07-3.46,1.43-2.51.94-5.51,1.51-8.78,1.64-3.27.12-6.85-.31-10.39-1.49-3.55-1.17-7.05-3.12-10.09-5.8-.71-.71-1.55-1.35-2.18-2.12-.66-.8-1.47-1.56-2.01-2.42-1.21-1.64-2.33-3.45-3.17-5.39-1.74-3.85-2.65-8.13-2.6-12.4.09-4.27,1.12-8.5,2.95-12.24,1.84-3.76,4.43-6.98,7.53-9.54,3.01-2.49,6.45-4.27,9.9-5.3,3.45-1.03,6.88-1.33,9.99-1.13,3.11.21,5.93.84,8.27,1.8,1.21.38,2.22,1.01,3.22,1.45.95.54,1.79,1.08,2.56,1.54,1.45,1.09,2.57,1.94,3.25,2.64.53.49.87.81,1.01.94l2.92-2.92c-.15-.13-.55-.49-1.2-1.06"></path>
    <path class="concrete-2" d="M58.45,20.22c-.68-.66-1.82-1.48-3.27-2.49-.77-.44-1.61-.94-2.56-1.44-.99-.41-2-.97-3.18-1.31-2.31-.85-5.06-1.38-8.06-1.49-3-.1-6.28.29-9.54,1.38-3.25,1.08-6.47,2.86-9.28,5.36-2.72,2.4-5.13,5.56-6.7,9.09-1.59,3.53-2.42,7.46-2.37,11.37.08,3.91,1.03,7.78,2.72,11.2.81,1.73,1.86,3.31,3.04,4.8.55.79,1.21,1.36,1.81,2.04.63.72,1.36,1.24,2.03,1.86,2.78,2.31,5.94,3.93,9.09,4.86,3.15.94,6.29,1.21,9.13,1.02,2.84-.2,5.42-.78,7.55-1.66,1.1-.35,2.03-.92,2.94-1.33.87-.49,1.63-.99,2.34-1.42,1.33-.99,2.35-1.78,2.96-2.42.64-.6.99-.92.99-.92,0,0-.35.31-1.02.89-.63.62-1.69,1.37-3.03,2.3-.72.4-1.49.87-2.36,1.32-.91.37-1.85.9-2.94,1.21-2.13.79-4.68,1.27-7.46,1.37-2.77.09-5.81-.27-8.81-1.29-3-1-5.97-2.66-8.53-4.94-.6-.6-1.31-1.15-1.84-1.8-.56-.68-1.25-1.33-1.7-2.06-1.01-1.39-1.96-2.92-2.67-4.56-1.47-3.26-2.22-6.88-2.17-10.49.08-3.61.97-7.17,2.52-10.33,1.56-3.17,3.74-5.87,6.38-8.03,2.53-2.09,5.44-3.58,8.35-4.43,2.9-.86,5.79-1.1,8.41-.92,2.62.19,4.99.72,6.95,1.53,1.01.32,1.86.85,2.7,1.22.8.45,1.5.91,2.15,1.3,1.21.92,2.16,1.63,2.72,2.23.43.4.72.67.84.78l2.92-2.92c-.14-.12-.49-.43-1.02-.9"></path>
    <path class="concrete-2" d="M55.45,23.56c-.58-.55-1.52-1.23-2.74-2.07-1.27-.76-2.85-1.64-4.81-2.28-1.93-.71-4.23-1.14-6.74-1.23-5-.19-10.98,1.45-15.68,5.68-2.25,2-4.25,4.64-5.55,7.58-1.32,2.94-1.99,6.21-1.94,9.46.08,3.25.88,6.45,2.29,9.29.68,1.43,1.55,2.74,2.53,3.98.46.66,1,1.12,1.5,1.68.53.6,1.13,1.02,1.69,1.53,4.64,3.85,10.42,5.18,15.09,4.81,2.35-.17,4.47-.66,6.23-1.39,1.79-.66,3.2-1.54,4.34-2.28,1.09-.82,1.93-1.47,2.43-2,.53-.5.81-.76.81-.76,0,0-.29.25-.84.73-.52.51-1.39,1.12-2.5,1.89-1.16.68-2.59,1.49-4.38,2.07-1.75.64-3.85,1.03-6.13,1.1-4.54.18-10.01-1.36-14.21-5.16-.49-.49-1.07-.95-1.49-1.48-.46-.56-1.03-1.11-1.39-1.7-.82-1.13-1.59-2.39-2.16-3.74-1.19-2.67-1.79-5.63-1.74-8.58.08-2.94.81-5.85,2.09-8.41,1.29-2.58,3.06-4.76,5.22-6.52,2.06-1.68,4.43-2.89,6.79-3.57,2.36-.69,4.71-.87,6.83-.72,2.12.16,4.04.6,5.62,1.27,1.61.6,2.88,1.4,3.91,2.06.98.75,1.74,1.33,2.19,1.81.39.36.58.55.66.62l2.92-2.92c-.12-.11-.41-.36-.85-.74"></path>
  </g>
</svg></svg></g></g></svg></g></svg>