<?xml version="1.0" encoding="UTF-8"?>
<svg id="Layer_1" data-name="Layer 1" xmlns="http://www.w3.org/2000/svg" xmlns:xlink="http://www.w3.org/1999/xlink" viewBox="0 0 106.57 79.49">
  <defs>
    <style>
      .cls-1 {
        fill: none;
      }

      .cls-2 {
        fill: #464d53;
      }

      .cls-3 {
        clip-path: url(#clippath-1);
      }

      .cls-4 {
        clip-path: url(#clippath-3);
      }

      .cls-5 {
        clip-path: url(#clippath-4);
      }

      .cls-6 {
        clip-path: url(#clippath-2);
      }

      .cls-7 {
        clip-path: url(#clippath-7);
      }

      .cls-8 {
        clip-path: url(#clippath-6);
      }

      .cls-9 {
        clip-path: url(#clippath-5);
      }

      .cls-10 {
        clip-path: url(#clippath);
      }
    </style>
    <clipPath id="clippath">
      <rect class="cls-1" x="0" y="0" width="106.57" height="79.49"/>
    </clipPath>
    <clipPath id="clippath-1">
      <rect class="cls-1" x="0" y="0" width="106.57" height="79.49"/>
    </clipPath>
    <clipPath id="clippath-2">
      <rect class="cls-1" x="0" y="0" width="106.57" height="79.49"/>
    </clipPath>
    <clipPath id="clippath-3">
      <rect class="cls-1" x="0" y="0" width="106.57" height="79.49"/>
    </clipPath>
    <clipPath id="clippath-4">
      <rect class="cls-1" x="0" y="0" width="106.57" height="79.49"/>
    </clipPath>
    <clipPath id="clippath-5">
      <rect class="cls-1" x="0" y="0" width="106.57" height="79.49"/>
    </clipPath>
    <clipPath id="clippath-6">
      <rect class="cls-1" x="0" y="0" width="106.57" height="79.49"/>
    </clipPath>
    <clipPath id="clippath-7">
      <rect class="cls-1" x="0" y="0" width="106.57" height="79.49"/>
    </clipPath>
  </defs>
  <path class="cls-2" d="M6.15,59.05h.04l1.59,4.62h-3.26l1.64-4.62ZM4.77,55.95l-4.77,12.58h2.8l.99-2.8h4.7l.95,2.8h2.87l-4.7-12.58h-2.84Z"/>
  <g class="cls-10">
    <path class="cls-2" d="M13.14,59.42h2.38v1.27h.05c.63-1.04,1.73-1.52,2.78-1.52,2.66,0,3.33,1.5,3.33,3.75v5.6h-2.5v-5.14c0-1.5-.42-2.24-1.6-2.24-1.36,0-1.94.76-1.94,2.61v4.77h-2.5v-9.11Z"/>
  </g>
  <path class="cls-2" d="M26.16,58.01h-2.5v-2.06h2.5v2.06ZM23.66,59.42h2.5v9.11h-2.5v-9.11Z"/>
  <g class="cls-3">
    <path class="cls-2" d="M28.2,59.42h2.36v1.23h.03c.65-.93,1.58-1.48,2.78-1.48s2.17.41,2.66,1.52c.55-.79,1.48-1.52,2.75-1.52,1.94,0,3.33.9,3.33,3.26v6.1h-2.5v-5.16c0-1.22-.11-2.22-1.53-2.22s-1.67,1.18-1.67,2.31v5.07h-2.5v-5.11c0-1.06.07-2.27-1.51-2.27-.49,0-1.69.32-1.69,2.1v5.29h-2.5v-9.11Z"/>
    <path class="cls-2" d="M43.64,62.22c.14-2.33,2.24-3.05,4.28-3.05,1.81,0,4,.41,4,2.59v4.74c0,.83.09,1.66.32,2.03h-2.54c-.09-.28-.16-.58-.18-.88-.79.83-1.94,1.13-3.07,1.13-1.74,0-3.1-.86-3.1-2.73.04-4.14,6.17-1.92,6.06-3.96,0-1.06-.74-1.23-1.62-1.23-.97,0-1.57.39-1.66,1.37h-2.5ZM49.41,64.07c-.42.37-1.3.39-2.08.53-.77.14-1.48.42-1.48,1.34s.72,1.16,1.53,1.16c1.95,0,2.03-1.53,2.03-2.1v-.94Z"/>
  </g>
  <rect class="cls-2" x="53.22" y="55.95" width="2.5" height="12.58"/>
  <g class="cls-6">
    <path class="cls-2" d="M59.63,65.57c0,1.08.95,1.53,1.92,1.53.71,0,1.64-.28,1.64-1.16,0-.76-1.06-1.04-2.84-1.41-1.46-.33-2.89-.81-2.89-2.43,0-2.33,2.01-2.92,3.96-2.92s3.82.67,4.02,2.91h-2.38c-.07-.97-.81-1.23-1.71-1.23-.56,0-1.39.09-1.39.84,0,.9,1.43,1.02,2.84,1.36,1.46.33,2.89.86,2.89,2.55,0,2.4-2.1,3.17-4.16,3.17s-4.19-.79-4.28-3.21h2.38Z"/>
  </g>
  <path class="cls-2" d="M70.64,55.95h1.85l4.92,12.58h-1.85l-1.37-3.79h-5.32l-1.41,3.79h-1.73l4.92-12.58ZM69.39,63.33h4.26l-2.1-5.87h-.04l-2.13,5.87Z"/>
  <g class="cls-4">
    <path class="cls-2" d="M78.96,65.66c.05,1.34,1.23,1.76,2.45,1.76.93,0,2.2-.21,2.2-1.36,0-2.34-5.95-.76-5.95-4.26,0-1.83,1.8-2.59,3.4-2.59,2.04,0,3.59.64,3.74,2.85h-1.5c-.09-1.16-1.15-1.53-2.11-1.53-.9,0-1.94.25-1.94,1.16,0,1.06,1.58,1.27,2.98,1.59,1.5.33,2.98.84,2.98,2.59,0,2.18-2.03,2.87-3.88,2.87-2.04,0-3.77-.83-3.86-3.08h1.5Z"/>
  </g>
  <path class="cls-2" d="M88.08,57.78h-1.5v-1.83h1.5v1.83ZM86.58,59.42h1.5v9.11h-1.5v-9.11Z"/>
  <g class="cls-5">
    <path class="cls-2" d="M97.77,68.49c-.26.16-.64.25-1.07.25-.78,0-1.27-.42-1.27-1.41-.83.99-1.94,1.41-3.21,1.41-1.66,0-3.01-.72-3.01-2.55,0-2.06,1.53-2.52,3.08-2.8,1.64-.33,3.07-.19,3.07-1.34,0-1.32-1.09-1.51-2.03-1.51-1.27,0-2.2.39-2.27,1.73h-1.5c.09-2.25,1.82-3.05,3.86-3.05,1.64,0,3.42.37,3.42,2.5v4.69c0,.7,0,1.02.48,1.02.14,0,.3-.04.46-.09v1.16ZM95.34,63.82c-1.16.86-4.54.02-4.54,2.26,0,.99.85,1.34,1.76,1.34,1.97,0,2.78-1.22,2.78-2.06v-1.53Z"/>
    <path class="cls-2" d="M66.96,51.77V15.65l-29.3,36.13h12.99s1.1.17,1.8-.66c.61-.73,3.23-3.61,3.23-3.61v4.36l11.28-.09Z"/>
    <path class="cls-2" d="M92.18,51.7v-27.8l-25.32,27.8h10.05s1.07.03,1.56-.55c.49-.58,4.61-4.68,4.61-4.68v5.31l9.1-.07Z"/>
    <path class="cls-2" d="M102.01,13.5c-2.43-1.01-2.5-1.99-2.5-1.99-.67-6.54-10.56-8.38-10.56-8.38-.28-1.04-1.61-3.22-3.89-3.13-2.27.09-2.75,3.41-2.75,3.41-9.29,2.46-14.6,6.64-14.22,17.44.38,10.81,4.65,19.06,4.65,19.06,0,0,8.63-9.1,12.7-12.71,4.08-3.6,7.4-4.65,9.86-5.31,2.46-.66,4.17-.47,6.54-.47s3.03-1.52,3.7-2.56c.66-1.04.91-1.42,1.01-2.18.1-.76-1.34-1.86-4.55-3.19M95.81,11.99c-.26.11-1.04.2-1.33.23-.29.04-1.67.15-1.67.15,0,0,.01,0,.03-.02.2-.16,1.4-1.15,1.5-1.23.1-.08.63-.5.9-.48s.63.33.99,1.15c0,0-.14.08-.41.19"/>
  </g>
  <polygon class="cls-2" points="44.24 74.05 41.58 76.7 41.58 74.05 40.88 74.05 40.88 79.4 41.58 79.4 41.58 77.55 42.46 76.69 44.37 79.4 45.3 79.4 42.96 76.22 45.2 74.05 44.24 74.05"/>
  <path class="cls-2" d="M45.66,79.4h.66v-3.87h-.66v3.87ZM45.66,74.8h.66v-.76h-.66v.76Z"/>
  <g class="cls-9">
    <path class="cls-2" d="M47.17,79.4v-3.88h.59v.55c.28-.42.69-.64,1.23-.64.23,0,.45.04.64.13.2.08.34.19.44.33.1.13.16.3.2.49.03.12.04.33.04.64v2.38h-.66v-2.36c0-.27-.03-.47-.08-.6-.05-.13-.14-.24-.27-.32-.13-.08-.28-.12-.46-.12-.28,0-.52.09-.73.27-.2.18-.3.52-.3,1.01v2.12h-.66Z"/>
    <path class="cls-2" d="M53.7,79.4v-.49c-.25.38-.61.58-1.09.58-.31,0-.59-.09-.85-.25-.26-.17-.46-.41-.6-.71-.14-.3-.21-.66-.21-1.05s.06-.74.2-1.05c.13-.32.32-.56.58-.72.26-.17.55-.25.86-.25.23,0,.44.05.62.15.18.1.33.22.45.38v-1.92h.65v5.35h-.61ZM51.62,77.46c0,.5.1.87.31,1.12.21.24.45.36.74.36s.53-.12.73-.35c.2-.24.3-.59.3-1.07,0-.53-.1-.92-.31-1.17-.21-.25-.46-.37-.76-.37s-.53.12-.73.36c-.2.24-.29.61-.29,1.13"/>
    <path class="cls-2" d="M55.19,79.4v-3.88h.59v.55c.29-.42.7-.64,1.24-.64.23,0,.45.04.64.13.2.08.34.19.44.33.1.13.16.3.21.49.02.12.03.33.03.64v2.38h-.66v-2.36c0-.27-.03-.47-.08-.6-.05-.13-.14-.24-.27-.32-.13-.08-.28-.12-.46-.12-.28,0-.52.09-.72.27-.2.18-.3.52-.3,1.01v2.12h-.66Z"/>
    <path class="cls-2" d="M61.85,78.15l.68.09c-.11.4-.3.7-.6.92-.29.22-.66.33-1.11.33-.57,0-1.02-.17-1.35-.52-.33-.35-.5-.84-.5-1.47s.17-1.16.5-1.52c.34-.36.77-.54,1.31-.54s.94.18,1.27.53c.33.35.49.85.49,1.49,0,.04,0,.1,0,.18h-2.89c.03.43.15.75.36.98.22.23.49.34.81.34.24,0,.45-.06.62-.19.17-.13.31-.33.4-.61M59.69,77.09h2.16c-.03-.33-.11-.57-.25-.73-.21-.25-.48-.38-.81-.38-.3,0-.55.1-.76.3-.2.2-.32.47-.34.81"/>
    <path class="cls-2" d="M62.94,78.24l.65-.1c.04.26.14.46.31.6.17.14.4.21.7.21s.53-.06.67-.18c.15-.12.22-.27.22-.43,0-.15-.06-.26-.19-.35-.09-.06-.31-.13-.67-.22-.48-.12-.81-.23-1-.32-.19-.09-.33-.21-.42-.37-.1-.16-.14-.33-.14-.52,0-.17.04-.33.12-.48.08-.15.19-.27.32-.37.1-.07.24-.14.42-.19.18-.05.36-.08.57-.08.3,0,.57.04.8.13.23.09.4.21.51.36.11.15.18.35.22.6l-.64.09c-.03-.2-.11-.36-.25-.47-.14-.11-.34-.17-.59-.17-.3,0-.52.05-.65.15-.13.1-.19.22-.19.35,0,.09.03.16.08.23.05.07.14.13.25.17.06.02.26.08.58.17.47.12.79.23.97.31.19.08.33.19.43.34.11.15.16.34.16.56s-.06.43-.19.62c-.13.19-.31.34-.55.45-.24.11-.51.16-.82.16-.5,0-.89-.1-1.15-.31-.26-.21-.43-.52-.5-.93"/>
    <path class="cls-2" d="M66.53,78.24l.65-.1c.04.26.14.46.3.6.17.14.4.21.7.21s.52-.06.67-.18c.14-.12.22-.27.22-.43,0-.15-.06-.26-.19-.35-.09-.06-.31-.13-.67-.22-.48-.12-.82-.23-1-.32-.19-.09-.33-.21-.42-.37-.1-.16-.14-.33-.14-.52,0-.17.04-.33.12-.48.08-.15.18-.27.32-.37.1-.07.24-.14.42-.19.18-.05.37-.08.57-.08.3,0,.57.04.8.13.23.09.4.21.51.36.11.15.18.35.22.6l-.64.09c-.03-.2-.11-.36-.25-.47-.14-.11-.34-.17-.59-.17-.3,0-.52.05-.64.15-.13.1-.19.22-.19.35,0,.09.03.16.08.23.05.07.14.13.25.17.07.02.26.08.58.17.46.12.79.23.97.31.18.08.33.19.43.34.11.15.16.34.16.56s-.06.43-.19.62c-.13.19-.31.34-.55.45-.24.11-.51.16-.82.16-.5,0-.89-.1-1.15-.31-.26-.21-.43-.52-.51-.93"/>
  </g>
  <path class="cls-2" d="M72.31,79.4h.66v-3.87h-.66v3.87ZM72.31,74.8h.66v-.76h-.66v.76Z"/>
  <g class="cls-8">
    <path class="cls-2" d="M73.82,79.4v-3.88h.59v.55c.29-.42.7-.64,1.24-.64.23,0,.45.04.64.13.2.08.34.19.44.33.1.13.16.3.21.49.02.12.03.33.03.64v2.38h-.66v-2.36c0-.27-.03-.47-.08-.6-.05-.13-.14-.24-.27-.32-.13-.08-.28-.12-.46-.12-.28,0-.52.09-.72.27-.2.18-.3.52-.3,1.01v2.12h-.66Z"/>
    <path class="cls-2" d="M82.28,78.92c-.24.21-.48.35-.7.44-.23.09-.47.13-.72.13-.43,0-.75-.11-.98-.31-.23-.21-.34-.48-.34-.8,0-.19.04-.36.13-.52.09-.16.2-.28.34-.38.14-.1.3-.17.47-.22.13-.03.32-.07.58-.1.53-.06.92-.14,1.17-.23,0-.09,0-.15,0-.17,0-.27-.06-.46-.19-.56-.17-.15-.42-.22-.75-.22-.31,0-.54.06-.68.16-.15.11-.25.3-.33.57l-.64-.09c.06-.28.15-.5.29-.67.13-.17.33-.3.58-.39.25-.09.55-.13.88-.13s.6.04.81.11c.21.08.36.18.46.3.1.12.16.27.2.44.02.11.03.32.03.61v.88c0,.61.01,1,.04,1.16.03.16.08.32.17.47h-.68c-.07-.14-.11-.29-.13-.48M82.23,77.45c-.24.1-.6.18-1.07.25-.27.04-.46.08-.57.13-.11.05-.2.12-.26.21-.06.09-.09.2-.09.31,0,.17.07.32.2.44.13.12.33.18.58.18s.48-.05.68-.17c.2-.11.34-.26.43-.45.07-.15.11-.37.11-.66v-.24Z"/>
    <path class="cls-2" d="M86.29,77.98l.65.09c-.07.44-.25.79-.54,1.04-.29.25-.65.38-1.07.38-.53,0-.96-.17-1.28-.52-.32-.35-.48-.84-.48-1.49,0-.42.07-.78.21-1.1.14-.31.35-.55.63-.7.28-.16.59-.23.93-.23.42,0,.77.1,1.03.32.27.21.44.51.51.91l-.64.1c-.06-.26-.17-.46-.32-.59-.15-.13-.34-.2-.56-.2-.33,0-.6.12-.81.36-.21.24-.31.61-.31,1.13s.1.9.3,1.13c.2.24.46.35.78.35.26,0,.47-.08.65-.24.17-.16.28-.4.33-.73"/>
    <path class="cls-2" d="M88.78,78.81l.1.58c-.18.04-.35.06-.5.06-.24,0-.42-.04-.56-.11-.13-.07-.22-.17-.28-.3-.05-.12-.08-.38-.08-.78v-2.23h-.48v-.51h.48v-.96l.65-.39v1.35h.66v.51h-.66v2.27c0,.19.01.31.04.36.02.06.06.1.11.13.05.03.13.05.22.05.07,0,.17,0,.29-.03"/>
  </g>
  <path class="cls-2" d="M89.28,79.4h.65v-3.87h-.65v3.87ZM89.28,74.8h.65v-.76h-.65v.76Z"/>
  <g class="cls-7">
    <path class="cls-2" d="M90.54,77.46c0-.72.2-1.25.6-1.6.33-.29.74-.43,1.22-.43.53,0,.97.17,1.31.52.34.35.51.83.51,1.45,0,.5-.08.89-.23,1.17-.15.29-.37.51-.65.67-.29.16-.6.24-.94.24-.54,0-.98-.18-1.32-.52-.34-.35-.5-.85-.5-1.5M91.22,77.46c0,.5.11.87.32,1.12.22.25.49.37.82.37s.6-.12.81-.37c.22-.25.32-.63.32-1.14,0-.48-.11-.85-.32-1.09-.22-.25-.49-.37-.81-.37s-.6.12-.82.37c-.22.24-.32.62-.32,1.11"/>
    <path class="cls-2" d="M94.8,79.4v-3.88h.59v.55c.29-.42.7-.64,1.24-.64.23,0,.45.04.64.13.2.08.34.19.44.33.1.13.16.3.2.49.03.12.04.33.04.64v2.38h-.66v-2.36c0-.27-.03-.47-.08-.6-.05-.13-.14-.24-.27-.32-.13-.08-.28-.12-.46-.12-.28,0-.52.09-.72.27-.2.18-.3.52-.3,1.01v2.12h-.66Z"/>
  </g>
</svg>