<?xml version="1.0" encoding="UTF-8"?>
<svg id="Layer_1" data-name="Layer 1" xmlns="http://www.w3.org/2000/svg" xmlns:xlink="http://www.w3.org/1999/xlink" viewBox="0 0 97.14 96.68">
  <defs>
    <style>
      .cls-1 {
        fill: none;
      }

      .cls-2 {
        fill: #464d53;
      }

      .cls-3 {
        clip-path: url(#clippath-1);
      }

      .cls-4 {
        clip-path: url(#clippath-3);
      }

      .cls-5 {
        clip-path: url(#clippath-4);
      }

      .cls-6 {
        clip-path: url(#clippath-2);
      }

      .cls-7 {
        clip-path: url(#clippath);
      }
    </style>
    <clipPath id="clippath">
      <rect class="cls-1" y="0" width="97.14" height="96.68"/>
    </clipPath>
    <clipPath id="clippath-1">
      <rect class="cls-1" y="0" width="97.14" height="96.68"/>
    </clipPath>
    <clipPath id="clippath-2">
      <rect class="cls-1" y="0" width="97.14" height="96.68"/>
    </clipPath>
    <clipPath id="clippath-3">
      <rect class="cls-1" y="0" width="97.14" height="96.68"/>
    </clipPath>
    <clipPath id="clippath-4">
      <rect class="cls-1" y="0" width="97.14" height="96.68"/>
    </clipPath>
  </defs>
  <g class="cls-7">
    <path class="cls-2" d="M11.03,80.66c-.25-.74-1.92-6.57-2.07-7.08-.1-.31-.15-.46-.25-.46-.15,0-.25.1-.32.33-.1.33-2.31,6.62-2.48,7.2h5.11ZM5.57,81.68c-.2.59-1.4,4.24-1.53,4.93-.05.2-.05.41-.05.54,0,.33.39.61.88.61h1.03c.2,0,.24.05.24.13v.64c0,.15-.05.26-.19.26-.34,0-1.38-.08-3.1-.08-1.82,0-2.36.08-2.7.08-.15,0-.15-.15-.15-.33v-.48c0-.15.05-.2.15-.2h.74c.69,0,1.13-.36,1.57-1.15.25-.46,2.01-5.06,2.75-7.2.17-.51,2.16-6.03,2.41-6.69.05-.26.2-.72.05-.87-.07-.08-.15-.23-.15-.31,0-.1.05-.2.25-.26.79-.2,2.14-.97,2.43-1.28.15-.15.25-.26.37-.26.15,0,.25.31.3.46.44,1.58,2.36,7.31,2.8,8.94.59,1.99,2.16,6.74,2.51,7.43.44.87,1.08,1.17,1.57,1.17h.79c.15,0,.2.05.2.18v.54c0,.15-.05.31-.25.31-.44,0-.93-.08-3.64-.08-2.07,0-2.9.08-3.44.08-.2,0-.25-.15-.25-.31v-.51c0-.15.05-.2.2-.2h.64c.69,0,.89-.26.74-.95-.2-.92-1.18-4.19-1.47-5.13h-5.7Z"/>
    <path class="cls-2" d="M20.94,82.14c0-1.17-.2-1.58-.93-1.99l-.44-.26c-.15-.05-.2-.1-.2-.2v-.15c0-.1.05-.15.2-.23l2.97-1.45c.15-.05.25-.1.39-.1s.2.15.22.31l.22,1.84h.1c.84-1.43,1.87-2.3,2.95-2.3.79,0,1.28.56,1.28,1.28s-.69,1.38-1.33,1.38c-.34,0-.64-.1-.83-.2-.2-.15-.44-.2-.69-.2-.3,0-.74.2-1.03.74-.2.36-.3.92-.3,1.25v4.93c0,.82.2,1.07.69,1.07h1.08c.15,0,.2.05.2.18v.59c0,.13-.05.18-.17.18-.17,0-1.25-.08-3.05-.08s-2.68.08-2.88.08c-.12,0-.17-.05-.17-.18v-.56c0-.16.05-.2.22-.2h.86c.4,0,.64-.2.64-.69v-5.01Z"/>
    <path class="cls-2" d="M35.84,81.17c0-.41-.05-.87-.25-1.23-.34-.64-1.13-1.2-2.16-1.2-.59,0-1.23.15-1.7.77-.76.94-.98,2.02-.98,3.06,0,2.91,1.5,5.01,3.02,5.01.98,0,1.62-.51,1.87-.92.15-.3.2-.61.2-1.02v-4.47ZM38.4,84.52c0,.97.05,1.99.24,2.25.25.31.69.41,1.03.46.34,0,.44.05.49.15l.05.31c.05.15,0,.26-.15.31l-3.29.97c-.15.05-.3-.05-.34-.26l-.34-1.17c-.79.87-2.31,1.48-3.44,1.48-.96,0-2.04-.31-2.95-1.25-1.03-1.05-1.52-2.12-1.52-3.75,0-1.76.44-3.19,1.72-4.62.98-1.07,2.16-1.64,3.64-1.64.93,0,1.72.15,2.31.36l-.07-4.96c-.02-.87-.22-1.23-1.55-1.48-.15-.05-.2-.1-.2-.21v-.46c0-.1.05-.15.2-.2,1.23-.15,2.85-.31,3.49-.46.29-.05.44-.1.64-.1.1,0,.2.15.15.46-.1,1.28-.1,4.95-.1,8.25v5.57Z"/>
    <path class="cls-2" d="M46.73,83.03c-1.08.72-2.7,1.15-2.7,3.01,0,1.05.54,1.56,1.13,1.56.69-.05,1.57-.77,1.57-1.22v-3.35ZM46.88,87.45c-.54.61-1.18,1.05-2.14,1.38-.56.18-1.08.18-1.57.18-.91,0-1.7-.77-1.7-2.2,0-1.17.49-2.32,2.26-3.14,1.52-.77,2.46-1.18,3-1.58v-1.33c-.05-.51-.1-1.12-.39-1.43-.24-.28-.69-.38-1.23-.38-.44,0-1.03.16-1.43.46-.34.26-.1.64-.1,1.25,0,.92-.44,1.48-1.47,1.48-.44,0-.84-.31-.84-.87,0-.71.39-1.53,1.13-2.1,1.03-.82,2.36-1.43,3.98-1.43,1.38,0,1.82.3,2.26.71.54.51.59,1.23.59,1.92l.05,4.04v1.23c0,1.38.2,1.79.64,1.79.34,0,.69-.2.79-.41.1-.15.15-.15.24-.1l.3.2c.1.05.15.15.05.41-.25.46-.84,1.48-2.26,1.48-.93,0-1.72-.46-2.06-1.56h-.1Z"/>
    <path class="cls-2" d="M53.52,82.14c0-1.17-.2-1.58-.94-1.99l-.44-.26c-.15-.05-.2-.1-.2-.2v-.15c0-.1.05-.15.2-.23l2.98-1.45c.15-.05.24-.1.39-.1s.19.15.22.31l.22,1.84h.1c.83-1.43,1.87-2.3,2.95-2.3.79,0,1.28.56,1.28,1.28s-.69,1.38-1.33,1.38c-.34,0-.64-.1-.83-.2-.2-.15-.44-.2-.69-.2-.29,0-.74.2-1.03.74-.2.36-.3.92-.3,1.25v4.93c0,.82.2,1.07.69,1.07h1.08c.15,0,.2.05.2.18v.59c0,.13-.05.18-.17.18-.17,0-1.25-.08-3.05-.08s-2.68.08-2.88.08c-.12,0-.17-.05-.17-.18v-.56c0-.16.05-.2.22-.2h.86c.39,0,.64-.2.64-.69v-5.01Z"/>
    <path class="cls-2" d="M68.42,81.17c0-.41-.05-.87-.25-1.23-.34-.64-1.13-1.2-2.16-1.2-.59,0-1.23.15-1.7.77-.76.94-.98,2.02-.98,3.06,0,2.91,1.5,5.01,3.02,5.01.99,0,1.62-.51,1.87-.92.15-.3.2-.61.2-1.02v-4.47ZM70.98,84.52c0,.97.05,1.99.24,2.25.25.31.69.41,1.03.46.35,0,.44.05.49.15l.05.31c.05.15,0,.26-.15.31l-3.29.97c-.15.05-.3-.05-.35-.26l-.34-1.17c-.79.87-2.31,1.48-3.44,1.48-.96,0-2.04-.31-2.95-1.25-1.03-1.05-1.52-2.12-1.52-3.75,0-1.76.44-3.19,1.72-4.62.98-1.07,2.16-1.64,3.64-1.64.93,0,1.72.15,2.31.36l-.07-4.96c-.03-.87-.22-1.23-1.55-1.48-.14-.05-.19-.1-.19-.21v-.46c0-.1.05-.15.19-.2,1.23-.15,2.85-.31,3.49-.46.3-.05.44-.1.64-.1.1,0,.2.15.15.46-.1,1.28-.1,4.95-.1,8.25v5.57Z"/>
    <path class="cls-2" d="M79.31,83.03c-1.08.72-2.7,1.15-2.7,3.01,0,1.05.54,1.56,1.13,1.56.69-.05,1.57-.77,1.57-1.22v-3.35ZM79.46,87.45c-.54.61-1.18,1.05-2.14,1.38-.56.18-1.08.18-1.57.18-.91,0-1.7-.77-1.7-2.2,0-1.17.49-2.32,2.26-3.14,1.52-.77,2.46-1.18,3-1.58v-1.33c-.05-.51-.1-1.12-.39-1.43-.25-.28-.69-.38-1.23-.38-.44,0-1.03.16-1.43.46-.34.26-.1.64-.1,1.25,0,.92-.44,1.48-1.47,1.48-.44,0-.84-.31-.84-.87,0-.71.39-1.53,1.13-2.1,1.03-.82,2.36-1.43,3.98-1.43,1.38,0,1.82.3,2.26.71.54.51.59,1.23.59,1.92l.05,4.04v1.23c0,1.38.19,1.79.64,1.79.35,0,.69-.2.79-.41.1-.15.15-.15.25-.1l.3.2c.1.05.15.15.05.41-.24.46-.84,1.48-2.26,1.48-.93,0-1.72-.46-2.06-1.56h-.1Z"/>
    <path class="cls-2" d="M87.62,77.95c.2-.1.34-.2.49-.2s.25.1.29.31l.2,1.33h.15c.29-.36.74-.77,1.23-1.02.59-.36,1.23-.61,1.97-.61.83,0,1.62.15,2.16.61,1.08.82,1.35,1.58,1.35,2.63v3.68c0,.82-.02,1.94-.02,2.45,0,.56.29.72.59.72h.69c.22,0,.3.05.3.18v.59c0,.13-.05.18-.2.18-.2,0-.94-.08-2.66-.08-1.48,0-2.26.08-2.41.08s-.2-.1-.2-.31v-.43c0-.16.05-.21.29-.21h.49c.2,0,.39-.15.44-.61.07-.67.1-1.38.1-2.4v-2.94c0-1.02-.05-1.69-.64-2.2-.49-.46-.94-.46-1.48-.46-.39,0-.98.1-1.57.66-.39.41-.51,1.12-.51,1.81v5.26c0,.56.12.87.47.87h.44c.2,0,.25.05.25.23v.46c0,.15-.05.26-.2.26s-.83-.08-2.31-.08-2.31.08-2.46.08c-.1,0-.14-.1-.14-.26v-.48c0-.16.05-.21.24-.21h.49c.29,0,.64-.1.64-.51v-5.75c0-.77-.44-1.18-1.03-1.48l-.2-.1c-.14-.05-.2-.15-.2-.25v-.2c0-.1.1-.2.25-.26l2.7-1.33Z"/>
  </g>
  <rect class="cls-2" x="81.93" y="93.69" width="15.22" height=".47"/>
  <rect class="cls-2" y="93.69" width="15.22" height=".47"/>
  <g class="cls-3">
    <path class="cls-2" d="M27.56,53.62c-.3-.05-.62-.07-.95-.09l-.16-.98c.08-.03.17-.07.24-.11.17.08.36.12.56.1.7-.04,1.23-.67,1.19-1.4-.03-.43-.25-.8-.57-1.02.11-.21.18-.46.16-.72-.04-.73-.64-1.28-1.34-1.24-.16,0-.3.05-.44.12-.25-.33-.64-.53-1.07-.5-.7.05-1.23.67-1.19,1.4h0c-.22.25-.34.59-.32.95,0,.13.04.25.08.36-.23.26-.36.6-.34.98.04.73.65,1.28,1.34,1.24.26-.02.49-.11.68-.26.08.05.18.08.27.11l-.04.98c-.06,0-.12,0-.18,0-.74.05-1.44.17-2.07.35l-.12-.76c.07-.02.13-.05.19-.09.14.06.29.09.45.08.12,0,.23-.04.33-.08-.67-.18-1.19-.79-1.23-1.54-.02-.39.08-.77.3-1.09-.02-.08-.03-.17-.04-.25,0-.17.01-.34.05-.51-.07.02-.15.04-.21.07-.2-.26-.51-.42-.86-.4-.56.04-.98.54-.95,1.12-.17.2-.27.47-.25.76,0,.1.03.2.06.29-.18.2-.29.48-.27.78.03.58.51,1.02,1.08.99.2-.01.39-.09.54-.21.07.04.14.07.22.09l-.05,1.02c-1.33.53-2.18,1.36-2.13,2.22.05.75.75,1.38,1.84,1.77.01-2.5,4.01-3.23,4.01-3.23,1.02-.25,1.23-.79,1.17-1.28"/>
    <path class="cls-2" d="M28.62,53.86c.22,1.44-1.89,1.92-1.89,1.92-2.4.92-.76,2-.76,2,.22.2,1.31.59,1.62.69,2.38-.36,3.24-1.51,3.17-2.74-.05-.81-.88-1.49-2.13-1.87"/>
    <path class="cls-2" d="M75.7,59.41c-.59,0-1.07-.5-1.07-1.11s.48-1.11,1.07-1.11,1.07.5,1.07,1.11-.48,1.11-1.07,1.11M72.05,65.29h7.38c-.05-.37-.53-.66-1.16-.71-.34-.57-1.24-.99-2.32-1.05v-2.87c.12.08.27.12.42.12.48,0,.88-.41.88-.91,0-.01,0-.02,0-.04.48,0,.86-.41.86-.91,0-.27-.12-.51-.3-.67.21-.17.35-.42.35-.71,0-.5-.39-.91-.88-.91-.01,0-.03,0-.04,0,0-.01,0-.03,0-.04,0-.5-.39-.91-.88-.91-.28,0-.52.14-.68.36-.16-.24-.41-.4-.71-.4-.48,0-.88.4-.88.91,0,.05.02.1.03.15-.05-.01-.1-.03-.15-.03-.48,0-.88.41-.88.91,0,.31.15.56.38.73-.18.17-.3.4-.3.68,0,.5.39.91.88.91.03,0,.06-.02.09-.02,0,.01,0,.03,0,.04,0,.5.39.91.88.91.11,0,.21-.03.31-.07v2.76c-1.06.08-1.93.5-2.26,1.06-.56.08-.98.36-1.02.69"/>
    <path class="cls-2" d="M76.18,62.71c.42-1.79,2.08-.87,2.08-.87-.52,2.04-2.08.87-2.08.87"/>
    <path class="cls-2" d="M75.08,62.24c-1.21.53-1.43-.9-1.43-.9,1.41-.58,1.43.9,1.43.9"/>
    <path class="cls-2" d="M20.02,64.32h.6v-2.3h-.51c-.06.21-.18.3-.46.31v.4h.37v1.59Z"/>
    <path class="cls-2" d="M21.94,62.91c-.55.26-.91.63-.93,1.41h1.81v-.52h-1.16c.05-.14.17-.26.61-.48.42-.21.53-.39.53-.69,0-.42-.29-.65-.84-.65-.38,0-.67.11-.95.3l.28.47c.22-.16.44-.23.66-.23.18,0,.25.06.25.16,0,.09-.03.13-.27.24"/>
    <path class="cls-2" d="M23.99,64.44c0,.25-.2.46-.44.46h-4.57c-.25,0-.45-.21-.45-.46v-2.81h5.47v2.81ZM23.54,59.61h-.36v.78c0,.32-.26.59-.57.59s-.57-.27-.57-.59v-.78h-1.58v.78c0,.32-.26.59-.57.59s-.57-.27-.57-.59v-.78h-.36c-.45,0-.81.38-.81.85v3.98c0,.47.37.85.81.85h4.57c.45,0,.82-.38.82-.85v-3.98c0-.47-.37-.85-.82-.85"/>
    <path class="cls-2" d="M19.9,60.72c.18,0,.33-.15.33-.34v-1.31c0-.19-.14-.34-.33-.34s-.33.15-.33.34v1.31c0,.19.15.34.33.34"/>
    <path class="cls-2" d="M22.62,60.72c.18,0,.33-.15.33-.34v-1.31c0-.19-.15-.34-.33-.34s-.33.15-.33.34v1.31c0,.19.14.34.33.34"/>
    <path class="cls-2" d="M71.12,56.3c-.78,0-1.42-.66-1.42-1.48s.64-1.48,1.42-1.48,1.42.66,1.42,1.48-.64,1.48-1.42,1.48M71.12,52.11c-1.44,0-2.61,1.22-2.61,2.72s1.17,2.71,2.61,2.71,2.61-1.22,2.61-2.71-1.17-2.72-2.61-2.72"/>
    <path class="cls-2" d="M64.82,56.66c-.51,0-.92-.43-.92-.96s.41-.96.92-.96.92.43.92.96-.41.96-.92.96M64.82,53.87c-.98,0-1.77.82-1.77,1.84s.79,1.84,1.77,1.84,1.77-.82,1.77-1.84-.79-1.84-1.77-1.84"/>
    <path class="cls-2" d="M70.92,50.08l-.23.45h-1.44l.58-2.28h2.42l.52,1.83h-1.85ZM73,47.39l-4.15.03-.86,3.89h-.74v-1.45h-.55v-2l-.43-.64v2.64h-.64v1.45h-2.55v1.23l.8.81c.29-.13.61-.2.95-.2,1,0,1.86.62,2.24,1.52h.76c.08-1.82,1.53-3.27,3.3-3.27,1.24,0,2.31.71,2.88,1.76h.03s.12-1.9.12-1.9l-1.15-3.86Z"/>
    <path class="cls-2" d="M49.04,5.19l-.08.1.04.12c.2.56.08,1.26.04,1.47,0,0-.02.01-.03.02h-2.49c-.13-.18-.12-.86-.02-1.42l.02-.13-.1-.08c-.17-.14-.45-.78-.61-1.19l-.04-.11h-.01c-.03-.18-.23-.93-1.61-1.03.53-.39,1.22-.41,1.31-.41h.17s.04-.16.04-.16c0-.03.03-.05.04-.07.25.27.67.83.29,1.22,0,0,.93-.21.59-1.15,0,0,.44.23.31.58l.28-.36s.45.47-.03,1.63c0,0,.95-.83.45-1.7l.39.34v-.34s.24.3.24.3l.08-.32.24.25.22-.36s.15.73,0,1.09c0,0,.62-.61.38-1.11,0,0,.45,1.13-.18,1.79,0,0,.89-.72.93-1.35l.17-.04c.19-.05.37-.07.53-.07.43,0,.62.18.7.29-.01.02-.02.03-.04.04-1.18.01-1.46.95-1.46.95h0l-.02.05c-.22.57-.74,1.19-.75,1.2M51.76,2.92s-.13-.42-.61-.6c.23-.29.68-1.06.28-2.29,0,0-.29,1.69-1.61,1.76-.33-.32-.92-.63-1.99-.64,0,0-.14-.01-.36-.01-.56,0-1.45.1-1.92.63-1.26-.11-1.55-1.74-1.55-1.74-.42,1.29.1,2.07.32,2.33-.22.1-.44.24-.63.43l-.11.11.07.14s.49,1.01,1.83,1.33c.11.28.35.87.6,1.17-.07.43-.17,1.41.19,1.76.03.02.71.58,1.58.58.57,0,1.09-.24,1.54-.7l.04-.04v-.06s.24-.9.02-1.67c.15-.19.49-.64.69-1.11.28-.06.93-.28,1.59-1.16l.07-.09-.03-.11Z"/>
    <path class="cls-2" d="M47.06,5.92c-.19,0-.34.16-.34.35s.15.35.34.35.34-.16.34-.35-.16-.35-.34-.35"/>
    <path class="cls-2" d="M48.46,5.92c-.19,0-.34.16-.34.35s.15.35.34.35c.19,0,.34-.16.34-.35,0-.19-.15-.35-.34-.35"/>
    <path class="cls-2" d="M65.87,41.55c.02-.12.07-.25.14-.36.25-.39.69-.54.99-.33.3.21.34.69.09,1.07-.02.03-.04.06-.06.08.24.22.43.52.55.87.15-.05.31-.1.47-.13.64-.12,1.27-.06,1.79.15.04-.76-.43-1.64-1.27-2.22-1.12-.77-2.46-.71-3,.13-.15.23-.22.5-.22.79.04-.01.09-.02.13-.03.13-.02.26-.03.39-.03"/>
    <path class="cls-2" d="M66.08,43.95c-.16.01-.33-.01-.49-.1-.4-.2-.61-.63-.45-.97.15-.34.61-.45,1.01-.24.31.15.5.45.5.73.16-.12.33-.23.52-.32-.14-.41-.39-.74-.74-.92-.88-.44-2.06.23-2.64,1.49-.58,1.26-.33,2.63.55,3.07.56.28,1.23.11,1.8-.36-.22-.25-.38-.55-.44-.89-.09-.52.06-1.04.38-1.49"/>
    <path class="cls-2" d="M69.78,45.47c-.35.07-.7-.25-.78-.71-.08-.46.14-.88.49-.95.35-.07.7.25.79.71.08.46-.14.88-.49.95M68.11,43.11c-1.32.25-2.25,1.27-2.07,2.27.18,1,1.39,1.6,2.71,1.35,1.32-.25,2.25-1.27,2.07-2.26-.18-1-1.39-1.6-2.71-1.35"/>
    <path class="cls-2" d="M37.5,18.79c-.67-.03-1.24.5-1.27,1.19,0,.1.07.19.17.19.1,0,.18-.07.19-.18.02-.49.42-.86.89-.84.1,0,.18-.07.19-.18,0-.1-.07-.19-.17-.2"/>
    <path class="cls-2" d="M42.89,19.07c-.67-.03-1.24.5-1.27,1.19,0,.1.07.19.17.2.1,0,.18-.08.19-.18.02-.49.42-.86.89-.84.1,0,.18-.07.19-.17,0-.1-.07-.19-.17-.2"/>
    <path class="cls-2" d="M42.69,21.89c-.86-.05-1.53-.81-1.49-1.71.04-.9.78-1.59,1.65-1.55.86.05,1.53.81,1.49,1.71-.04.9-.78,1.59-1.65,1.54M40.03,20.57c-.27-.01-.49-.26-.47-.54.01-.28.25-.5.52-.49s.49.26.47.54c-.01.29-.25.51-.52.49M37.3,21.61c-.86-.05-1.53-.81-1.49-1.71.05-.9.78-1.59,1.65-1.54.87.05,1.53.81,1.49,1.71-.04.9-.78,1.59-1.65,1.55M44.36,18.55h0s-1.39-1.33-1.39-1.33l-.06-.06h0c-.2-.15-.44-.26-.71-.28-.48-.03-.91.24-1.15.64-.23-.18-.51-.3-.82-.31-.28-.01-.56.06-.79.19-.2-.41-.59-.7-1.06-.72-.25-.01-.49.05-.69.17h0s-1.47,1.07-1.47,1.07c-.1.06-.19.12-.27.2h-.01c-.48.42-.8,1.03-.83,1.72-.07,1.31.9,2.43,2.16,2.49.97.05,1.82-.53,2.2-1.39.15.11.34.18.54.19.22.01.43-.05.6-.16.28.91,1.08,1.59,2.06,1.65,1.26.07,2.34-.94,2.4-2.25.03-.71-.24-1.37-.7-1.83"/>
    <path class="cls-2" d="M58.28,15.08c.1,0,.21,0,.32.03.62.11,1.18.53,1.71,1.26.37-.31.61-.79.61-1.32,0-.94-.73-1.7-1.63-1.7s-1.64.76-1.64,1.7c0,.05,0,.1,0,.15.18-.07.39-.12.63-.12"/>
    <path class="cls-2" d="M54.11,17.32c.36-.38.79-.73,1.2-.78.23-.03.43.04.65.24.33.25,1.11.51,1.74-.26,0,0,.29-.33.7-.26.32.06.91.4,1.61,1.89.4.08.68.17.87.29-.71-1.75-1.5-2.72-2.37-2.88-.8-.14-1.32.47-1.34.5-.35.43-.72.21-.79.16-.34-.32-.74-.46-1.17-.4-.83.11-1.59.92-2.02,1.47.03.04.05.08.06.13.23-.03.53-.07.85-.11"/>
    <path class="cls-2" d="M56.43,18.38c-.94-.03-.54-.28-.54-.28.97-.86-3-.17-3-.17-.43,0-.17-.22-.17-.22.77-.41-1.42-.2-1.42-.2.69.35.14.53.14.53-1.03.39-.99.59-.99.59-.04.2,1.13.25,1.13.25.94.07.22.49.22.49-1.38.6-.57,1.18-.57,1.18.8.53,2.43-.27,2.43-.27.39-.19.17.53.17.53-.11,1.07,4.8.65,4.8.65,2.35-.04,1.91-1.06,1.91-1.06-.32-.76.62-.55.62-.55,1.32.19,1.37-.26,1.37-.26-.39-1.01-6.1-1.21-6.1-1.21"/>
    <path class="cls-2" d="M33.47,23.28l-.09.49c0,.05.01.11.05.14.02.02.05.03.08.03.02,0,.04,0,.06-.01l.42-.23.42.24s.1.02.15,0c.04-.03.06-.09.06-.14l-.08-.49.34-.34s.05-.1.04-.15c-.02-.05-.06-.09-.11-.1l-.47-.08-.21-.45c-.04-.1-.2-.1-.25,0l-.21.44-.47.07c-.05,0-.1.04-.11.1-.01.05,0,.11.03.15l.34.35Z"/>
    <path class="cls-2" d="M36.91,29.42c-.04-.11-.11-.21-.21-.26-.14-.07-.38-.25-.64-.48-.18-.16-.37-.34-.56-.52-.08.19-.27.32-.49.32-.29,0-.53-.25-.52-.55,0-.31.24-.55.53-.55.29,0,.53.25.52.56,0,.01,0,.02,0,.03.03,0,.07.01.1.02.13.03.22.06.25.08.08.04.18.05.27.02.09-.03.16-.1.21-.18.04-.09.05-.19.02-.28-.03-.09-.09-.17-.18-.21-.11-.06-.32-.21-.53-.4-.27-.24-.57-.54-.83-.82,0,0,.01,0,.02,0,.13.02.25.04.35.06.09.02.17.05.19.06.06.03.14.04.2.02.07-.02.12-.07.16-.14.03-.07.04-.14.02-.21-.02-.07-.07-.13-.13-.16-.09-.04-.24-.16-.4-.3-.24-.21-.52-.49-.72-.73-.1-.12-.19-.23-.24-.32-.03-.04-.05-.07-.06-.1h0c0-.07-.03-.12-.07-.17-.05-.05-.12-.08-.19-.08-.07,0-.14.03-.19.08-.04.04-.07.1-.08.16h0s-.03.06-.07.12c-.07.09-.16.21-.28.34-.18.19-.39.41-.59.58-.1.09-.2.17-.29.24-.09.07-.17.11-.22.14-.13.07-.19.23-.12.37.03.05.06.09.11.12.08.04.17.05.25,0h0s.09-.04.19-.06c.03,0,.05-.01.08-.01.04-.26.26-.46.52-.46.29,0,.53.25.53.56,0,.3-.24.55-.53.54-.24,0-.43-.17-.5-.39-.14.14-.28.27-.42.4-.14.12-.27.23-.38.32-.11.09-.22.15-.29.19-.18.09-.25.31-.16.5.03.07.08.12.14.16.1.06.23.07.34.01.03-.02.13-.05.25-.08.11-.02.24-.04.38-.06-.21.21-.42.42-.63.6-.16.14-.32.27-.47.38-.14.11-.27.19-.35.23-.22.11-.3.38-.2.6.04.08.1.15.17.19.12.07.27.08.41.01.04-.02.16-.06.31-.09.18-.04.43-.07.7-.1-.1-.1-.16-.24-.16-.4,0-.3.24-.55.53-.55.29,0,.53.25.52.56,0,.28-.21.51-.47.54v1.04s1.92.02,1.92.02v-1.21c.18.01.34.03.49.05.22.03.41.06.56.09.15.04.27.08.31.1.1.06.22.07.33.03.11-.04.2-.12.25-.22.05-.1.06-.23.03-.34"/>
    <path class="cls-2" d="M35.62,38.66c-.12,0-.22-.1-.22-.23s.1-.23.22-.23.22.1.22.23-.1.23-.22.23M36.79,39.2c-.15-.26-.42-.88-.57-1.24.12-.1.2-.26.2-.43,0-.31-.25-.57-.55-.57-.09,0-.17.02-.24.06-.08-.22-.28-.37-.51-.37-.3,0-.55.26-.55.57,0,0,0,.01,0,.02-.01,0-.03,0-.05,0-.3,0-.55.26-.55.57,0,.29.21.52.47.56-2.76,2.72-4.62.3-4.62.3-.48-.68-.77-.53-.77-.53-.65.36.38,1.65.38,1.65-1.17.44.94,1.19.94,1.19-1.24.29.39.9.39.9,3.99,1.11,3.47-1.68,3.47-1.68,1.23,2.74-2.94,2.43-2.94,2.43.83.42,1.5.6,2.05.63v.75c-.44.04-.83.2-.83.54,0,.15.12.27.26.27.11,0,.21-.08.25-.18.07-.04.28-.1.58-.1s.5.06.58.1c.03.1.13.18.24.18.14,0,.26-.12.26-.27,0-.34-.38-.49-.81-.54v-.77c1.91-.29,1.76-2.91,1.76-2.91,1.3-.04.35-1.17.35-1.17l.82.04Z"/>
    <path class="cls-2" d="M46.49,47.46c-.35,0-.64.3-.64.66s.29.67.64.67.64-.3.64-.67-.29-.66-.64-.66"/>
    <path class="cls-2" d="M49.77,45.63c-.08.1-.22.12-.31.12-.3,0-.68-.18-1-.46-.09-.08-.18-.17-.25-.27-.06-.07-.15-.1-.23-.07-.08.03-.14.11-.14.2,0,.46-.17.82-.38.86-.01,0-.03,0-.04,0-.21,0-.51-.3-.66-.86-.02-.1-.11-.16-.2-.16h-.06c-.06,0-.12,0-.18,0h-.05c-.1,0-.19.06-.21.16-.14.6-.48.93-.71.89-.22-.04-.38-.4-.38-.86,0-.09-.06-.17-.14-.2-.02-.01-.05-.01-.07-.01-.06,0-.12.03-.16.08-.08.1-.16.19-.25.27-.32.29-.7.46-1,.46-.1,0-.23-.02-.31-.12-.16-.19-.06-.66.33-1.1h6.14c.35.43.45.87.29,1.06M47.74,48.95c.03.08.06.18.06.28,0,.4-.31.73-.7.73-.24,0-.46-.13-.58-.33-.12.23-.35.38-.62.38-.38,0-.7-.33-.7-.73,0-.15.04-.28.11-.4-.38,0-.69-.33-.69-.73,0-.34.22-.62.52-.7-.04-.09-.06-.18-.06-.28,0-.4.31-.73.7-.73.29,0,.53.18.64.43.11-.25.35-.43.64-.43.38,0,.7.33.7.73,0,.12-.03.23-.08.33.38,0,.69.33.69.72s-.28.69-.64.72M46.41,42.69c1.59,0,2.72.55,2.82,1.07h-5.65c.11-.52,1.24-1.07,2.83-1.07M49.87,44.38c.04-.06.06-.13.06-.21,0-.18-.11-.33-.27-.38-.06-.88-1.44-1.53-3.25-1.53s-3.17.65-3.25,1.51c-.21,0-.38.18-.38.4,0,.11.04.21.11.28-.4.54-.49,1.15-.19,1.51.15.17.37.27.63.27,0,0,.01,0,.01,0v3.82c0,.34.27.62.6.62h4.97c.33,0,.6-.28.6-.62v-3.86c.24,0,.45-.1.58-.26.31-.37.2-.99-.22-1.54"/>
    <path class="cls-2" d="M38.89,25.02c-.17-.03-.33.08-.36.26-.03.18.08.34.25.37.17.03.33-.08.36-.26.03-.17-.08-.34-.25-.37"/>
    <path class="cls-2" d="M40.89,25.4c-.17-.03-.33.08-.36.26-.03.18.08.34.25.37.17.03.33-.08.36-.26.03-.17-.08-.34-.25-.37"/>
    <path class="cls-2" d="M39.34,29.23l.1-.57c.31,0,.56-.25.59-.42.03-.19-.23-.4-.59-.47-.36-.07-.69.03-.72.22-.03.17.18.49.47.62l-.1.57c-.91-.27-1.53-1.57-1.41-3,.02-.18.05-.35.09-.52.07-.03.13-.1.14-.18.01-.06,0-.12-.03-.17,0-.01,0-.02.01-.03.1-.02.18-.1.2-.2,0-.05,0-.09-.01-.13,0,0,.01,0,.02,0,.13.02.26-.06.28-.2,0-.06,0-.12-.03-.17.01,0,.02.01.04.02.13.02.26-.07.28-.2,0-.04,0-.07,0-.11.02,0,.04.02.06.03.12.02.23-.05.27-.17.03.05.09.09.15.1.13.02.24-.06.28-.19.03.04.08.07.14.08.11.02.22-.04.26-.15.04.06.09.11.17.12.09.02.18-.02.23-.1.01.11.09.2.19.22.11.02.21-.04.26-.14-.02.13.07.26.19.29.05,0,.1,0,.14-.02,0,0,0,0,0,.01-.02.14.06.27.2.29.03,0,.05,0,.08,0,0,0,0,0,0,.02-.02.13.06.25.18.29-.01.02-.02.04-.02.06-.02.12.05.25.17.28-.02.03-.04.07-.05.1-.02.12.04.22.14.27.06.39.05.8-.06,1.23-.36,1.38-1.37,2.36-2.31,2.3M44.19,26.1c-.28-.59-.88-1.07-1.19-1.3,0,0,0-.02,0-.03.09-.52-.24-1.01-.74-1.11-.09-.02-.17,0-.26,0-.02-.43-.31-.81-.73-.89-.11-.02-.22-.01-.33,0-.13-.21-.34-.36-.59-.41-.26-.05-.51.03-.71.18-.08-.05-.17-.09-.26-.11-.41-.08-.8.15-.97.53-.07-.03-.13-.07-.21-.09-.5-.09-.98.25-1.07.77,0,.02,0,.04,0,.07-.39.11-1.04.34-1.47.76,0,0-.27.31.12.46,0,0,.32.22.97.37,0,.03-.03.05-.03.08-.06.33.07.64.29.85-.11.13-.19.27-.22.44-.08.46.18.88.58,1.04-.01.04-.03.07-.04.1-.09.5.22.97.69,1.09.13.25.35.44.63.49.04,0,.08,0,.12,0,.12.11.25.19.42.22.27.05.52-.03.72-.19.02,0,.03.02.05.02.37.07.73-.1.93-.41.45.02.86-.29.94-.76.01-.05,0-.1,0-.15.25-.13.44-.36.5-.66.02-.1,0-.19,0-.28.22-.14.39-.36.44-.64,0-.04,0-.08,0-.12.73.13,1.15.03,1.15.03.42,0,.27-.39.27-.39"/>
    <path class="cls-2" d="M38.71,34.63c-.39.3-.86.45-1.33.46-.26,0-.51-.05-.75-.13l.99,2.25-.22.48-1.34-3.03s-.02-.01-.02-.01c-.13,0-.25-.03-.37-.06l1.59,3.58c.03.07.1.11.17.11h0c.07,0,.14-.05.17-.11l1.63-3.63c-.16.06-.33.1-.51.1h-.02Z"/>
    <path class="cls-2" d="M38.65,31.91c-.03.07-.11.11-.18.08l-.46-.2c-.07-.03-.1-.11-.07-.18.03-.07.11-.1.18-.08l.46.2c.07.03.1.11.07.18M37.98,32.35l-.27.43c-.04.06-.12.08-.19.04-.06-.04-.08-.13-.04-.19l.27-.43c.04-.07.12-.08.19-.04.06.04.08.13.04.19M37.4,32.19l-.48.12c-.07.02-.14-.03-.16-.1-.02-.08.03-.15.1-.17l.48-.12c.07-.02.15.03.16.1.02.07-.03.15-.1.17M36.49,32.57c-.07.01-.15-.03-.16-.11l-.1-.5c-.01-.08.03-.15.1-.17.07-.02.15.03.16.11l.1.5c.02.07-.03.15-.1.17M36.53,31.05c.05-.05.14-.05.19.01l.33.38c.05.06.05.15,0,.2-.06.05-.14.05-.19-.01l-.33-.38c-.05-.06-.05-.15,0-.2M37.47,30.97l.49.09c.07.02.12.09.11.16-.01.08-.08.13-.16.11l-.48-.1c-.07-.02-.12-.09-.11-.16.01-.08.08-.13.16-.11M39.24,32.26c-.05-.22-.13-.43-.25-.62-.21-.76-.88-1.28-1.64-1.28-.76,0-1.42.54-1.63,1.3-.12.2-.2.42-.25.65-.29.2-.45.53-.45.88,0,.59.47,1.06,1.03,1.06.03,0,.07,0,.1,0,.35.29.78.45,1.22.45.44,0,.87-.17,1.22-.47.04,0,.09.01.14.01.57,0,1.02-.48,1.02-1.07,0-.38-.2-.72-.51-.91"/>
    <path class="cls-2" d="M54.11,5.81c-.08-.06-.19-.04-.25.05l-1.83,2.95h0s-.03.04-.03.04c-.08.12-.22.17-.32.09-.1-.07-.11-.23-.03-.35l.03-.04h0s1.89-2.92,1.89-2.92c.06-.09.04-.21-.05-.27-.08-.06-.19-.04-.25.05l-1.94,2.87h0s-.03.04-.03.04c-.08.12-.23.16-.33.09-.1-.07-.11-.23-.02-.35l.03-.04h0s2-2.83,2-2.83c.06-.09.04-.2-.04-.26-.08-.06-.2-.04-.26.04l-2.05,2.79h0s-.03.04-.03.04c-.09.12-.24.15-.33.08-.1-.07-.1-.23-.02-.35l.03-.04h0s2.1-2.76,2.1-2.76c.06-.08.05-.2-.03-.26-.08-.06-.2-.04-.26.04l-2.15,2.71h0c-.46.58-.49,1.4-.1,1.98l-1.05,1.45.71.98,1.19-1.82c.65.18,1.37-.11,1.75-.75h0s1.78-2.99,1.78-2.99c.05-.09.03-.21-.05-.27"/>
    <path class="cls-2" d="M45.18,15.56c-.21.28-.14.68.14.89l.15.11c.28.21.67.14.86-.15l1.73-2.65-.73-1.16-2.14,2.95Z"/>
    <path class="cls-2" d="M46.98,9.2l-3.25-4.77s-.4-.44-.48.38c0,0-.14,4.88,3.66,6.1l3.47,5.47c.19.29.57.36.86.15l.15-.11c.29-.21.35-.61.15-.89l-4.55-6.32Z"/>
    <path class="cls-2" d="M70.79,62.28l-.34,2.16c-.03.19-.23.35-.44.35s-.37-.16-.35-.35l.24-2.16c.03-.25.25-.46.5-.46s.42.21.38.46M68.87,64.45c-.01.19-.2.35-.41.35s-.38-.16-.38-.35l.05-2.16c0-.25.21-.46.46-.46s.44.21.42.46l-.14,2.16ZM66.91,64.8c-.21,0-.4-.16-.41-.35l-.14-2.16c-.02-.25.17-.46.42-.46s.46.21.46.46l.05,2.16c0,.19-.17.35-.38.35M65.35,64.8c-.21,0-.41-.16-.44-.35l-.33-2.16c-.04-.25.13-.46.39-.46s.48.21.5.46l.24,2.16c.02.19-.14.35-.35.35M71.74,60.07h-.79c.11.4-.05.84-.4,1.04-.12.07-.26.1-.4.1-.32,0-.62-.19-.78-.49l-.34-.66h-2.48l-.34.66c-.16.3-.46.49-.78.49-.14,0-.27-.04-.39-.1-.36-.2-.52-.64-.4-1.04h-1.01c-.28,0-.51.24-.51.53v.25c0,.29.23.53.51.53h.03s0,.07.01.11l.66,3.44c.04.2.25.36.48.36h5.73c.23,0,.44-.16.48-.36l.66-3.44s.01-.07.01-.11h.06c.28,0,.51-.24.51-.53v-.25c0-.29-.23-.53-.51-.53"/>
    <path class="cls-2" d="M69.69,60.55c.14.27.45.37.69.24.24-.14.32-.46.18-.73l-1.31-2.52c-.14-.27-.45-.37-.69-.24-.24.13-.32.46-.18.73l1.31,2.52Z"/>
    <path class="cls-2" d="M65.2,60.79c.24.13.55.03.69-.24l1.31-2.52c.14-.27.06-.59-.18-.73-.24-.13-.55-.03-.69.24l-1.31,2.52c-.14.27-.05.59.19.73"/>
    <path class="cls-2" d="M61.57,29.66c-.26-.01-.46-.25-.44-.51.02-.27.24-.47.5-.46.26.02.46.25.44.52-.01.27-.24.47-.5.46M62.57,28.69h.06c1.08-.8.6-2.41.6-2.41-.13-.71-.64-.24-.64-.24l-1.83,2.42h.02c-.14.18-.24.4-.25.65-.04.61.42,1.14,1.01,1.18.59.04,1.1-.43,1.14-1.05.01-.2-.03-.38-.1-.55"/>
    <path class="cls-2" d="M59.7,30.05c-.21.01-.42.03-.62.07.19.4.5.91.97,1.35.12-.08.22-.14.26-.16.09-.08.11-.22.11-.22v-.07c-.31-.31-.55-.66-.72-.97"/>
    <path class="cls-2" d="M60.15,29.08c0-.1.02-.2.05-.3h0s.27-.57.27-.57c-.41-.12-.99-.24-1.5-.22,0,0-.18.12-.27.51,0,0-2.89,1.12-3.64,2.48,0,0-.26.33.01.63,0,0,.41.38.99-.44,0,0,1.84-1.55,4.21-1.42-.08-.2-.12-.43-.11-.67"/>
    <path class="cls-2" d="M64.6,28.42c-.72.41-1.22.55-1.55.59,0,.08.01.17,0,.25-.03.42-.21.79-.5,1.05,1.83.11,2.41-1.57,2.41-1.57.33-.76-.37-.32-.37-.32"/>
    <path class="cls-2" d="M60.78,30.42l-.08.69s-.02.3-.24.46c0,0-2.06,1.03-2.48,3.7,0,0-.05.47.28.49,0,0,.28.22.44-.52,0,0,.89-2.42,2.85-2.95,0,0,.42-.13.44-.52l.18-1.2c-.2.09-.42.13-.65.12-.27-.02-.52-.11-.73-.26"/>
  </g>
  <polygon class="cls-2" points="56.49 14.68 56.03 14.68 56.2 13.06 55.66 13.06 55.56 14.68 55.09 14.68 55.12 13.06 54.59 13.06 54.63 14.68 54.16 14.68 54.06 13.06 53.52 13.06 53.69 14.68 53.22 14.68 52.98 13.06 52.43 13.06 52.84 15.21 56.86 15.21 57.28 13.06 56.74 13.06 56.49 14.68"/>
  <g class="cls-6">
    <path class="cls-2" d="M56.89,11.73s-.11.04-.17.03c-.06-.02-.1-.06-.12-.11-.08-.28-.43-.49-.83-.49-.42,0-.78.23-.84.53,0,.02,0,.04,0,.05,0,.05-.03.12-.08.15-.07.09-.17.14-.29.14-.21,0-.38-.16-.38-.35,0-.01,0-.03,0-.04,0-.16-.34-.34-.79-.34-.27,0-.51.07-.67.19-.04.03-.09.05-.14.04-.05,0-.1-.03-.12-.07-.13-.16-.19-.32-.19-.49,0-.22.12-.44.31-.65.09.07.2.12.33.12.28,0,.51-.21.51-.47,0-.07-.02-.14-.05-.2.41-.18.9-.3,1.45-.3.61,0,1.15.15,1.59.37.05.22.24.38.49.38.02,0,.04,0,.06-.01.26.24.41.51.41.76,0,.28-.17.54-.48.75M57.89,10.99c-.02-.4-.21-.77-.52-1.08.02-.05.03-.1.03-.16,0-.26-.23-.47-.51-.47-.11,0-.2.03-.28.09-.2-.1-.41-.19-.64-.25,0-.02.01-.04.01-.06,0-.21-.19-.38-.42-.38-.2,0-.36.13-.4.3-.13-.01-.26-.03-.39-.03-.16,0-.3.01-.45.03-.05-.16-.2-.27-.39-.27-.23,0-.41.17-.41.38,0,.02,0,.03,0,.04-1.06.32-1.81,1.02-1.85,1.84h0v.02s0,.04,0,.06h0v.71c0,.5.45.91,1,.91h4.23c.55,0,1-.41,1-.91v-.79h-.01Z"/>
    <path class="cls-2" d="M54.32,9.96c-.27,0-.5.2-.5.45s.22.45.5.45.49-.2.49-.45-.22-.45-.49-.45"/>
    <path class="cls-2" d="M55.67,9.89c-.23,0-.42.17-.42.38s.18.38.42.38.41-.17.41-.38-.19-.38-.41-.38"/>
    <path class="cls-2" d="M41.01,10.58c.57,0,1.04-.48,1.04-1.08s-.47-1.08-1.04-1.08-1.04.48-1.04,1.08.47,1.08,1.04,1.08"/>
    <path class="cls-2" d="M41.86,13.03c-.35,0-.63-.29-.63-.65s.28-.65.63-.65.62.29.62.65-.28.65-.62.65M44.32,11.67h-1.61v-.06c0-.37-.29-.67-.64-.67h-2.15c-.36,0-.64.3-.64.67v1.89c0,.35.26.63.58.66v2.4h1.3v-1.38c-.2-.02-.35-.19-.35-.4v-1.13c0-.22.17-.4.39-.4h1.3c.21,0,.39.18.39.4v1.13c0,.21-.15.38-.35.4v1.38h1.84v-2.09c.28-.03.51-.27.51-.58v-1.64c0-.32-.25-.58-.56-.58"/>
    <path class="cls-2" d="M43.59,11.36c.5,0,.9-.42.9-.94s-.4-.94-.9-.94-.91.42-.91.94.41.94.91.94"/>
    <path class="cls-2" d="M25.64,60.12c.06.05.11.1.18.15h1c-.06-.04-.13-.09-.19-.15-.28-.27-.4-.6-.27-.74.08-.09.25-.08.44.02-.07-.1-.15-.21-.25-.3-.43-.41-.98-.51-1.23-.23-.25.28-.1.84.33,1.26"/>
    <path class="cls-2" d="M29.57,60.12c-.06.05-.12.1-.18.15h-1c.06-.04.13-.09.19-.15.28-.27.4-.6.27-.74-.08-.09-.25-.08-.44.02.07-.1.15-.21.25-.3.43-.41.98-.51,1.23-.23.25.28.1.84-.32,1.26"/>
    <path class="cls-2" d="M29.91,60.55h-1.81v1.63h1.81c.25,0,.46-.22.46-.48v-.67c0-.26-.21-.48-.46-.48"/>
    <path class="cls-2" d="M25.28,60.55c-.25,0-.46.21-.46.48v.67c0,.26.21.48.46.48h1.83v-1.63h-1.83Z"/>
    <path class="cls-2" d="M29.49,65.24c.25,0,.46-.21.46-.48v-2.31h-1.86v2.79h1.4Z"/>
    <path class="cls-2" d="M25.25,62.46v2.31c0,.26.21.48.46.48h1.41v-2.79h-1.87Z"/>
    <path class="cls-2" d="M27.03,60.26h1.14c.13-.11.2-.26.2-.42,0-.35-.35-.62-.78-.62s-.78.28-.78.62c0,.16.08.31.21.42"/>
  </g>
  <path class="cls-2" d="M55.22,23.32l.37.82h-.9l.53-.82ZM60.03,24.14h-.94l.38-.89.55.89ZM58.94,24.5h.97l-1.85,2.04.88-2.04ZM56.66,26.5l-1.85-2h.95l.9,2ZM55.96,24.11l-.45-.99h1.4l-.95.99ZM57.83,23.12h1.32l-.42.96-.9-.96ZM56.42,24.14l.95-.99.93.99h-1.87ZM58.55,24.5l-1.18,2.73-1.24-2.73h2.41ZM59.78,22.39h-4.8l-1.27,1.97,3.68,3.97,3.61-3.97-1.22-1.97Z"/>
  <g class="cls-4">
    <path class="cls-2" d="M26.62,47.38c-.62-.43-.53-1.04-.53-1.04.17.06.57.17.57.17-.16.28-.04.87-.04.87"/>
    <path class="cls-2" d="M25.54,44.78c.05-.12.19-.18.3-.12.12.05.17.19.12.31-.05.12-.19.18-.3.13-.12-.05-.17-.19-.12-.32M23.03,45.59c.38.69,3.25.5,3.25.5.11.08.59.18.59.18.5,1.51,1.36,1.89,1.36,1.89.55.22.35-.11.35-.11-.28-.59.04-.97.04-.97,2.24,1.06,1.63,4.63,1.63,4.63-1.3.32-1.62,1.36-1.62,1.36,1.49-.23,2.65,1.5,2.65,1.5.69-.87-.4-2.75-.4-2.75,1.97-3.6.24-6.34.24-6.34-.12-.92.69-1.4.69-1.4.64-.2.05-.38.05-.38-1.17-.41-2.43.27-2.43.27-4.95-2.16-5.5,1.04-5.5,1.04-.94.24-.91.58-.91.58"/>
    <path class="cls-2" d="M26.68,40.8c-.56-.19-.4-.5-.4-.5.18-.25.38-.17.38-.17,1.97.47,2.5,2.79,2.5,2.79-.93-1.69-2.48-2.13-2.48-2.13"/>
    <path class="cls-2" d="M29.59,41.85s.5.09.12,1.51c0,0-.62-1.38-.12-1.51"/>
    <path class="cls-2" d="M29.37,43.57c-2.59-1.48-3.4-1.2-3.4-1.2-1.14.17-.86-.4-.86-.4,1.22-1.44,4.26,1.6,4.26,1.6"/>
    <path class="cls-2" d="M64.55,39.8c-.06-.03-.12-.08-.16-.14l-.12-.16-.14.13c-.93.82-2.28,1.43-3.06,1.01-.74-.39-1.25-1.82-1.17-3.24v-.21s-.19,0-.19,0c-.09,0-.17-.01-.24-.05-.25-.13-.34-.47-.2-.76.14-.28.45-.4.7-.27l.18.08.08-.17c.04-.08.08-.16.13-.23.37.09.88,0,1.38-.26.08-.05.17-.1.24-.15.24.48.61.99,1.08,1.47.72.74,1.52,1.22,2.14,1.36-.02.06-.05.12-.08.18-.03.05-.06.11-.08.16l-.09.15.14.1c.22.15.29.46.16.73-.14.28-.46.4-.71.27M64.39,33.63c.31.98,1,2.2,1,2.2-1.42-1.42-3.22-1.9-3.22-1.9.92.07,2.22-.31,2.22-.31M63.92,42.18c-.42-.44-.39-.63-.38-.68.04-.12.27-.19.36-.2.47-.03.75-.19.84-.46.07-.21,0-.43-.1-.62.36.05.74-.14.93-.51.19-.38.12-.82-.15-1.1,0-.01.01-.03.02-.04.05-.1.09-.21.13-.31.22,0,.4-.08.53-.21.35-.38.2-1.17-.32-2.01.19-.14.34-.31.46-.52.49-.92-.04-2.2-1.18-2.85-1.14-.65-2.46-.43-2.95.5-.06.12-.11.24-.14.37-.33,0-.72.09-1.1.29-.78.43-1.23,1.16-.99,1.63.04.07.09.13.15.19-.02.03-.04.06-.06.08-.39-.11-.83.09-1.03.5-.18.37-.12.8.13,1.07-.19.03-.38.1-.49.27-.16.23-.11.56.13.97.04.08.13.32.06.43-.03.04-.17.18-.76.08-.12-.02-.24.07-.26.19-.02.1.03.2.12.25.02.01.04.02.07.02.61.1,1,0,1.19-.28.25-.37,0-.87-.04-.93-.17-.29-.17-.43-.15-.47.06-.08.34-.1.57-.06.02,1.27.47,2.73,1.37,3.2.86.46,2.17-.06,3.14-.81.16.17.31.41.28.51-.01.04-.13.12-.46.15-.06,0-.6.08-.74.51-.11.33.05.71.48,1.17.02.02.03.03.06.04.08.04.19.03.26-.04.09-.09.09-.24,0-.33"/>
    <path class="cls-2" d="M61.44,37.53c.16.08.35.02.43-.14.08-.16.02-.37-.14-.45-.16-.08-.35-.02-.43.15-.08.16-.02.37.14.45"/>
    <path class="cls-2" d="M63.56,38.32l-.38-.2.43-.12c.06-.02.1-.08.08-.15-.02-.06-.08-.1-.14-.08l-.71.2s-.08.05-.08.1c0,.05.02.1.06.12l.64.34c.06.03.12,0,.15-.05.03-.06,0-.13-.05-.16"/>
    <path class="cls-2" d="M63.27,38.91s-.12-.04-.16,0c-.32.33-.85.4-1.31.16-.45-.24-.71-.73-.64-1.19.01-.06-.03-.12-.09-.14-.06-.01-.12.03-.13.1-.06.37.05.75.29,1.05l-.08.17c-.12.26,0,.58.29.73.28.15.6.05.73-.21l.05-.14c.4.04.79-.08,1.06-.36.04-.05.04-.12,0-.17"/>
    <path class="cls-2" d="M51.52,44.98c-.22-1.03.4-2.04,1.39-2.27.99-.23,1.97.41,2.19,1.44.22,1.02-.4,2.04-1.38,2.27-.99.23-1.97-.41-2.19-1.44M53.95,47.49l.7-.59.83-.36.24-.91.47-.8-.32-.88-.07-.94-.76-.51-.59-.71-.91.04-.88-.22-.7.59-.84.36-.24.91-.47.8.32.88.07.94.76.52.59.71.9-.05.88.22Z"/>
  </g>
  <polygon class="cls-2" points="54.02 47.81 53.04 47.57 52.64 47.59 53.3 52.85 54.79 51.17 56.51 51.68 55.05 47.05 54.8 47.16 54.02 47.81"/>
  <polygon class="cls-2" points="51.66 47.15 50.76 51.66 52.66 50.45 52.35 47.63 52.04 47.61 51.66 47.15"/>
  <polygon class="cls-2" points="55.9 46.1 55.73 46.76 55.33 46.95 56.19 49.46 58.45 49.94 55.9 46.1"/>
  <polygon class="cls-2" points="53.95 44.64 54.42 43.88 53.55 43.95 53 43.24 52.8 44.12 51.98 44.44 52.72 44.92 52.77 45.83 53.43 45.24 54.28 45.48 53.95 44.64"/>
  <g class="cls-5">
    <path class="cls-2" d="M61.58,49.67c-1.2-.52-2.19-1.64-2.81-2.49-.62-.84-.98-1.56-.98-1.58-.37-.67-.49-1.3-.33-1.85.24-.83,1-1.24,1.01-1.25,1.67-1,2.88.3,3.32.91.09.12.13.19.13.19.31.71.45,1.83.45,1.84.31,2.03,1.36,2.91,1.35,2.89.29.33.4.61.37.86-.03.24-.19.36-.22.38-.72.67-2.29.09-2.3.09M63.99,49.95s0,0,.02-.02c.03-.02.07-.04.1-.06.01,0,.29-.22.35-.6.04-.31-.06-.64-.3-.98-.05-.06-.1-.13-.17-.21,0,0-.96-.82-1.24-2.67,0-.05-.15-1.19-.49-1.97,0,0-.05-.09-.16-.24-.39-.53-1.82-2.18-3.77-1.01-.02,0-.21.11-.43.31-.61.48-1.9,1.76-.88,3.6,0,0,1.6,3.23,3.99,4.26,0,0,1.83.88,3-.4"/>
    <path class="cls-2" d="M63.15,48.51s-.66-1.01-.99-1.05c0,0,.11.75-.67,1.14,0,0-.64.39.43.74,0,0,1.26.46,1.57-.13,0,0,.11-.2-.33-.7"/>
    <path class="cls-2" d="M60.84,47.12c-.45.7-1.02-.19-1.02-.19-.49-.92.12-1.25.12-1.25,1.17.13.9,1.43.9,1.43M61.99,45.36c-.17-.74-.68-.38-.68-.38-.24.27-.38.03-.38.03-.52-.51-.8-.44-.8-.44-.48.11-.44-.15-.44-.15-.09-.58,1.25-.26,1.25-.26.83.22.6-.44.6-.44-.45-.72-1.71-.87-1.71-.87-1.42-.18-1.89,1.15-1.89,1.15-.33.8,1.24,3,1.24,3,1.09,1.44,1.58,1.01,1.58,1.01,1.11-.3,1.23-2.66,1.23-2.66"/>
    <path class="cls-2" d="M37.4,42.48c.87,0,1.6,1.51,1.6,3.3h.66c0-2.23-.99-3.98-2.26-3.98s-2.26,1.75-2.26,3.98h.66c0-1.78.73-3.3,1.6-3.3"/>
    <path class="cls-2" d="M39.83,46.6h-4.85c0,1.25.53,2.34,1.31,2.88-.3.31-.49.75-.49,1.24h3.2c0-.49-.19-.93-.49-1.24.78-.54,1.32-1.62,1.32-2.88"/>
    <path class="cls-2" d="M34.34,35h-5.08c-.18,0-.32-.15-.32-.33s.14-.33.32-.33h5.08c.18,0,.32.15.32.33s-.14.33-.32.33"/>
    <path class="cls-2" d="M31.19,30.94s1,.66.54,1.52c0,0-1.11,1.87.99,1.51,0,0-.59-.48-.35-1.53,0,0,.42-1.32-1.19-1.5"/>
    <path class="cls-2" d="M30.54,31.4s.56.64.1,1.13c0,0-1.08,1.05.4,1.21,0,0-.31-.44.04-1.1,0,0,.52-.81-.54-1.24"/>
    <path class="cls-2" d="M29.23,36.87c-.6-.1-.74-.72-.75-.8-.02-.11-.01-.19.02-.22.07-.06.28-.05.48,0-.02-.17-.03-.34-.03-.48v-.11c-.26-.04-.57-.04-.79.15-.13.12-.28.34-.21.76,0,.03.12.67.65,1.04.23.17.51.25.81.25.04,0,.08,0,.12,0-.11-.19-.2-.39-.28-.58"/>
    <path class="cls-2" d="M34.31,35.36h-5s.02,2.95,2.47,3.07c0,0,2.34.15,2.53-3.07"/>
    <path class="cls-2" d="M33.84,49.71c.04.73.38.61.38.61.28-.15.26-.41.26-.41.05-2.51-2.05-3.8-2.05-3.8,1.38,1.6,1.41,3.59,1.41,3.59"/>
    <path class="cls-2" d="M33.42,45.87s0-.58-1.35-.49c0,0,1.14,1.03,1.35.49"/>
    <path class="cls-2" d="M31.73,45.61c.92,3.5.49,4.42.49,4.42-.4,1.34.22,1.13.22,1.13,1.65-1.15-.71-5.55-.71-5.55"/>
    <path class="cls-2" d="M32.73,31.96s.55.39.28.86c0,0-.65,1.03.53.86,0,0-.32-.28-.17-.86,0,0,.25-.73-.64-.86"/>
    <path class="cls-2" d="M53.35,23.49c0-.59-.48-1.09-1.05-1.09.57,0,1.05-.5,1.05-1.09,0,.59.48,1.09,1.05,1.09-.57,0-1.05.5-1.05,1.09"/>
    <path class="cls-2" d="M61.17,23.32c0-.59-.49-1.09-1.05-1.09.57,0,1.05-.5,1.05-1.09,0,.59.49,1.09,1.05,1.09-.57,0-1.05.5-1.05,1.09"/>
    <path class="cls-2" d="M55.43,28.87c0-.41-.34-.76-.73-.75.39,0,.73-.35.72-.76,0,.41.34.75.73.75-.39,0-.73.35-.73.76"/>
    <path class="cls-2" d="M60.28,27.59c0-.41-.34-.76-.73-.76.39,0,.73-.35.73-.75,0,.41.33.75.73.75-.39,0-.73.35-.73.76"/>
    <path class="cls-2" d="M53.7,26.74c0-.41-.34-.75-.73-.75.39,0,.73-.35.73-.76,0,.41.34.76.73.75-.39,0-.73.35-.73.76"/>
    <path class="cls-2" d="M61.6,25.81c0-.35-.29-.65-.63-.65.34,0,.63-.3.63-.65,0,.35.29.65.63.65-.34,0-.63.3-.63.66"/>
    <path class="cls-2" d="M41.73,43.66c0-.65-.34-1.18-.76-1.18-.08,0-.13-.06-.13-.14s.06-.14.13-.14c.57,0,1.03.66,1.03,1.47,0,.08-.06.14-.13.14s-.14-.06-.14-.14M42.32,43.59c0-.99-.54-1.79-1.21-1.79s-1.21.8-1.21,1.79c0,.74.31,1.38.74,1.65l-.18,4.9c-.01.35.27.65.63.65s.64-.3.63-.65l-.18-4.87c.46-.26.78-.91.78-1.67"/>
    <path class="cls-2" d="M19.43,93.8c.21,0,.41-.01.47-.03.08-.02.14-.06.21-.15.05-.07.11-.21.11-.3,0-.03.01-.04.04-.04h.12s.04.02.04.05c-.01.08-.01.33-.01.5,0,.21.02.44.03.54,0,.03-.01.03-.04.04l-.11.02s-.03,0-.04-.04c-.02-.08-.06-.19-.09-.24-.05-.09-.16-.15-.25-.17-.12-.02-.27-.03-.47-.03v.29c0,.26.02.72.02.81,0,.25.05.33.11.36.07.03.16.04.39.04.08,0,.27,0,.37-.01.09,0,.23-.06.35-.16.12-.1.38-.4.47-.51.02-.02.03-.02.05-.01l.08.05s.02.02.02.04l-.21.72s-.05.07-.1.07c-.05,0-.41-.02-2-.02-.34,0-.5.02-.59.02-.03,0-.04-.02-.04-.05v-.1s.01-.04.05-.04h.14c.21,0,.23-.03.23-.2v-1.6c0-.4,0-.98-.01-1.03-.02-.15-.07-.19-.19-.19h-.18s-.02-.01-.02-.05v-.11s0-.03.03-.03c.1,0,.26.01.68.01h1.61c.07,0,.16-.01.18-.01s.03,0,.04.02c.02.07.17.72.19.77,0,.02,0,.03-.01.05l-.07.04s-.04,0-.06-.02c-.02-.04-.44-.47-.54-.54-.1-.06-.23-.12-.35-.13l-.61-.02v1.39Z"/>
    <path class="cls-2" d="M23.23,94.13c-.04-.14-.31-1.15-.34-1.26-.02-.07-.03-.11-.05-.11-.03,0-.04.02-.06.06-.02.06-.42,1.19-.45,1.31h.9ZM22.26,94.32c-.04.1-.26.75-.26.91,0,.1.04.22.18.22h.16s.05.02.05.04v.11s0,.05-.04.05c-.06,0-.25-.01-.62-.01-.34,0-.44.01-.5.01-.03,0-.03-.03-.03-.06v-.09s0-.04.03-.04h.12c.11,0,.22-.07.31-.21.06-.1.39-.93.54-1.35.04-.1.41-1.12.45-1.25.01-.05.04-.11,0-.16-.01-.02-.03-.04-.03-.06,0-.01,0-.03.05-.04.15-.03.45-.16.51-.24.02-.02.04-.04.06-.04.03,0,.04.03.05.08.09.3.45,1.37.53,1.68.11.37.41,1.26.47,1.39.08.16.2.21.27.21h.16s.03.02.03.04v.09s0,.06-.04.06c-.09,0-.18-.01-.77-.01-.38,0-.54.01-.63.01-.05,0-.05-.03-.05-.06v-.09s0-.04.03-.04h.13c.12,0,.17-.05.14-.17-.04-.17-.22-.78-.28-.96h-1.01Z"/>
    <path class="cls-2" d="M25.63,92.47h-.16c-.15,0-.42,0-.62.08-.1.08-.3.37-.42.54-.01.02-.03.04-.05.03l-.1-.04s-.02-.03-.02-.04c.05-.2.2-.83.22-.93.01-.06.04-.08.07-.08s.05.02.09.07c.05.07.14.11.3.12.24.01.44.03.91.03h.27c.5,0,.7-.02.89-.03.1,0,.28-.06.34-.12.05-.05.07-.07.11-.07s.05.02.06.08c.01.11.1.7.14.95,0,.02,0,.04-.02.04l-.1.04s-.03,0-.05-.04c-.1-.17-.28-.42-.4-.53-.11-.07-.52-.09-.63-.09h-.15v1.31c0,.07,0,1.4,0,1.48,0,.12.05.19.16.19h.21s.05.01.05.05v.11s0,.04-.05.04c-.05,0-.19-.01-.7-.01s-.68.01-.74.01c-.04,0-.04-.02-.04-.06v-.09s0-.05.03-.05h.24c.09,0,.15-.06.16-.14,0-.1,0-1.57,0-1.66v-1.18Z"/>
    <path class="cls-2" d="M28.76,93.91c0-.42.32-.66.64-.66s.64.23.64.66c0,.4-.32.63-.65.63-.31,0-.63-.23-.63-.63"/>
    <path class="cls-2" d="M31.58,94.57s.03,0,.03.04c0,.15.07.35.18.54.13.22.36.32.58.32s.57-.15.57-.53-.07-.51-.67-.74c-.14-.05-.43-.21-.67-.42-.16-.15-.23-.4-.23-.68,0-.29.07-.49.35-.7.21-.16.38-.23.66-.23.33,0,.51.06.61.09.05.02.08.01.11-.02l.06-.06s.04-.03.07-.03c.03,0,.04.05.05.08l.07.82s0,.02-.02.03l-.1.03s-.05,0-.06-.03c-.05-.14-.13-.33-.28-.5-.11-.13-.25-.2-.46-.2-.34,0-.49.31-.49.43,0,.18,0,.32.12.44.12.13.38.24.61.31.22.07.4.19.59.36.18.17.25.38.25.71,0,.58-.4,1.05-1.01,1.05-.41,0-.63-.07-.82-.2-.06-.04-.08-.05-.1-.05-.03,0-.05.03-.07.08-.03.05-.05.06-.08.06-.05,0-.07-.02-.07-.08l.07-.91s.02-.03.04-.03h.12Z"/>
    <path class="cls-2" d="M34.28,93.75c0-.3,0-.94,0-1.01,0-.24-.03-.31-.16-.31h-.19c-.05,0-.06-.02-.06-.05v-.09s0-.06.05-.06c.08,0,.22.01.68.01s.62-.01.69-.01c.05,0,.06.01.06.05v.1s0,.04-.06.04h-.11c-.17,0-.19.08-.2.26,0,.07-.03.7-.03.96v.07s.01.04.07.04h1.37c.07,0,.09,0,.09-.06v-.05c0-.27-.03-.94-.03-.98,0-.15-.02-.24-.1-.24h-.19s-.05-.02-.05-.05v-.11s0-.04.04-.04c.08,0,.28.01.67.01s.57-.01.63-.01c.06,0,.06.01.06.05v.09s0,.05-.06.05h-.14c-.13,0-.15.08-.15.24,0,.07,0,.87,0,1.05v.16c0,.15,0,1.06.01,1.32,0,.17.05.24.18.24h.16s.04.01.04.04v.11s0,.05-.05.05c-.07,0-.23-.01-.64-.01-.47,0-.62.01-.72.01-.05,0-.06-.02-.06-.05v-.11s0-.04.05-.04h.2c.11,0,.12-.09.13-.21,0-.22.02-.99.02-1.14v-.06c0-.05-.05-.06-.1-.06h-1.38c-.05,0-.06.02-.06.06v.07c0,.12.02.86.03,1.18,0,.12.05.16.15.16h.13s.04,0,.04.04v.11s0,.04-.04.04c-.08,0-.24-.01-.63-.01-.49,0-.62.01-.72.01-.04,0-.05-.01-.05-.05v-.1s0-.04.05-.04h.21c.11,0,.13-.12.13-.22,0-.22.01-1.15.01-1.27v-.21Z"/>
    <path class="cls-2" d="M40.76,94.02c0-1.05-.66-1.62-1.05-1.62-.09,0-.32-.02-.6.26-.27.27-.41.77-.41,1.16,0,1.22.67,1.66,1.06,1.66.85,0,1-1.07,1-1.46M38.64,95.39c-.33-.2-.68-.72-.68-1.42,0-.29.07-.75.43-1.19.4-.51.92-.61,1.34-.61.38,0,.74.06,1.12.38.35.29.63.77.63,1.43,0,.35-.11.71-.34,1.04-.3.39-.69.67-1.42.67-.32,0-.72-.08-1.08-.31"/>
    <path class="cls-2" d="M42.95,94c.1.02.21.03.28.03.14,0,.37-.15.47-.32.09-.15.11-.33.11-.51,0-.66-.46-.8-.65-.8-.08,0-.13,0-.22.02v1.57ZM42.95,94.36c0,.22,0,.87,0,.93,0,.11.06.15.13.15h.23s.04.01.04.03v.12s0,.04-.04.04c-.06,0-.21-.01-.74-.01-.4,0-.58.01-.63.01-.03,0-.04-.01-.04-.03v-.13s0-.03.03-.03h.12c.16,0,.19-.02.2-.14,0-.05.02-.79.02-1.35v-.55c0-.32,0-.82,0-.87,0-.1-.06-.11-.15-.11h-.22s-.03,0-.03-.04v-.12s0-.03.03-.03c.05,0,.22.01.7.01.08,0,.35-.01.51-.01.57,0,.84.05,1.1.26.19.15.33.42.33.74,0,.57-.44.96-1.21.96-.14,0-.25,0-.37-.01v.18Z"/>
    <path class="cls-2" d="M45.72,93.91c0-.42.32-.66.64-.66s.64.23.64.66c0,.4-.32.63-.65.63-.31,0-.63-.23-.63-.63"/>
    <path class="cls-2" d="M49.29,94c.1.02.21.03.28.03.14,0,.37-.15.47-.32.09-.15.11-.33.11-.51,0-.66-.46-.8-.65-.8-.08,0-.13,0-.22.02v1.57ZM49.29,94.36c0,.22,0,.87,0,.93,0,.11.06.15.13.15h.23s.04.01.04.03v.12s0,.04-.04.04c-.06,0-.21-.01-.74-.01-.4,0-.58.01-.63.01-.03,0-.04-.01-.04-.03v-.13s0-.03.03-.03h.12c.16,0,.19-.02.2-.14,0-.05.02-.79.02-1.35v-.55c0-.32,0-.82,0-.87,0-.1-.06-.11-.15-.11h-.22s-.03,0-.03-.04v-.12s0-.03.03-.03c.05,0,.22.01.7.01.08,0,.35-.01.51-.01.57,0,.84.05,1.1.26.19.15.33.42.33.74,0,.57-.44.96-1.21.96-.14,0-.25,0-.37-.01v.18Z"/>
    <path class="cls-2" d="M52.24,94.14c0,.08,0,1.11.01,1.3h.26c.22,0,.42,0,.67-.02.25-.02.56-.6.63-.77.01-.03.03-.04.06-.03l.09.04s.01.01,0,.04c-.01.03-.2.82-.22.95-.12,0-1.44-.01-1.87-.01-.45,0-.62.01-.68.01-.03,0-.04,0-.04-.04v-.12s0-.03.03-.03h.14c.17,0,.2-.07.2-.12,0-.09.01-1.28.01-1.57v-.27c0-.3,0-.81-.01-.89,0-.12-.03-.17-.14-.17h-.17s-.03-.02-.03-.05v-.12s0-.03.03-.03c.05,0,.22.01.63.01.54,0,.73-.01.77-.01.04,0,.04.01.04.05v.11s0,.04-.04.04h-.22c-.14,0-.16.05-.16.18,0,.06-.01.78-.01,1.12v.41Z"/>
    <path class="cls-2" d="M55.86,94.13c-.04-.14-.31-1.15-.34-1.26-.02-.07-.03-.11-.05-.11-.03,0-.04.02-.06.06-.02.06-.42,1.19-.46,1.31h.9ZM54.9,94.32c-.04.1-.26.75-.26.91,0,.1.04.22.18.22h.16s.05.02.05.04v.11s0,.05-.04.05c-.06,0-.25-.01-.62-.01-.33,0-.44.01-.5.01-.03,0-.03-.03-.03-.06v-.09s0-.04.03-.04h.12c.11,0,.22-.07.31-.21.06-.1.39-.93.54-1.35.04-.1.41-1.12.45-1.25.01-.05.04-.11,0-.16-.01-.02-.03-.04-.03-.06,0-.01,0-.03.05-.04.15-.03.45-.16.51-.24.02-.02.04-.04.06-.04.03,0,.04.03.05.08.09.3.45,1.37.53,1.68.11.37.41,1.26.47,1.39.08.16.2.21.27.21h.16s.03.02.03.04v.09s0,.06-.04.06c-.09,0-.18-.01-.77-.01-.38,0-.54.01-.63.01-.05,0-.05-.03-.05-.06v-.09s0-.04.03-.04h.13c.12,0,.17-.05.14-.17-.04-.17-.22-.78-.28-.96h-1.01Z"/>
    <path class="cls-2" d="M58.89,94.74c0,.19.01.5.02.54.01.15.08.17.16.17h.13s.03.02.03.03v.12s0,.04-.03.04c-.06,0-.24-.01-.67-.01-.48,0-.62.01-.67.01-.02,0-.03-.01-.03-.05v-.11s0-.03.03-.03h.16c.12,0,.16-.05.16-.11,0-.07.01-.44.01-.89v-.21c-.07-.15-.81-1.54-.92-1.7-.06-.07-.17-.11-.24-.11h-.07s-.03-.01-.03-.03v-.13s0-.03.03-.03c.04,0,.26.01.67.01.47,0,.64-.01.68-.01.03,0,.03,0,.03.03v.12s0,.04-.03.04h-.11c-.06,0-.11.05-.11.12,0,.09.55,1.18.67,1.46.14-.26.69-1.27.69-1.42,0-.08-.08-.16-.17-.16h-.12s-.03-.01-.03-.04v-.12s0-.03.03-.03c.05,0,.23.01.57.01.32,0,.42-.01.46-.01.03,0,.04,0,.04.04v.12s0,.04-.04.04h-.08c-.06,0-.19.03-.26.11-.06.08-.78,1.3-.96,1.67v.53Z"/>
    <path class="cls-2" d="M61.05,93.91c0-.42.32-.66.64-.66s.64.23.64.66c0,.4-.32.63-.65.63-.31,0-.63-.23-.63-.63"/>
    <path class="cls-2" d="M64.65,93.8c.21,0,.41-.01.47-.03.08-.02.14-.06.21-.15.05-.07.11-.21.11-.3,0-.03.01-.04.04-.04h.12s.04.02.04.05c-.01.08-.01.33-.01.5,0,.21.02.44.03.54,0,.03-.01.03-.04.04l-.11.02s-.03,0-.04-.04c-.02-.08-.06-.19-.09-.24-.05-.09-.16-.15-.25-.17-.12-.02-.27-.03-.47-.03v.29c0,.26.02.72.02.81,0,.25.05.33.11.36.07.03.16.04.39.04.08,0,.27,0,.37-.01.09,0,.23-.06.35-.16.12-.1.38-.4.47-.51.02-.02.03-.02.05-.01l.08.05s.02.02.02.04l-.21.72s-.05.07-.1.07c-.05,0-.41-.02-2-.02-.34,0-.5.02-.59.02-.03,0-.04-.02-.04-.05v-.1s.01-.04.05-.04h.14c.21,0,.23-.03.23-.2v-1.6c0-.4,0-.98-.01-1.03-.02-.15-.06-.19-.19-.19h-.18s-.02-.01-.02-.05v-.11s0-.03.03-.03c.1,0,.26.01.68.01h1.61c.07,0,.16-.01.18-.01s.03,0,.04.02c.02.07.17.72.19.77,0,.02,0,.03-.01.05l-.07.04s-.04,0-.06-.02c-.02-.04-.44-.47-.54-.54-.1-.06-.23-.12-.35-.13l-.61-.02v1.39Z"/>
    <path class="cls-2" d="M69.54,94.24c0-.42,0-.66-.01-.9,0-.19-.03-.66-.04-.73-.03-.12-.14-.19-.24-.19h-.15s-.03-.01-.03-.04v-.12s0-.03.04-.03c.05,0,.2.01.54.01.28,0,.39-.01.44-.01.04,0,.05.01.05.04v.12s0,.04-.02.04h-.13c-.08,0-.12.08-.14.25-.03.32-.11,1.4-.11,2.03v.82c0,.07,0,.16-.07.16-.07,0-.13-.02-.18-.08-.08-.08-.3-.33-.58-.67-.33-.41-.7-.86-.79-.97-.08-.1-.71-.92-.82-1.08h-.04v.97c0,.4.04.98.05,1.16,0,.28.09.42.29.42h.11s.04.01.04.04v.11s0,.04-.04.04c-.05,0-.32-.01-.54-.01-.14,0-.46.01-.5.01-.02,0-.02,0-.02-.04v-.12s0-.03.03-.03h.16c.1,0,.17-.15.2-.47,0-.09.04-.85.04-1.56v-.43c0-.28-.17-.55-.4-.55h-.11s-.03-.02-.03-.04v-.13s0-.03.03-.03.06,0,.15,0c.09,0,.24,0,.48,0,.16,0,.29,0,.35,0,.06,0,.1.02.13.06.02.03.93,1.18,1.07,1.35.06.08.74.96.79,1.02h.02v-.43Z"/>
    <path class="cls-2" d="M70.74,93.71c0-.08,0-.92-.01-1.12-.03-.11-.05-.16-.2-.16h-.16s-.03,0-.03-.02v-.14s0-.03.03-.03c.05,0,.22.01.73.01.45,0,.61-.01.68-.01.03,0,.04.01.04.04v.12s-.01.04-.04.04h-.16c-.12,0-.17.04-.17.13,0,.08-.01.69-.01,1.26v.22c0,.61-.02,1.07-.02,1.18,0,.25-.03.46-.18.73-.21.36-.59.72-1.12.72-.12,0-.35-.09-.35-.34,0-.16.11-.31.28-.31.23,0,.33.2.41.39.1,0,.2-.12.24-.29.1-.35.05-1.73.05-2.08v-.33Z"/>
    <path class="cls-2" d="M74.91,94.02c0-1.05-.66-1.62-1.05-1.62-.09,0-.32-.02-.6.26-.27.27-.41.77-.41,1.16,0,1.22.67,1.66,1.06,1.66.85,0,1-1.07,1-1.46M72.79,95.39c-.33-.2-.68-.72-.68-1.42,0-.29.07-.75.43-1.19.4-.51.92-.61,1.34-.61.38,0,.74.06,1.12.38.35.29.63.77.63,1.43,0,.35-.11.71-.35,1.04-.3.39-.69.67-1.42.67-.32,0-.72-.08-1.08-.31"/>
    <path class="cls-2" d="M77.49,94.74c0,.19.01.5.02.54.01.15.08.17.16.17h.13s.03.02.03.03v.12s0,.04-.03.04c-.06,0-.24-.01-.67-.01-.48,0-.62.01-.67.01-.02,0-.03-.01-.03-.05v-.11s0-.03.03-.03h.16c.12,0,.16-.05.16-.11,0-.07.01-.44.01-.89v-.21c-.07-.15-.81-1.54-.92-1.7-.06-.07-.17-.11-.24-.11h-.07s-.03-.01-.03-.03v-.13s0-.03.03-.03c.04,0,.26.01.67.01.47,0,.64-.01.68-.01.03,0,.03,0,.03.03v.12s0,.04-.03.04h-.11c-.06,0-.11.05-.11.12,0,.09.55,1.18.67,1.46.14-.26.69-1.27.69-1.42,0-.08-.08-.16-.17-.16h-.12s-.03-.01-.03-.04v-.12s0-.03.03-.03c.05,0,.23.01.57.01.32,0,.42-.01.46-.01.03,0,.04,0,.04.04v.12s0,.04-.04.04h-.08c-.06,0-.19.03-.26.11-.06.08-.78,1.3-.96,1.67v.53Z"/>
  </g>
</svg>