<?xml version="1.0" encoding="UTF-8"?>
<svg id="Layer_1" data-name="Layer 1" xmlns="http://www.w3.org/2000/svg" xmlns:xlink="http://www.w3.org/1999/xlink" viewBox="0 0 188.78 52.33">
  <defs>
    <style>
      .cls-1 {
        fill: none;
      }

      .cls-2 {
        fill: #464d53;
      }

      .cls-3 {
        clip-path: url(#clippath-1);
      }

      .cls-4 {
        clip-path: url(#clippath);
      }
    </style>
    <clipPath id="clippath">
      <rect class="cls-1" x="0" width="188.78" height="52.33"/>
    </clipPath>
    <clipPath id="clippath-1">
      <rect class="cls-1" x="0" width="188.78" height="52.33"/>
    </clipPath>
  </defs>
  <g class="cls-4">
    <path class="cls-2" d="M72.65,21.33c.59-.39.98-1.18.98-2.11,0-.98-.44-1.64-1.11-2.11-.67-.46-1.36-.57-2.39-.57h-2.72v5.27h2.88c.85,0,1.67-.02,2.36-.49M71.59,13.68c.62-.39.98-1,.98-2.06,0-1.54-1.21-2.29-2.93-2.29h-2.24v4.78h2.08c.93,0,1.57-.1,2.11-.44M69.74,6.72c1.44,0,2.77.13,3.93.69,1.39.67,2.29,1.75,2.29,3.78,0,2.16-1.59,3.42-2.75,3.88v.05c2.29.51,3.8,2,3.8,4.26,0,1.93-.9,3.32-2.11,4.09-1.1.69-2.67.98-4.37.98h-6.47V6.72h5.68Z"/>
    <path class="cls-2" d="M82.4,24.44h-3.29v-12.43h3.29v12.43ZM78.78,8.2c0-1.05.82-1.82,1.98-1.82s1.98.77,1.98,1.82-.82,1.82-1.98,1.82-1.98-.74-1.98-1.82"/>
    <path class="cls-2" d="M91.44,14.32c-2.16,0-3.44,1.59-3.44,3.62,0,1.9,1.23,3.47,3.39,3.47,2.36,0,3.54-1.57,3.54-3.47,0-1.8-1.33-3.62-3.49-3.62M90.46,23.98c-3.13,0-5.81-2-5.81-5.96,0-3.44,2.41-6.29,6.11-6.29,1.67,0,3.08.62,3.96,1.95h.05l-.03-1.72h3.26v9.87c0,2.72-.56,4.26-1.62,5.37-1.08,1.13-2.67,2.18-5.65,2.18s-5.17-1.41-5.78-1.85l1.36-2.29c.8.57,2.83,1.47,4.42,1.47,1.77,0,2.7-.57,3.16-1.1.46-.54.85-1.57.85-2.95v-.62h-.05c-.85,1.28-2.34,1.95-4.24,1.95"/>
    <path class="cls-2" d="M112.14,17.07v7.37h-3.29v-6.65c0-1.85-.33-3.31-2.24-3.31-2.03,0-2.72,1.7-2.72,3.78v6.19h-3.26V6.72h3.26v7.17h.05c.67-1.31,1.93-2.11,3.73-2.11,3.57,0,4.47,2.31,4.47,5.29"/>
    <path class="cls-2" d="M117.63,17.15h5.96c-.05-1.36-.57-2.93-2.88-2.93-1.95,0-2.98,1.36-3.08,2.93M121.38,22.21c1.67,0,3.16-.74,3.75-1.26l1.28,1.77c-.69.72-2.57,2-5.6,2-3.75,0-6.53-2.29-6.53-6.3s2.9-6.65,6.45-6.65c3.83,0,6.14,2.52,6.14,5.83,0,.64-.05,1.67-.05,1.67h-9.15c.31,1.98,1.82,2.93,3.7,2.93"/>
    <path class="cls-2" d="M131.62,20.72c0,1.05.8,1.77,2.16,1.77,1.29,0,2.24-.75,2.67-1.36v-2.29l-2.24.13c-1.75.1-2.6.69-2.6,1.75M132.7,24.73c-2.42,0-4.37-1.31-4.37-3.9s2.54-3.6,5.11-3.78l2.98-.21v-.33c0-1.59-1.05-2.34-2.78-2.34s-3.01.62-3.55,1.03l-1-2.11c.95-.57,2.7-1.31,4.86-1.31s3.47.57,4.39,1.44c.9.87,1.36,2,1.36,4.11v7.12h-3.16l-.05-1.44c-.51.9-1.95,1.72-3.8,1.72"/>
    <path class="cls-2" d="M145.44,12.01l-.05,2h.08c.49-1.34,1.72-2.24,3.06-2.24.85,0,1.31.23,1.31.23l-.23,2.85h-.15c-.36-.1-.93-.15-1.36-.15-.98,0-1.72.41-2.18,1.21-.31.62-.46,1.47-.46,2.42v6.11h-3.26v-12.44h3.26Z"/>
    <path class="cls-2" d="M158.4,21.98c.67,0,1.18-.21,1.18-.21l.18,2.54c-.15.05-1.13.41-2.52.41-2.54,0-3.6-1.16-3.6-4.39v-5.75h-1.85v-2.54h1.85v-3.55h3.26v3.55h2.88v2.54h-2.88v5.04c0,1.9.33,2.36,1.49,2.36"/>
    <path class="cls-2" d="M164.41,17.15h5.96c-.05-1.36-.57-2.93-2.88-2.93-1.95,0-2.98,1.36-3.08,2.93M168.16,22.21c1.67,0,3.16-.74,3.75-1.26l1.29,1.77c-.69.72-2.57,2-5.6,2-3.75,0-6.53-2.29-6.53-6.3s2.9-6.65,6.45-6.65c3.83,0,6.14,2.52,6.14,5.83,0,.64-.05,1.67-.05,1.67h-9.15c.31,1.98,1.83,2.93,3.7,2.93"/>
    <path class="cls-2" d="M185.6,18.2c0-2.08-1.36-3.91-3.47-3.91s-3.37,1.82-3.37,3.91,1.34,3.85,3.47,3.85c1.98,0,3.37-1.52,3.37-3.85M185.57,22.49c-1,1.59-2.54,2.24-4.27,2.24-3.65,0-5.88-2.83-5.88-6.53s2.34-6.42,6.11-6.42c1.67,0,3.08.62,3.96,1.95h.05c-.03-.57-.03-1.23-.03-2.11v-4.91h3.26v17.73h-3.11l-.03-1.95h-.08Z"/>
    <path class="cls-2" d="M75.84,40.47c0,3.29-2.42,5.47-6.17,5.47-3.03,0-5.11-1.41-6.27-2.75l1.59-2.41c1.39,1.52,3.06,2.34,4.73,2.34s2.78-.8,2.78-2.34c0-1.39-.93-1.85-2.44-2.47l-2.77-1.1c-1.93-.77-3.21-2.13-3.21-4.29,0-3.08,2.42-5.22,6.14-5.22,2.52,0,4.34,1.05,5.4,2.13l-1.59,2.39c-1.13-1.03-2.49-1.77-4.01-1.77s-2.62.72-2.62,2.03,1.1,1.77,2.03,2.16l2.95,1.21c2.49,1.03,3.47,2.41,3.47,4.62"/>
    <path class="cls-2" d="M87.71,41.84l.92,2.41c-.26.23-1.54,1.67-4.86,1.67s-6.53-2.34-6.53-6.4,3.24-6.55,6.58-6.55c3.14,0,4.37,1.26,4.7,1.59l-.9,2.47c-.39-.36-1.49-1.31-3.42-1.31s-3.52,1.36-3.52,3.65,1.57,3.78,3.7,3.78,3.31-1.31,3.31-1.31"/>
    <path class="cls-2" d="M96.39,35.62c-2.16,0-3.34,1.64-3.34,3.78s1.18,3.8,3.34,3.8,3.34-1.67,3.34-3.8-1.23-3.78-3.34-3.78M89.63,39.47c0-3.93,2.93-6.5,6.76-6.5s6.73,2.57,6.73,6.5-2.93,6.45-6.73,6.45-6.76-2.52-6.76-6.45"/>
    <path class="cls-2" d="M110.73,43.17c.67,0,1.18-.21,1.18-.21l.18,2.54c-.15.05-1.13.41-2.52.41-2.54,0-3.6-1.16-3.6-4.39v-5.76h-1.85v-2.54h1.85v-3.55h3.26v3.55h2.88v2.54h-2.88v5.04c0,1.9.33,2.36,1.49,2.36"/>
  </g>
  <rect class="cls-2" x="114.12" y="27.91" width="3.26" height="17.73"/>
  <g class="cls-3">
    <path class="cls-2" d="M122.71,41.91c0,1.05.8,1.77,2.16,1.77,1.29,0,2.24-.75,2.67-1.36v-2.29l-2.24.13c-1.75.1-2.6.69-2.6,1.75M123.79,45.92c-2.42,0-4.37-1.31-4.37-3.9s2.54-3.6,5.11-3.78l2.98-.21v-.33c0-1.59-1.05-2.34-2.78-2.34s-3.01.62-3.55,1.03l-1-2.11c.95-.57,2.7-1.31,4.86-1.31s3.47.57,4.39,1.44c.9.87,1.36,2,1.36,4.11v7.12h-3.16l-.05-1.44c-.51.9-1.95,1.72-3.8,1.72"/>
    <path class="cls-2" d="M139.19,35.67c-2.03,0-2.72,1.7-2.72,3.78v6.19h-3.29v-12.43h3.29l-.02,1.88h.08c.67-1.31,1.93-2.11,3.73-2.11,3.57,0,4.47,2.31,4.47,5.29v7.37h-3.29v-6.65c0-1.85-.33-3.31-2.23-3.31"/>
    <path class="cls-2" d="M156.68,39.4c0-2.08-1.36-3.9-3.47-3.9s-3.37,1.82-3.37,3.9,1.34,3.85,3.47,3.85c1.98,0,3.37-1.52,3.37-3.85M156.66,43.69c-1,1.59-2.54,2.24-4.27,2.24-3.65,0-5.88-2.83-5.88-6.53s2.34-6.42,6.11-6.42c1.67,0,3.08.62,3.96,1.95h.05c-.03-.57-.03-1.23-.03-2.11v-4.91h3.26v17.73h-3.11l-.03-1.95h-.08Z"/>
    <path class="cls-2" d="M27.21,43.82c-.33.15-.69.23-1.06.23s-.73-.08-1.06-.23c-.33-.15-5.21-2.47-9.88-7.14,1.59-.85,3.02-1.8,4.33-2.83,2.61,2.44,5.21,4.06,6.61,4.85,2.87-1.62,10.8-6.73,13.54-15.29,0,0,.48-1.58.4-3.34-.12-2.51-1.25-3.34-2.09-3.75-3.13-1.51-6.8,1.58-6.83,1.61,0,0,0,0,0,0-1.26-1.64-2.4-2.88-3.33-3.79.06-.05.11-.08.16-.11.94-.77,6.48-4.99,12.19-2.24,3.05,1.47,4.8,4.39,4.94,8.21.09,2.56-.56,4.7-.63,4.93-4.05,12.62-16.73,18.63-17.27,18.88M21.4,18.14c-.08-.06-.18-.13-.26-.2-.03-.02-3.7-3.12-6.83-1.61-.84.4-1.97,1.23-2.09,3.75-.08,1.76.4,3.34.4,3.36.33,1.04.75,2.03,1.22,2.97-1.29,1.03-2.71,1.91-4.3,2.62-.69-1.33-1.27-2.69-1.71-4.08-.08-.24-.73-2.38-.64-4.94.13-3.82,1.89-6.74,4.94-8.21,5.71-2.75,11.26,1.47,12.19,2.24.66.47,3.14,2.38,6.26,6.83,1.6,2.28,3.24,4.3,5.09,6.02-.91,1.49-1.96,2.82-3.07,4-2.41-2.17-4.37-4.62-6.14-7.13-2.89-4.11-5.04-5.6-5.06-5.62M40.71,35.98c1.08-1.27,2.1-2.68,3.03-4.21,2.2.77,4.69,1.29,7.6,1.54.64-2.27.99-4.67.99-7.14C52.33,11.71,40.61,0,26.16,0S0,11.71,0,26.16c0,2.47.35,4.86.99,7.13,10.42-.89,15.67-5.31,20.51-12.12.8.81,1.9,2.06,3.16,3.85.04.06.09.12.13.18-4.53,6.08-10.54,11.57-21.88,12.96,4.35,8.41,13.12,14.17,23.25,14.17s18.9-5.76,23.25-14.17c-3.33-.4-6.2-1.16-8.71-2.18"/>
  </g>
</svg>