<?xml version="1.0" encoding="UTF-8"?>
<svg id="Layer_1" data-name="Layer 1" xmlns="http://www.w3.org/2000/svg" xmlns:xlink="http://www.w3.org/1999/xlink" viewBox="0 0 136.19 53.9">
  <defs>
    <style>
      .cls-1 {
        fill: none;
      }

      .cls-2 {
        fill: #464d53;
      }

      .cls-3 {
        clip-path: url(#clippath-1);
      }

      .cls-4 {
        clip-path: url(#clippath-2);
      }

      .cls-5 {
        fill: #888d8d;
      }

      .cls-6 {
        fill: #fff;
      }

      .cls-7 {
        clip-path: url(#clippath);
      }

      .cls-8 {
        fill: #bfbebe;
      }
    </style>
    <clipPath id="clippath">
      <rect class="cls-1" width="136.18" height="53.9"/>
    </clipPath>
    <clipPath id="clippath-1">
      <rect class="cls-1" width="136.18" height="53.9"/>
    </clipPath>
    <clipPath id="clippath-2">
      <rect class="cls-1" width="136.18" height="53.9"/>
    </clipPath>
  </defs>
  <rect class="cls-2" x="87.92" width="22.91" height="6.09"/>
  <rect class="cls-5" x="90.72" width="2.95" height="6.09"/>
  <rect class="cls-5" x="105.16" width="2.82" height="6.09"/>
  <rect class="cls-5" x="113.17" width="22.91" height="6.09"/>
  <rect class="cls-2" x="114.55" width="20.17" height="6.09"/>
  <rect class="cls-6" x="118.92" width="11.46" height="6.09"/>
  <rect class="cls-2" x="120.33" width="8.61" height="6.09"/>
  <rect class="cls-2" x="62.66" width="22.91" height="6.09"/>
  <rect class="cls-8" x="68.39" width="1.43" height="6.09"/>
  <rect class="cls-8" x="64.08" width="2.87" height="6.09"/>
  <rect class="cls-8" x="78.42" width="1.43" height="6.09"/>
  <rect class="cls-8" x="81.29" width="2.87" height="6.09"/>
  <polygon class="cls-2" points="0 9.71 0 33.32 17.91 33.32 17.91 27.72 6.51 27.72 6.51 23.78 16.49 23.78 16.49 18.92 6.51 18.92 6.51 15.31 17.81 15.31 17.81 9.71 0 9.71"/>
  <g class="cls-7">
    <path class="cls-2" d="M30.66,20.37c1.99,0,3.2-.98,3.2-2.8s-1.28-2.8-3.2-2.8h-4.01v5.6h4.01ZM20.1,9.71h10.62c7.25,0,9.68,3.78,9.68,7.76,0,2.7-1.22,5.09-3.98,6.41l4.22,9.44h-6.91l-3.1-8.36h-3.98v8.36h-6.54V9.71Z"/>
    <path class="cls-2" d="M44.48,26c2.12,1.21,4.65,2.09,6.74,2.09,1.72,0,2.77-.64,2.77-1.65,0-3.17-12.04-.91-12.04-9.81,0-4.01,3.31-7.35,9.01-7.35,3.03,0,5.87.78,8.87,2.16l-2.36,5.02c-2.29-1.15-4.35-1.55-6.17-1.55-1.65,0-2.6.71-2.6,1.65,0,3.1,12.04.78,12.04,9.78,0,4.15-3.17,7.42-9.48,7.42-3.61,0-7.56-1.28-9.85-2.73l3.07-5.03Z"/>
  </g>
  <polygon class="cls-2" points="62.66 9.71 69.21 9.71 69.21 19.6 76.83 9.71 83.81 9.71 76.79 18.31 84.45 33.32 77.23 33.32 72.65 23.44 69.21 27.69 69.21 33.32 62.66 33.32 62.66 9.71"/>
  <rect class="cls-2" x="85.39" y="9.71" width="6.54" height="23.61"/>
  <polygon class="cls-2" points="94.53 9.71 100.71 9.71 109.54 23.14 109.54 9.71 115.68 9.71 115.68 33.32 109.54 33.32 100.67 19.97 100.67 33.32 94.53 33.32 94.53 9.71"/>
  <polygon class="cls-2" points="118.28 9.71 118.28 33.32 136.19 33.32 136.19 27.72 124.79 27.72 124.79 23.78 134.77 23.78 134.77 18.92 124.79 18.92 124.79 15.31 136.08 15.31 136.08 9.71 118.28 9.71"/>
  <polygon class="cls-2" points="9.6 37.35 5.59 48.9 1.6 37.35 0 37.35 4.91 51.01 6.25 51.01 11.13 37.35 9.6 37.35"/>
  <g class="cls-3">
    <path class="cls-2" d="M18.37,45.33c-.1-1.92-1.01-3.49-2.65-3.49-1.49,0-2.62,1.38-2.75,3.49h5.41ZM11.54,45.95v-.1c0-3.08,1.8-5.23,4.17-5.23,2.54,0,4.05,2.17,4.05,5.22,0,.13,0,.41-.02.58h-6.78c.15,2.23,1.53,3.47,3.12,3.47,1.11,0,1.92-.46,2.62-1.16l.8.89c-.91.93-1.96,1.51-3.47,1.51-2.46,0-4.48-1.98-4.48-5.18"/>
    <path class="cls-2" d="M22.42,48.57v-6.51h-1.22v-1.24h1.22v-2.95h1.4v2.95h2.64v1.24h-2.64v6.28c0,1.07.58,1.45,1.45,1.45.39,0,.78-.1,1.18-.27v1.2c-.45.21-.93.35-1.51.35-1.43,0-2.52-.7-2.52-2.5"/>
    <path class="cls-2" d="M34.73,45.33c-.1-1.92-1.01-3.49-2.66-3.49-1.49,0-2.62,1.38-2.75,3.49h5.41ZM27.9,45.95v-.1c0-3.08,1.8-5.23,4.17-5.23,2.54,0,4.05,2.17,4.05,5.22,0,.13,0,.41-.02.58h-6.78c.16,2.23,1.53,3.47,3.12,3.47,1.1,0,1.92-.46,2.62-1.16l.8.89c-.91.93-1.96,1.51-3.47,1.51-2.46,0-4.48-1.98-4.48-5.18"/>
    <path class="cls-2" d="M38.37,40.82h1.4v2.23c.6-1.41,1.82-2.44,3.47-2.36v1.51h-.08c-1.88,0-3.39,1.32-3.39,3.92v4.81h-1.4v-10.1Z"/>
    <path class="cls-2" d="M50.43,47.41v-1.26c-.64-.23-1.45-.41-2.44-.41-1.61,0-2.5.83-2.5,2.11v.06c0,1.26.95,2.05,2.15,2.05,1.55.02,2.79-1.08,2.79-2.56M44.09,47.99v-.08c0-2.08,1.49-3.26,3.72-3.26,1.07,0,1.84.17,2.6.41v-.6c0-1.63-.95-2.5-2.58-2.5-1.01,0-1.88.31-2.58.68l-.45-1.14c.95-.47,1.94-.81,3.18-.81s2.17.35,2.83,1.01c.62.62.97,1.55.97,2.73v6.49h-1.38v-1.47c-.6.95-1.59,1.69-3.08,1.69-1.69,0-3.24-1.14-3.24-3.14"/>
    <path class="cls-2" d="M54.5,40.82h1.4v1.65c.56-1.01,1.47-1.84,2.98-1.84,2.06,0,3.3,1.41,3.3,3.68v6.61h-1.4v-6.22c0-1.8-.85-2.81-2.33-2.81s-2.56,1.16-2.56,2.89v6.14h-1.4v-10.1Z"/>
    <path class="cls-2" d="M64,49.67l.74-1.03c.95.79,1.94,1.22,2.95,1.22,1.1,0,1.88-.62,1.88-1.57v-.02c0-.89-.83-1.36-2.19-1.92-1.61-.7-2.89-1.34-2.89-2.91v-.04c0-1.65,1.34-2.75,3.14-2.75,1.14,0,2.33.45,3.18,1.09l-.68,1.07c-.78-.56-1.65-.95-2.54-.95-1.07,0-1.74.62-1.74,1.41v.04c0,.85.87,1.28,2.25,1.86,1.67.74,2.83,1.43,2.83,2.97v.04c0,1.8-1.45,2.91-3.28,2.91-1.24,0-2.58-.48-3.64-1.41"/>
    <path class="cls-2" d="M77.9,44.21v-.12c0-4.11,2.56-6.94,5.95-6.94,1.86,0,3.06.68,4.13,1.67l-.89,1.11c-.85-.81-1.88-1.41-3.26-1.41-2.5,0-4.42,2.29-4.42,5.56v.08c0,3.33,1.92,5.6,4.42,5.6,1.4,0,2.38-.58,3.35-1.51l.87,1.01c-1.14,1.12-2.44,1.86-4.3,1.86-3.35,0-5.85-2.77-5.85-6.9"/>
    <path class="cls-2" d="M90.15,36.92h1.4v5.54c.56-1.01,1.47-1.84,2.99-1.84,2.06,0,3.29,1.41,3.29,3.68v6.61h-1.39v-6.22c0-1.8-.85-2.81-2.33-2.81s-2.56,1.16-2.56,2.89v6.15h-1.4v-14Z"/>
    <path class="cls-2" d="M106.24,47.41v-1.26c-.64-.23-1.45-.41-2.44-.41-1.61,0-2.5.83-2.5,2.11v.06c0,1.26.95,2.05,2.15,2.05,1.55.02,2.79-1.08,2.79-2.56M99.9,47.99v-.08c0-2.08,1.49-3.26,3.72-3.26,1.07,0,1.84.17,2.6.41v-.6c0-1.63-.95-2.5-2.58-2.5-1.01,0-1.88.31-2.58.68l-.45-1.14c.95-.47,1.94-.81,3.18-.81s2.17.35,2.83,1.01c.62.62.97,1.55.97,2.73v6.49h-1.38v-1.47c-.6.95-1.59,1.69-3.08,1.69-1.69,0-3.24-1.14-3.24-3.14"/>
    <path class="cls-2" d="M110.31,40.82h1.4v2.23c.6-1.41,1.82-2.44,3.47-2.36v1.51h-.08c-1.88,0-3.39,1.32-3.39,3.92v4.81h-1.4v-10.1Z"/>
  </g>
  <path class="cls-2" d="M117.23,40.82h1.4v10.1h-1.4v-10.1ZM117.16,37.09h1.55v1.65h-1.55v-1.65Z"/>
  <g class="cls-4">
    <path class="cls-2" d="M122.06,48.57v-6.51h-1.22v-1.24h1.22v-2.95h1.4v2.95h2.64v1.24h-2.64v6.28c0,1.07.58,1.45,1.45,1.45.39,0,.78-.1,1.18-.27v1.2c-.45.21-.93.35-1.51.35-1.43,0-2.52-.7-2.52-2.5"/>
    <path class="cls-2" d="M134.68,40.82h1.49l-3.59,10.27c-.72,2.09-1.59,2.81-2.95,2.81-.64,0-1.24-.15-1.82-.47l.43-1.16c.39.21.81.37,1.32.37.76,0,1.24-.43,1.75-1.73l-3.88-10.1h1.51l3.02,8.32,2.71-8.32Z"/>
  </g>
</svg>