<?xml version="1.0" encoding="UTF-8"?>
<svg id="Layer_1" data-name="Layer 1" xmlns="http://www.w3.org/2000/svg" xmlns:xlink="http://www.w3.org/1999/xlink" viewBox="0 0 166.53 71.56">
  <defs>
    <style>
      .cls-1 {
        fill: none;
      }

      .cls-2 {
        fill: #464d53;
      }

      .cls-3 {
        clip-path: url(#clippath-1);
      }

      .cls-4 {
        clip-path: url(#clippath);
      }
    </style>
    <clipPath id="clippath">
      <rect class="cls-1" width="166.53" height="71.56"/>
    </clipPath>
    <clipPath id="clippath-1">
      <rect class="cls-1" width="166.53" height="71.56"/>
    </clipPath>
  </defs>
  <g class="cls-4">
    <path class="cls-2" d="M146.83,34.67c4-4.67,8.17-6.2,13.24-5.56-6.11,6.7-10.98,2.92-13.24,5.56M165.38,26.65c-5.4-.69-10.12-.29-14.73,2.4-5.03,2.94-9.41,8.8-10.11,13.95h.68c2.95-6.66,6.95-7.01,10.3-7.4,3.46-.4,7.76-.89,14.22-7.95l.78-.85-1.15-.14Z"/>
    <path class="cls-2" d="M159.28,7.12c-13.35,6.56-13.48,14.01-14.72,19.28-.31,1.34-1.05,4.17-1.51,5.42,0,0,3.27-2.43,4.31-3.21,4.49-3.35,9.96-5.86,12.78-20.64l.29-1.41-1.15.57Z"/>
    <path class="cls-2" d="M131.64,1.15c-1.23,12.04,1.24,14.64,3.49,18.28,2.33,3.78,5.59,5.74,5.08,12.85v.07c5.29-11.75,2.67-22.68-7.58-31.6L131.76,0l-.12,1.15Z"/>
    <path class="cls-2" d="M81.78,52c.09-3.01,2.93-4.91,6.58-4.87h.38s0,7.74,0,7.74l-.1.1c-.91.99-1.84,1.41-3.13,1.41-2.21,0-3.8-2.07-3.73-4.39M76.28,41.72c0,1.89,1.16,3.02,3.09,3.02,1.35,0,2.75-.85,2.75-2.27,0-.92-.4-1.4-.78-1.87-.31-.37-.62-.75-.62-1.27,0-.98,1.56-2.04,3.88-2.04,2.78,0,4.13,1.55,4.13,4.73v3.61h-.38c-5.6-.07-9.3.86-11.29,2.83-1.19,1.18-1.77,2.71-1.77,4.69,0,1.87.62,3.49,1.78,4.69,1.2,1.23,3.02,1.91,5.14,1.91,2.71,0,4.56-.81,6.17-2.7l.45-.52.2.66c.52,1.72,1.91,2.58,4.13,2.58,1.91,0,4.02-1.05,5.57-2.75-.15-.22-.29-.43-.47-.7-.66.52-1.3.79-1.93.79-.31,0-1.31-.12-1.31-1.7v-12.23c0-4.97-3.12-7.39-9.55-7.39-5.5,0-9.19,2.4-9.19,5.95"/>
    <path class="cls-2" d="M27.68,29.99c0,1.94,1.58,3.51,3.52,3.51s3.51-1.57,3.51-3.51-1.57-3.51-3.51-3.51-3.52,1.58-3.52,3.51"/>
    <path class="cls-2" d="M0,25.34v.65c1.34.05,2.23.31,2.76.81.56.55.81,1.39.81,2.74v25.81c0,1.32-.23,1.89-.81,2.45-.59.56-1.45.71-2.61.75v.64h13.8v-.64c-1.16-.04-2.03-.19-2.61-.74-.58-.57-.82-1.13-.82-2.46v-12.2h7.42c2.6,0,3.37,1.37,3.66,3.59h.66v-9.47h-.65c-.2,1.83-.87,3.6-3.68,3.6h-7.42v-13.27h5.96c2.92,0,4.52.45,5.7,1.61,1.02,1,1.64,2.51,1.93,4.73h.66v-8.6H0Z"/>
    <path class="cls-2" d="M110.91,36.33v.7c.81.15,1.51.37,1.92.74.53.47.69,1.07.69,2.32v13.28l-.05.09c-.88,1.43-2.73,2.87-4.56,2.87-2.25,0-3.21-1.09-3.21-3.63v-14.6c0-.6-.15-1.06-.46-1.37-.42-.42-1.02-.41-1.03-.41h-7.68v.64c1.07.13,1.66.32,2.11.73.53.46.79,1.32.79,2.62v12.34c0,4.62,2.28,7.06,6.59,7.06,3.56,0,5.61-1.52,6.83-3.17l.68-.96v6.75s-.03,1.95-.04,2.28c-.15,3.42-1.61,5.49-4.51,5.52-2.52.03-4.08-1.42-4.4-3.96-.07-.6-.09-1.09-.16-1.48-.09-.49-.39-.91-.87-1.21-.73-.46-1.75-.58-2.76-.32-.62.16-1.08.55-1.33,1.12-.38.88-.22,2.12.42,3.31,1.36,2.47,4.71,3.95,8.97,3.95,6.68,0,10.95-4.08,10.95-11.2v-20.05c0-1.3.12-2.08.7-2.54.47-.38.93-.57,1.93-.77v-.67h-11.53Z"/>
    <path class="cls-2" d="M136.58,46.4c-.65-.39-1.43-.78-2.32-1.18l-2.89-1.29c-1.39-.62-2.34-1.23-2.83-1.82-.51-.57-.77-1.15-.77-1.72,0-.7.29-1.35.86-1.96.57-.6,1.45-.91,2.61-.91,1.51,0,2.82.52,3.97,1.51,1.32,1.13,2.09,2.41,2.65,3.99h.69v-7.1h-.71c-.12.3-.27.54-.45.71-.18.17-.48.25-.92.25-.31,0-1.09-.17-2.35-.51-1.26-.34-2.44-.51-3.56-.51-2.56,0-4.56.69-5.98,2.07-1.43,1.38-2.14,3.02-2.14,4.92,0,1.5.45,2.8,1.37,3.9.89,1.1,2.37,2.12,4.43,3.06l3.92,1.77c.84.38,1.45.74,1.83,1.08.69.62,1.03,1.37,1.03,2.25,0,.92-.32,1.67-.96,2.24-.64.57-1.63.85-2.99.85-1.48,0-2.92-.49-4.34-1.45-1.58-1.07-2.59-2.62-3.11-4.97h-.79v8.12h.81c.28-.51.52-.88.74-1.1.21-.22.47-.33.76-.33.12,0,.22,0,.29.02.08.02.28.08.61.19l.9.29c1.05.34,1.93.57,2.64.71.09.02.18.03.27.04.25.04.5.08.74.11.03,0,.06,0,.09.01.62.07,1.23.1,1.74.1,4.43,0,8.03-3.22,8.03-7.19,0-2.61-1.56-4.89-3.88-6.15"/>
    <path class="cls-2" d="M46.29,40.06v-3.73h-8.69v.67c.92.2,1.47.36,2.01.84.48.43.64,1.19.64,2.42v14.86c0,1.3-.26,2.16-.8,2.63-.47.42-1.4.8-2.05.8-.74,0-1.58-.38-2.05-.81-.53-.46-.79-1.32-.79-2.62v-18.78h-8.9v.68c.88.18,1.71.51,2.05.92.56.68.59,1.21.59,2.48v14.71c0,1.27.03,1.85-.62,2.58-.31.34-.93.64-2.03.86v.63h23.54v-.64c-1.39-.3-1.72-.58-2.06-.91-.42-.4-.6-1.06-.6-2.31v-13.2l.06-.09c.88-1.43,2.74-2.88,4.58-2.88,2.25,0,3.21,1.09,3.21,3.64v12.53c0,1.23-.21,1.97-.62,2.37-.35.33-1.13.69-2.02.84v.64h23.5v-.67c-.72-.18-1.38-.24-2.02-.84-.53-.5-.6-1.3-.6-2.55v-29.78h-8.92v.66c1.02.26,1.54.38,2.01.85.53.53.64,1.2.64,2.41v25.86c0,1.25-.22,2.07-.67,2.51-.36.34-1.27.87-2.2.87-.95,0-1.65-.32-2.06-.66-.48-.41-.72-1.23-.72-2.5v-12.5c0-4.57-2.35-7.11-6.61-7.08-4.7.03-6.41,2.15-7.74,4.25l-.02.04Z"/>
  </g>
  <rect class="cls-2" x=".15" y="67.13" width="40.2" height=".29"/>
  <rect class="cls-2" x="123.52" y="67.13" width="16.95" height=".29"/>
  <g class="cls-3">
    <path class="cls-2" d="M45,70.73v-1.37h.5v.09c.01.16.02.28.02.36,0,.25.1.44.31.57.34.21.72.32,1.13.32s.76-.12,1-.36c.24-.24.36-.58.36-1,0-.36-.08-.64-.23-.86-.15-.21-.45-.44-.9-.69l-.5-.29c-1.09-.61-1.64-1.29-1.64-2.02,0-.55.2-1,.59-1.36.39-.36.89-.54,1.48-.54.26,0,.53.02.83.07.3.05.62.13.97.23v1.26h-.53v-.08c-.01-.17-.02-.3-.02-.38,0-.27-.1-.47-.29-.6-.19-.12-.5-.19-.91-.19-.34,0-.62.11-.84.34-.21.22-.32.52-.32.89,0,.31.07.57.22.78.15.2.42.42.8.64l.5.29c.7.4,1.17.74,1.42,1.04.24.3.37.67.37,1.11,0,.59-.22,1.09-.66,1.48-.44.39-.99.59-1.65.59-.39,0-.75-.03-1.08-.08-.33-.06-.64-.14-.93-.24"/>
    <path class="cls-2" d="M51.79,65.64v3.98c0,.44.03.7.1.78.07.08.3.14.69.16h.09v.3h-2.73v-.3h.09c.39-.03.62-.09.69-.17.07-.09.11-.34.11-.78v-2.73c0-.43-.04-.69-.11-.77-.07-.08-.3-.14-.69-.17h-.09v-.3h1.84Z"/>
    <path class="cls-2" d="M55.23,66.62c.24-.37.52-.64.83-.82.31-.18.67-.28,1.05-.28.45,0,.8.15,1.06.44.25.3.38.7.38,1.22v2.44c.02.48.06.75.11.81.05.06.28.11.69.13h.09v.3h-2.73v-.3h.09c.41-.03.64-.08.69-.14.05-.06.09-.33.11-.81v-2.29c0-.45-.06-.76-.18-.94-.12-.18-.33-.26-.63-.26-.21,0-.45.07-.71.2-.26.13-.55.33-.86.61v2.68c0,.43.03.69.1.78.07.08.3.14.69.16h.09v.3h-2.73v-.3h.09c.39-.03.62-.09.69-.17.07-.09.11-.35.11-.78v-2.73c0-.43-.04-.69-.11-.77-.07-.08-.3-.14-.69-.17h-.09v-.3h1.84v.98Z"/>
    <path class="cls-2" d="M63.95,70.69c-.5.2-.99.3-1.47.3-.76,0-1.38-.26-1.86-.77-.47-.51-.71-1.17-.71-1.99s.23-1.47.69-1.97c.46-.49,1.07-.74,1.83-.74.39,0,.9.08,1.53.24v1.25h-.59v-.09c0-.72-.32-1.08-.95-1.08-.46,0-.82.21-1.09.63-.27.42-.41.98-.41,1.69s.16,1.3.48,1.73c.32.42.76.63,1.31.63.47,0,.89-.08,1.26-.24v.41Z"/>
    <path class="cls-2" d="M66.02,67.75h2.17v-.21c0-.61-.07-1.04-.23-1.31-.16-.27-.41-.4-.77-.4s-.64.17-.85.53c-.21.35-.32.82-.32,1.4M69.19,70.63c-.6.24-1.15.36-1.65.36-.77,0-1.39-.26-1.87-.78-.48-.52-.72-1.19-.72-2.01s.22-1.42.65-1.93.98-.75,1.65-.75c.62,0,1.1.21,1.44.63.34.42.5,1.02.5,1.8v.09h-3.19c0,.82.14,1.43.43,1.85.28.42.71.62,1.26.62.59,0,1.09-.12,1.5-.36v.49Z"/>
    <path class="cls-2" d="M76.07,63.69v5.94c0,.55.06.84.18.87.2.05.41.08.62.08h.56v.3h-3.68v-.3h.56c.21,0,.42-.03.62-.08.12-.03.18-.32.18-.87v-4.54c0-.3-.02-.52-.05-.64-.04-.12-.1-.18-.18-.18-.1,0-.32.03-.66.09l-.48.09v-.29l2.31-.46Z"/>
    <path class="cls-2" d="M79.34,70.87c.09-.5.22-.96.4-1.37.22-.52.46-.97.71-1.36s.86-1.23,1.83-2.54l.72-.96h-4.01v-.89h4.57v.62c-1.04,1.39-1.8,2.59-2.28,3.61-.48,1.01-.75,1.98-.81,2.89h-1.13Z"/>
    <path class="cls-2" d="M84.89,70.88v-1.2h.48v.12c0,.38.07.63.2.76.13.13.38.2.75.2.45,0,.8-.17,1.06-.52.26-.35.39-.81.39-1.41,0-.71-.2-1.2-.61-1.48-.41-.28-1.12-.42-2.13-.42v-3.18h3.59v.83h-3.3v1.99h.44c1,0,1.75.19,2.25.57.5.38.75.95.75,1.72,0,.69-.23,1.22-.69,1.61-.46.39-1.1.58-1.92.58-.4,0-.82-.06-1.25-.16"/>
    <path class="cls-2" d="M92.57,70.75c.47,0,.85-.28,1.11-.85.25-.51.37-1.38.37-2.59s-.12-2.09-.37-2.59c-.27-.57-.65-.86-1.13-.86-.46,0-.82.29-1.1.86-.24.51-.36,1.37-.36,2.59s.12,2.08.36,2.59c.27.57.64.85,1.11.85M92.57,71.05c-.75,0-1.36-.34-1.81-1.01-.45-.68-.68-1.58-.68-2.7s.23-2.06.68-2.74c.45-.68,1.06-1.02,1.82-1.02s1.36.34,1.82,1.02c.45.68.68,1.59.68,2.74s-.23,2.03-.68,2.71c-.45.68-1.06,1.01-1.81,1.01"/>
    <path class="cls-2" d="M51.84,64.29c0,.32-.26.58-.58.58s-.58-.26-.58-.58.26-.58.58-.58.58.26.58.58"/>
  </g>
</svg>