<?xml version="1.0" encoding="UTF-8"?>
<svg id="Layer_1" data-name="Layer 1" xmlns="http://www.w3.org/2000/svg" xmlns:xlink="http://www.w3.org/1999/xlink" viewBox="0 0 165.38 52.33">
  <defs>
    <style>
      .cls-1 {
        fill: none;
      }

      .cls-2 {
        fill: #464d53;
      }

      .cls-3 {
        clip-path: url(#clippath-1);
      }

      .cls-4 {
        clip-path: url(#clippath-3);
      }

      .cls-5 {
        clip-path: url(#clippath-4);
      }

      .cls-6 {
        clip-path: url(#clippath-2);
      }

      .cls-7 {
        clip-path: url(#clippath-7);
      }

      .cls-8 {
        clip-path: url(#clippath-6);
      }

      .cls-9 {
        clip-path: url(#clippath-5);
      }

      .cls-10 {
        clip-path: url(#clippath);
      }
    </style>
    <clipPath id="clippath">
      <rect class="cls-1" width="165.38" height="52.33"/>
    </clipPath>
    <clipPath id="clippath-1">
      <rect class="cls-1" width="165.38" height="52.33"/>
    </clipPath>
    <clipPath id="clippath-2">
      <rect class="cls-1" width="165.38" height="52.33"/>
    </clipPath>
    <clipPath id="clippath-3">
      <rect class="cls-1" width="165.38" height="52.33"/>
    </clipPath>
    <clipPath id="clippath-4">
      <rect class="cls-1" width="165.38" height="52.33"/>
    </clipPath>
    <clipPath id="clippath-5">
      <rect class="cls-1" width="165.38" height="52.33"/>
    </clipPath>
    <clipPath id="clippath-6">
      <rect class="cls-1" width="165.38" height="52.33"/>
    </clipPath>
    <clipPath id="clippath-7">
      <rect class="cls-1" width="165.38" height="52.33"/>
    </clipPath>
  </defs>
  <rect class="cls-2" x="57.33" y="17.09" width="1.43" height="9.57"/>
  <polygon class="cls-2" points="61.06 17.09 62.33 17.09 67.46 24.34 67.46 17.09 68.82 17.09 68.82 26.66 67.56 26.66 62.42 19.41 62.42 26.66 61.06 26.66 61.06 17.09"/>
  <polygon class="cls-2" points="73.2 18.26 70.17 18.26 70.17 17.09 77.65 17.09 77.65 18.26 74.64 18.26 74.64 26.66 73.2 26.66 73.2 18.26"/>
  <polygon class="cls-2" points="79.02 17.09 84.64 17.09 84.64 18.26 80.45 18.26 80.45 21.21 84.09 21.21 84.09 22.38 80.45 22.38 80.45 25.49 84.75 25.49 84.75 26.66 79.02 26.66 79.02 17.09"/>
  <g class="cls-10">
    <path class="cls-2" d="M93.61,26.04c-.53.26-1.06.46-1.6.59-.54.14-1.07.2-1.61.2-.69,0-1.33-.12-1.91-.37-.58-.25-1.08-.59-1.49-1.02-.42-.44-.74-.96-.97-1.57-.23-.61-.35-1.27-.35-2s.11-1.39.35-2c.23-.61.56-1.13.97-1.56.42-.44.91-.78,1.49-1.02.57-.25,1.21-.37,1.89-.37.96,0,1.92.25,2.86.76v1.36c-.45-.31-.9-.55-1.35-.71-.44-.16-.89-.25-1.33-.25-.5,0-.96.09-1.38.28-.42.19-.79.45-1.09.78-.31.33-.54.73-.71,1.19-.17.46-.25.97-.25,1.53s.08,1.07.25,1.53.4.86.69,1.19c.3.33.65.6,1.06.78.41.19.86.28,1.36.28.3,0,.59-.03.88-.1.29-.07.59-.17.88-.3v-2.53h-2.18v-1.08h3.55v4.39Z"/>
    <path class="cls-2" d="M96.9,21.85h1.49c.29,0,.56-.04.8-.13.25-.09.46-.21.63-.38.17-.16.31-.35.4-.57s.15-.46.15-.73-.05-.5-.15-.72c-.1-.22-.23-.42-.4-.58-.17-.16-.38-.29-.63-.38-.25-.09-.51-.13-.8-.13h-1.49v3.62ZM95.51,17.09h3.1c.47,0,.91.07,1.3.22.39.14.74.34,1.02.6.29.26.51.57.67.93.16.36.24.76.24,1.2,0,.67-.18,1.24-.55,1.73-.37.49-.87.83-1.52,1.02l2.36,3.87h-1.57l-2.22-3.67h-1.44v3.67h-1.39v-9.57Z"/>
  </g>
  <path class="cls-2" d="M105.35,23.02h3.14l-1.57-4.06-1.57,4.06ZM106.32,17.09h1.2l3.8,9.57h-1.42l-.99-2.55h-3.97l-1,2.55h-1.42l3.8-9.57Z"/>
  <polygon class="cls-2" points="113.51 18.26 110.48 18.26 110.48 17.09 117.96 17.09 117.96 18.26 114.94 18.26 114.94 26.66 113.51 26.66 113.51 18.26"/>
  <polygon class="cls-2" points="119.33 17.09 124.95 17.09 124.95 18.26 120.76 18.26 120.76 21.21 124.4 21.21 124.4 22.38 120.76 22.38 120.76 25.49 125.06 25.49 125.06 26.66 119.33 26.66 119.33 17.09"/>
  <g class="cls-3">
    <path class="cls-2" d="M128.17,25.49h1.7c.48,0,.93-.09,1.33-.26.4-.18.75-.42,1.04-.74.29-.32.51-.7.67-1.15.16-.44.24-.93.24-1.46s-.08-1.01-.24-1.46c-.16-.44-.38-.83-.67-1.15-.29-.32-.63-.57-1.04-.74-.4-.18-.85-.26-1.33-.26h-1.7v7.23ZM126.74,17.09h3.21c.68,0,1.3.12,1.88.36.57.24,1.07.57,1.47.99.41.42.73.92.96,1.51.23.58.35,1.23.35,1.93s-.12,1.35-.35,1.93c-.23.58-.55,1.09-.96,1.51-.41.42-.9.75-1.47.99-.58.24-1.2.35-1.88.35h-3.21v-9.57Z"/>
  </g>
  <polygon class="cls-2" points="57.33 29.84 62.95 29.84 62.95 31.01 58.77 31.01 58.77 33.96 62.41 33.96 62.41 35.13 58.77 35.13 58.77 38.24 63.06 38.24 63.06 39.41 57.33 39.41 57.33 29.84"/>
  <polygon class="cls-2" points="64.75 29.84 66.01 29.84 71.15 37.09 71.15 29.84 72.51 29.84 72.51 39.41 71.24 39.41 66.11 32.16 66.11 39.41 64.75 39.41 64.75 29.84"/>
  <polygon class="cls-2" points="78.6 39.41 77.4 39.41 73.61 29.84 75.08 29.84 78 37.39 80.92 29.84 82.4 29.84 78.6 39.41"/>
  <rect class="cls-2" x="83.51" y="29.84" width="1.43" height="9.57"/>
  <g class="cls-6">
    <path class="cls-2" d="M88.63,34.6h1.49c.29,0,.56-.04.8-.13.25-.09.46-.21.63-.38.17-.16.31-.35.4-.57s.15-.46.15-.73-.05-.5-.15-.72c-.1-.22-.23-.42-.4-.58-.17-.16-.38-.29-.63-.38s-.51-.13-.8-.13h-1.49v3.62ZM87.24,29.84h3.1c.47,0,.91.07,1.3.22.39.14.74.34,1.02.6.29.26.51.57.67.93.16.36.24.76.24,1.2,0,.67-.18,1.24-.55,1.73-.37.49-.87.83-1.52,1.02l2.36,3.87h-1.57l-2.22-3.67h-1.44v3.67h-1.39v-9.57Z"/>
    <path class="cls-2" d="M96.26,34.63c0,.55.07,1.05.22,1.51.15.46.36.85.63,1.18.27.33.59.59.97.77.38.19.79.28,1.25.28s.87-.09,1.25-.28.7-.44.97-.77c.27-.33.48-.72.63-1.18.15-.46.22-.96.22-1.51s-.07-1.05-.22-1.51c-.15-.46-.36-.85-.63-1.18-.27-.33-.59-.59-.97-.77-.38-.18-.79-.28-1.25-.28s-.87.09-1.25.28c-.38.19-.7.44-.97.77-.27.33-.48.72-.63,1.18-.15.46-.22.96-.22,1.51M94.79,34.63c0-.72.11-1.39.33-2,.22-.61.53-1.13.93-1.57.4-.44.88-.78,1.43-1.02.56-.24,1.17-.36,1.84-.36s1.28.12,1.84.36c.56.24,1.04.58,1.44,1.02.4.44.72.97.94,1.57.22.61.33,1.27.33,2s-.11,1.39-.33,2c-.22.61-.54,1.13-.94,1.57-.4.44-.88.78-1.44,1.02s-1.17.36-1.84.36-1.28-.12-1.84-.36-1.03-.58-1.43-1.02c-.4-.44-.71-.96-.93-1.57-.22-.61-.33-1.27-.33-2"/>
  </g>
  <polygon class="cls-2" points="105.5 29.84 106.77 29.84 111.9 37.09 111.9 29.84 113.26 29.84 113.26 39.41 112 39.41 106.86 32.16 106.86 39.41 105.5 39.41 105.5 29.84"/>
  <polygon class="cls-2" points="115.56 29.84 116.82 29.84 120.08 34.42 123.32 29.84 124.58 29.84 124.58 39.41 123.22 39.41 123.22 32.16 120.51 35.99 119.62 35.99 116.92 32.16 116.92 39.41 115.56 39.41 115.56 29.84"/>
  <polygon class="cls-2" points="126.86 29.84 132.48 29.84 132.48 31.01 128.3 31.01 128.3 33.96 131.94 33.96 131.94 35.13 128.3 35.13 128.3 38.24 132.59 38.24 132.59 39.41 126.86 39.41 126.86 29.84"/>
  <polygon class="cls-2" points="134.28 29.84 135.54 29.84 140.68 37.09 140.68 29.84 142.04 29.84 142.04 39.41 140.77 39.41 135.64 32.16 135.64 39.41 134.28 39.41 134.28 29.84"/>
  <polygon class="cls-2" points="146.42 31.01 143.39 31.01 143.39 29.84 150.87 29.84 150.87 31.01 147.85 31.01 147.85 39.41 146.42 39.41 146.42 31.01"/>
  <path class="cls-2" d="M152.86,35.77h3.14l-1.57-4.06-1.57,4.06ZM153.83,29.84h1.2l3.8,9.57h-1.42l-.99-2.55h-3.97l-1,2.55h-1.42l3.8-9.57Z"/>
  <polygon class="cls-2" points="159.94 29.84 159.94 39.41 165.38 39.41 165.38 38.24 161.37 38.24 161.37 29.84 159.94 29.84"/>
  <g class="cls-4">
    <path class="cls-2" d="M56.92,50.28c.44.28.87.5,1.31.65.44.15.88.23,1.31.23.6,0,1.09-.14,1.46-.44.37-.29.56-.67.56-1.15,0-.37-.12-.66-.36-.88-.24-.21-.54-.39-.9-.54-.36-.15-.75-.29-1.16-.42-.41-.13-.8-.3-1.16-.51-.36-.21-.66-.48-.9-.81-.24-.33-.36-.77-.36-1.32,0-.4.08-.76.24-1.09.16-.33.38-.61.68-.85s.64-.42,1.04-.55c.4-.13.84-.19,1.34-.19.84,0,1.68.18,2.52.54v1.36c-.81-.49-1.61-.74-2.41-.74-.58,0-1.06.14-1.42.42-.36.28-.54.64-.54,1.08,0,.36.12.64.35.85.24.21.54.38.9.53.36.14.75.28,1.16.42.41.13.8.31,1.16.51.36.21.66.48.9.82.24.34.35.78.35,1.34,0,.41-.08.78-.24,1.12-.16.34-.39.63-.69.88-.3.24-.65.43-1.06.56-.41.13-.86.2-1.35.2-.93,0-1.84-.22-2.74-.65v-1.39Z"/>
    <path class="cls-2" d="M65.46,47.38c0,.55.07,1.05.22,1.51.15.46.36.85.63,1.18.27.33.59.59.97.77.38.19.79.28,1.25.28s.87-.09,1.24-.28c.38-.19.7-.44.97-.77.27-.33.48-.72.63-1.18.15-.46.22-.96.22-1.51s-.07-1.05-.22-1.51c-.15-.46-.36-.85-.63-1.18-.27-.33-.59-.59-.97-.77-.38-.18-.79-.28-1.24-.28s-.87.09-1.25.28c-.38.19-.7.44-.97.77-.27.33-.48.72-.63,1.18-.15.46-.22.96-.22,1.51M63.98,47.38c0-.72.11-1.39.33-2s.53-1.13.93-1.57c.4-.44.88-.78,1.43-1.02.56-.24,1.17-.36,1.84-.36s1.28.12,1.83.36c.56.24,1.04.58,1.44,1.02.4.44.72.97.94,1.57.22.61.33,1.27.33,2s-.11,1.39-.33,2c-.22.61-.53,1.13-.94,1.57-.4.44-.88.78-1.44,1.02-.56.24-1.17.36-1.83.36s-1.28-.12-1.84-.36c-.56-.24-1.03-.58-1.43-1.02-.4-.44-.71-.96-.93-1.57-.22-.61-.33-1.27-.33-2"/>
  </g>
  <polygon class="cls-2" points="74.69 42.59 74.69 52.16 80.13 52.16 80.13 50.99 76.12 50.99 76.12 42.59 74.69 42.59"/>
  <g class="cls-5">
    <path class="cls-2" d="M88.99,48.63c0,.54-.1,1.04-.29,1.49-.19.45-.47.84-.81,1.17-.35.33-.76.58-1.25.76-.48.19-1.01.28-1.59.28s-1.1-.09-1.59-.28c-.48-.18-.9-.44-1.25-.76-.35-.33-.62-.71-.81-1.17-.19-.45-.29-.95-.29-1.49v-6.04h1.43v5.93c0,.38.06.73.19,1.05s.3.59.52.82c.22.23.49.4.79.54.31.13.64.19,1,.19s.69-.07,1-.19c.31-.13.57-.31.79-.54.22-.23.4-.5.52-.82s.19-.67.19-1.05v-5.93h1.43v6.04Z"/>
  </g>
  <polygon class="cls-2" points="90.28 42.59 90.28 43.76 93.32 43.76 93.32 52.16 94.75 52.16 94.75 43.76 97.77 43.76 97.77 42.59 90.28 42.59"/>
  <rect class="cls-2" x="99.13" y="42.59" width="1.43" height="9.57"/>
  <g class="cls-9">
    <path class="cls-2" d="M103.68,47.38c0,.55.07,1.05.22,1.51.15.46.36.85.63,1.18.27.33.59.59.97.77.38.19.79.28,1.25.28s.87-.09,1.25-.28c.38-.19.7-.44.97-.77.27-.33.48-.72.63-1.18.15-.46.22-.96.22-1.51s-.07-1.05-.22-1.51c-.15-.46-.36-.85-.63-1.18-.27-.33-.59-.59-.97-.77-.38-.18-.79-.28-1.25-.28s-.87.09-1.25.28c-.38.19-.7.44-.97.77-.27.33-.48.72-.63,1.18-.15.46-.22.96-.22,1.51M102.2,47.38c0-.72.11-1.39.33-2,.22-.61.53-1.13.93-1.57.4-.44.88-.78,1.43-1.02.56-.24,1.17-.36,1.84-.36s1.28.12,1.84.36c.56.24,1.04.58,1.44,1.02.4.44.72.97.94,1.57.22.61.33,1.27.33,2s-.11,1.39-.33,2c-.22.61-.54,1.13-.94,1.57-.4.44-.88.78-1.44,1.02-.56.24-1.17.36-1.84.36s-1.28-.12-1.84-.36c-.56-.24-1.03-.58-1.43-1.02-.4-.44-.71-.96-.93-1.57-.22-.61-.33-1.27-.33-2"/>
  </g>
  <polygon class="cls-2" points="119.31 42.59 119.31 49.84 114.18 42.59 112.91 42.59 112.91 52.16 114.28 52.16 114.28 44.91 119.41 52.16 120.68 52.16 120.68 42.59 119.31 42.59"/>
  <g class="cls-8">
    <path class="cls-2" d="M122.55,50.28c.44.28.87.5,1.31.65.44.15.88.23,1.31.23.6,0,1.09-.14,1.46-.44.37-.29.56-.67.56-1.15,0-.37-.12-.66-.36-.88-.24-.21-.53-.39-.9-.54-.36-.15-.75-.29-1.16-.42-.41-.13-.8-.3-1.16-.51-.36-.21-.66-.48-.9-.81-.24-.33-.36-.77-.36-1.32,0-.4.08-.76.24-1.09.16-.33.38-.61.67-.85s.64-.42,1.04-.55c.4-.13.84-.19,1.33-.19.84,0,1.68.18,2.52.54v1.36c-.81-.49-1.61-.74-2.41-.74-.58,0-1.06.14-1.42.42-.36.28-.54.64-.54,1.08,0,.36.12.64.35.85.24.21.54.38.9.53.36.14.75.28,1.16.42.41.13.8.31,1.16.51.36.21.66.48.9.82.24.34.35.78.35,1.34,0,.41-.08.78-.24,1.12-.16.34-.39.63-.69.88-.3.24-.65.43-1.06.56-.41.13-.86.2-1.35.2-.93,0-1.84-.22-2.74-.65v-1.39Z"/>
  </g>
  <rect class="cls-2" x="9.82" y="17.11" width="4.35" height="17.94"/>
  <polygon class="cls-2" points="16.99 17.11 28.31 17.11 28.31 20.65 21.35 20.65 21.35 24.23 27.29 24.23 27.29 27.64 21.35 27.64 21.35 31.5 28.52 31.5 28.52 35.05 16.99 35.05 16.99 17.11"/>
  <g class="cls-7">
    <path class="cls-2" d="M30.93,30.33c1.67,1.07,3.42,1.59,5.08,1.59s2.79-.84,2.79-2.06c0-3.05-8.29-1.43-8.29-7.67,0-3.21,2.76-5.4,6.73-5.4,1.64,0,3.34.31,4.98.97v3.81c-1.57-.91-3.16-1.33-4.67-1.33-1.59,0-2.69.76-2.69,1.9,0,2.95,8.27,1.33,8.27,7.67,0,3.29-2.84,5.56-6.81,5.56-1.8,0-3.62-.39-5.4-1.17v-3.86Z"/>
  </g>
  <path class="cls-2" d="M5.1,5.1h42.03v42.03H5.1V5.1ZM0,52.24h52.24V0H0v52.24Z"/>
</svg>