<?xml version="1.0" encoding="UTF-8"?>
<svg id="Layer_1" data-name="Layer 1" xmlns="http://www.w3.org/2000/svg" xmlns:xlink="http://www.w3.org/1999/xlink" viewBox="0 0 145.33 65.33">
  <defs>
    <style>
      .cls-1 {
        fill: none;
      }

      .cls-2 {
        fill: #464d53;
      }

      .cls-3 {
        clip-path: url(#clippath);
      }
    </style>
    <clipPath id="clippath">
      <rect class="cls-1" x="0" y="0" width="145.32" height="65.33"/>
    </clipPath>
  </defs>
  <g class="cls-3">
    <path class="cls-2" d="M96.23,65.33c-13.74,0-26.75-5.06-34.8-13.54-.14-.15-.13-.38.01-.52.15-.14.38-.14.53.01,7.92,8.34,20.73,13.31,34.26,13.31,17.78,0,33.74-8.51,39.72-21.18.09-.18.31-.27.49-.18.19.09.26.31.18.49-6.1,12.92-22.34,21.6-40.4,21.6"/>
    <path class="cls-2" d="M128.82,12.28c-.09,0-.18-.03-.25-.1C120.53,4.91,108.74.74,96.23.74c-10.39,0-20.38,2.89-28.11,8.13-.17.12-.4.07-.52-.1-.12-.17-.07-.4.1-.52C75.56,2.93,85.69,0,96.23,0c12.69,0,24.66,4.24,32.84,11.63.15.14.16.37.03.53-.07.08-.17.12-.28.12"/>
    <path class="cls-2" d="M134.58,25.21c.16,3.14,6.4,3.88,6.61,8.18.18,3.54-3.77,6.59-8.52,6.83-4.54.23-8.02-2.2-8.17-5.4-.14-2.74,1.97-4.55,3.02-4.6.35-.02.56.12.57.47.26,3.29,3.45,5.98,6.35,5.84,1.45-.07,2.21-.81,2.17-1.66-.12-2.5-7.1-3.95-7.33-8.59-.21-4.29,4.86-8.85,10.5-9.13,3.74-.19,5.45,1.88,5.54,3.73.12,2.35-2.39,5.32-4.78,5.44-.95.05-1.82-.36-1.84-.81,0-.1.04-.15.23-.36.29-.31,2.25-2.96,2.17-4.56-.02-.5-.28-.64-.73-.61-2.05.1-5.92,2.8-5.79,5.24"/>
    <path class="cls-2" d="M129.56,18.98s-2.39-2.71-3.92-1c0,0-8.97,12.11-12.25,14.92,0,0-3.42,3.17-2.07-1.25,0,0,2.6-6.98,6.16-10.83,0,0,1.02-1.07-.75-2.64,0,0-1.64-1.6-2.81-.25,0,0-6.83,9.7-8.83,16.31-1.75.79-8.38,3.46-6.33-2.11,1.51-3.67,3.51-7.6,5.62-11.1,2.25-.1,4.4-.25,5-.45.95-.3,1.95-1.6,1.95-2.3,0-.3-.2-.5-.55-.5h-4.35c1.75-2.65,3.55-5,5.15-6.7.15-.1.2-.25.2-.45,0-.95-1.65-2.65-3.15-2.65-1.4,0-4.26,4.4-7.61,9.8h-4.91c-.25,0-.75.95-.75,1.85,0,.85.45,1.65,1.95,1.65l1.57.04c-2.84,5-5.9,10.57-6.47,13.67-2.52.85-5.96,1.39-4.38-2.87,1.56-3.74,3.68-7.6,5.51-9.92.28-.34.25-.83.18-1.17-.25-1.22-1.58-3.13-4.23-3.13-2.35,0-10.15,8.3-14.64,13.99,1.8-4.1,4.8-10.49,6.8-12.94.15-.21.2-.32.2-.45,0-.95-1.6-2.65-3-2.65-1.8,0-10.2,15.34-10.2,19.89,0,2.75,1.45,4.05,2.7,4.05.65,0,1.07-.27,1.45-1.05,1.55-3.05,11.29-14.09,15.89-17.59-2.65,3.1-7.15,10.29-7.15,14.89,0,.49.11.95.29,1.37h0s2.11,6.27,10.72-.14c.27.74,2.74,6.54,12.06-1.03-.27,1.85.08,3.24,1.41,3.78,0,0,4.1,1.89,12.87-10.15,0,0-3.74,12.61-11.93,14.1,0,0-4.03,1.01-10.76.28,0,0,2.1.85,3.74.96,0,0-6.23.53-16.6-2.17,0,0-7.44-2.14-16.63-.11,0,0,1.19.14,2.23.14,0,0-4.13,1.12-5.82,1.59,0,0-2.44.64-3.66-.02,0,0-3.09-1.83-6.53-1,0,0,2.82.02,4.23.85,0,0-2.07-.75-4.18.36-2.92,1.53-4.03,1.5-4.48,1.5,0,0,5.97,5.7,11.96.85,0,0-.49.82-.59,1.61,0,0,4.35-5.91,18.43-4.82,0,0-2.29.06-3.49,1.5,0,0,2.85-1.61,8.83.24,0,0,20.11,7.85,32.08-1.41,0,0-1.67,2.14-2.71,3.06,0,0,5.02-2.07,8.44-10.76,0,0,5.59-13.39,7.94-15.96,0,0,.78-.94.14-1.71"/>
    <path class="cls-2" d="M50.09,42.85c.07-.08.14-.15.21-.24.53-.68.53-1.2.19-1.47-.47-.37-.69.43-1.57-.22-7.58-6.58-3.46-21.36-3.46-21.36.11-.52.1-.83.06-1.14-.2-1.51-1.61-5.09-3.42-4.85-2.37.31-4.76,5.77-11.43,17.83.06-6.21-.54-15.56,1.91-19.22.13-.14.18-.23.16-.38-.11-.81-1.51-2.16-3.08-1.95-.86.11-1.89,1.13-3.09,2.66-.7.9-2.2,3.16-2.2,3.16-5.91,9.29-14.66,26.13-21.46,27.02-1.26.17-1.27-.65-2.02-.55-.71.09-.97.79-.85,1.75.28,2.17,2.57,5.51,6.2,5.03,8.22-1.08,16.28-21.93,20.2-30.39-1.14,6.15-2.13,21.26-1.93,22.78.26,1.97,2.73,3.18,3.89,3.03.35-.05.58-.23.6-.54,5.13-11.34,7.96-16.16,12.06-22.03-3.63,11.6.9,18.66.9,18.66,3.15,5.05,6.21,3.85,7.53,2.92.15-.09.28-.2.42-.32,0,0,.17-.16.19-.19"/>
    <path class="cls-2" d="M75.14,49.91l-2.52-1.63-1.52,1.76,2.07,1.34c.16.1.21.32.11.48-.11.16-.33.2-.48.1l-2.15-1.4-1.83,2.1c-.17.19-.36.19-.52.08-.17-.11-.26-.3-.12-.51.05-.08.12-.15.19-.23l3.82-4.4c.15-.18.36-.2.53-.09l2.81,1.82c.16.1.2.33.1.48-.1.16-.32.2-.48.1"/>
    <path class="cls-2" d="M75.93,54.29l2.43.97.52-3.63h-.02s-2.93,2.67-2.93,2.67ZM78.27,57.79c-.2-.08-.29-.26-.25-.45l.21-1.45-2.78-1.1-1.24,1.13c-.11.11-.25.17-.46.08-.18-.07-.27-.26-.19-.47.03-.06.1-.16.14-.21l4.86-4.38c.22-.2.44-.27.74-.15.29.12.39.33.32.69l-.82,5.97s-.01.08-.03.12c-.08.21-.29.31-.51.22"/>
    <path class="cls-2" d="M86.7,53.97c-.21-.28-.6-.51-1.2-.63l-1.08-.22-.95,2.62,1.18.25c.61.13,1.18.12,1.6-.11.31-.18.53-.46.62-.93.07-.36.03-.7-.18-.97M85.66,59.4l-.96-2.74-.16-.04-1.3-.27-.8,2.24c-.08.23-.26.31-.46.27-.2-.04-.35-.18-.3-.43.02-.09.06-.17.08-.26l1.98-5.51c.08-.22.27-.32.46-.28l1.42.3c.85.18,1.39.5,1.7.89.35.44.44.95.33,1.47-.13.62-.43,1.04-.79,1.29-.39.29-.86.39-1.34.39l.87,2.41c.03.1.05.2.03.29-.04.21-.23.32-.46.28-.19-.04-.26-.15-.31-.31"/>
    <path class="cls-2" d="M96.87,60.14c0,.22-.18.37-.39.36-.22,0-.37-.17-.36-.39l.17-5.05-2.71,4.48c-.09.16-.25.27-.43.26-.24,0-.4-.16-.43-.39l-.9-4.52-1.78,5.09c-.06.18-.21.28-.38.27-.21,0-.36-.14-.35-.37,0-.06.01-.14.05-.23l2.14-5.92c.07-.2.23-.31.42-.3.27.01.39.18.42.39l.96,5.01,3-5.01c.06-.12.2-.23.38-.22.23,0,.41.2.4.43l-.21,6.09Z"/>
    <path class="cls-2" d="M107.17,53.24c-.35-.13-.87-.09-1.28,0l-.96.2.19,3.05,1.23-.25c.59-.12,1.1-.29,1.4-.68.25-.34.37-.75.27-1.23-.11-.54-.4-.92-.86-1.08M108.36,55.98c-.44.51-1.08.76-2.01.95l-1.19.24.13,2.05c.02.25-.12.39-.31.43-.2.04-.4-.03-.45-.28-.02-.09-.02-.18-.03-.28l-.37-5.84c-.02-.24.12-.4.31-.44l1.19-.24c.55-.11,1.29-.2,1.86-.01.69.23,1.15.76,1.33,1.6.14.67-.02,1.32-.45,1.81"/>
    <path class="cls-2" d="M112.22,55.37l2.45-.91-2.04-3.05h-.02s-.39,3.96-.39,3.96ZM116.3,56.41c-.2.08-.39,0-.48-.17l-.82-1.22-2.8,1.04-.17,1.67c0,.15-.07.29-.28.37-.19.07-.37-.01-.45-.22-.02-.07-.04-.19-.03-.25l.69-6.5c.03-.29.15-.5.45-.61.29-.11.51-.01.7.3l3.38,4.99s.05.07.06.1c.08.21-.01.42-.23.51"/>
    <path class="cls-2" d="M119.93,47.88c-.35-.05-.78.05-1.31.37l-.94.58,1.11,2.55,1.03-.64c.53-.33.94-.72,1.08-1.18.1-.34.06-.7-.18-1.1-.19-.31-.45-.53-.8-.58M122.92,52.54l-2.58-1.33-.14.09-1.13.7.97,2.18c.1.22.02.4-.15.51-.18.11-.38.11-.52-.11-.05-.07-.08-.16-.12-.25l-2.36-5.35c-.1-.22-.02-.41.14-.52l1.23-.76c.74-.46,1.35-.6,1.85-.53.56.07.97.39,1.25.84.33.53.4,1.05.32,1.48-.08.48-.36.88-.7,1.21l2.29,1.15c.09.05.17.11.22.19.11.18.06.39-.14.52-.17.1-.29.07-.43,0"/>
    <path class="cls-2" d="M125.39,41.98l.02,3.59,3.85.51c.07.01.14.05.2.1.16.14.18.39.04.55-.1.11-.23.15-.38.12l-3.66-.47v1.14s1.41,1.63,1.41,1.63c.16.19.13.39,0,.53-.16.18-.42.2-.61-.03l-3.95-4.64c-.16-.18-.13-.4-.01-.53.16-.18.42-.19.61.03l1.85,2.18-.11-4.69c0-.1.04-.19.1-.26.13-.15.37-.17.52-.04.1.09.12.19.12.31"/>
    <path class="cls-2" d="M136.7,11.4c-.14-1.04-1.38-1.64-2.15-1.62h0s-.09,0-.13,0c-.01,0-.02,0-.03,0-.89.08-1.59.82-1.59,1.74,0,.1.01.2.03.3h0s0,.02,0,.05c0,0,0,0,0,0,.03.19.1.82-.28,1.6-.59,1.18-1.26,2.37-1.83,3.08-.17.1-.19.17-.18.31.05.36.8.84,1.45.75,1.57-.21,4.9-4.84,4.71-6.23"/>
    <path class="cls-2" d="M59.6,36.26h0c-.05.11,0,.25.11.3.03.01.06.02.1.02.09,0,.17-.05.21-.13.59-1.3.25-1.91.08-2.11-.19-.23-.47-.32-.75-.24-.16.04-.23.14-.26.22-.1.22.04.49.22.82.19.37.44.82.3,1.13M54.03,34.97s.06.02.1.02c.09,0,.17-.05.21-.13.15-.33.75-.58,1.19-.76.45-.19.74-.31.81-.55.03-.1,0-.21-.07-.3-.14-.18-.37-.26-.64-.23-.49.06-1.19.52-1.71,1.65-.05.11,0,.25.11.3M53.66,32.36c2.23-1.13,4.27-.42,4.29-.41l.08.02s2.12.46,2.9,2.35c.28.68.14,1.7-.37,2.74-.53,1.09-1.37,1.98-2.04,2.17-.04.01-.06,0-.06.01-.17-.52-.63-1.45-1.77-1.77h0c-.24-.07-.47-.09-.68-.09-.48,0-.9.13-1.28.25-.57.18-1.11.34-1.85.14-.39-.11-.72-.77-.8-1.64-.14-1.4.36-3.15,1.58-3.77M53.73,23.93c.4-.95.87-1.83,1.39-2.61.25.38.28,1.03-.14,2.13,0,0,3.69-2.89,3.73-5.25.2,1.47-.15,4.15-3.59,7.83,0,0,4.85-2.31,6.02-6.9.45,1.38,2.12,2.71,3.66,3.34.03,1.7-.34,3.65-1.15,5.59-.71,1.69-1.65,3.15-2.69,4.27-1.07-1.08-2.4-1.43-2.67-1.49-.35-.12-2.63-.8-5.16.48-.1.05-.2.11-.3.17-.52-2.06-.26-4.82.89-7.58M55.66,39.58c-.39.04-.84-.23-1.24-.67.24-.05.45-.12.65-.18.49-.15.88-.27,1.32-.15.13.04.24.09.34.15-.31.48-.69.81-1.07.85M47.93,15.24c-.69-.08-1.35-.06-1.93-.03.31.78.43,1.58.77,2.35.02.05.04.1.07.15,0,.02.02.04.03.06.02.05.05.1.08.15,0,.01.01.03.02.04.02.04.05.09.08.13,0,.01.02.03.03.05.03.05.06.1.1.15.01.01.02.03.03.05.03.04.06.09.1.14,0,0,.01.02.02.03.04.05.08.1.13.15.01.01.02.03.04.04.04.05.09.1.14.15,0,0,.02.02.03.03.05.05.09.09.14.13.01.01.02.02.04.03.06.05.11.1.17.15.01.01.03.02.05.04.06.05.12.09.18.14,0,0,.01,0,.02.01.07.05.14.1.22.15.02.01.04.02.05.03.08.05.15.09.23.14.01,0,.03.02.04.02.07.04.15.09.23.13.02,0,.03.02.05.03.09.05.18.09.28.14.02.01.04.02.07.03.1.05.2.09.3.13,0,0,0,0,.01,0,.11.05.22.09.34.13.02.01.05.02.07.03.12.04.23.08.36.13,0,0,.01,0,.02,0-.25.47-.49.97-.71,1.47-.46,1.01-.88,2.2-1.21,3.62,0,0,0-.02.02-.04-1.25,5.41-.03,10.5,3.16,12.87.18.18.38.33.6.42.74,1.49,2.06,2.68,3.44,2.55.76-.07,1.43-.54,1.95-1.21.2.15.45.24.72.24.11,0,.23-.02.34-.05.92-.26,1.91-1.21,2.6-2.46,2.55-1.72,4.86-4.54,6.34-8.09.55-1.32.95-2.65,1.2-3.96.74,1.41,1.07,2.76,1.07,2.76.31-3.19-.07-5.89-.45-7.63.04.01.08.02.11.03,0,0,0,0,.01,0,.08.02.17.04.25.06.02,0,.04,0,.07.01.06,0,.11.02.17.03.03,0,.05,0,.07,0,.06,0,.11.01.16.01.02,0,.04,0,.06,0,.07,0,.14,0,.2,0h0c.07,0,.14,0,.21-.01.02,0,.03,0,.05,0,.05,0,.1-.01.15-.02.02,0,.04,0,.06,0,.05,0,.1-.02.14-.03.02,0,.03,0,.05-.01.06-.01.12-.03.18-.05.63-.18,1.18-.5,1.8-.71-.33-.45-.73-.96-1.26-1.4,5.11-2.21,4.77-8.37,10.18-10.28-6.66.42-6.31,6.83-14.83,6.9-.03-.04-.05-.08-.08-.11-.04-.06-.09-.12-.13-.18-.05-.07-.1-.14-.16-.2-.04-.06-.09-.11-.14-.17-.06-.07-.12-.14-.18-.2-.04-.05-.09-.1-.13-.14-.08-.09-.17-.17-.25-.25-.02-.02-.05-.05-.07-.07-.11-.1-.22-.2-.34-.3-.04-.03-.08-.07-.12-.1-.08-.06-.16-.13-.24-.19-.05-.03-.1-.07-.14-.1-.08-.06-.16-.11-.25-.16-.05-.03-.1-.06-.15-.09-.09-.05-.18-.1-.28-.15-.04-.02-.09-.05-.13-.07-.14-.07-.28-.13-.42-.19-.1-.04-.2-.08-.31-.11,1.34-.61,4.39.45,4.39.45-6.36-4.12-9.7-1.24-10.82.13-.67-.56-2.16-1.26-5.12-.5,0,0,2.48.13,3.27,1.62-.37.27-.74.57-1.1.88-7.45-2.56-5.58-8.37-11.69-10.58,3.79,2.73,3.13,7.09,5.07,10.53"/>
  </g>
</svg>