<?xml version="1.0" encoding="UTF-8"?>
<svg id="Layer_1" data-name="Layer 1" xmlns="http://www.w3.org/2000/svg" xmlns:xlink="http://www.w3.org/1999/xlink" viewBox="0 0 97.14 73.93">
  <defs>
    <style>
      .cls-1 {
        fill: none;
      }

      .cls-2 {
        fill: #464d53;
      }

      .cls-3 {
        clip-path: url(#clippath-1);
      }

      .cls-4 {
        clip-path: url(#clippath-3);
      }

      .cls-5 {
        clip-path: url(#clippath-2);
      }

      .cls-6 {
        fill: #fff;
      }

      .cls-7 {
        clip-path: url(#clippath);
      }
    </style>
    <clipPath id="clippath">
      <rect class="cls-1" x="0" width="97.14" height="73.93"/>
    </clipPath>
    <clipPath id="clippath-1">
      <rect class="cls-1" x="0" width="97.14" height="73.93"/>
    </clipPath>
    <clipPath id="clippath-2">
      <rect class="cls-1" x="0" width="97.14" height="73.93"/>
    </clipPath>
    <clipPath id="clippath-3">
      <rect class="cls-1" x="0" width="97.14" height="73.93"/>
    </clipPath>
  </defs>
  <g class="cls-7">
    <path class="cls-2" d="M70.1,0H9.67v43c21.58,7.7,41.07-2.01,62.23,2.33,7.54,1.55,12.83,4.44,16.54,7.69V18.62C88.43,8.33,80.23,0,70.1,0"/>
  </g>
  <rect class="cls-6" x="20.34" y="24.1" width="3.51" height="15.46"/>
  <g class="cls-3">
    <path class="cls-6" d="M36.56,39.07c-1.35.7-2.44.83-3.36.83-2.81,0-4.7-.97-5.98-2.25-1.37-1.34-2.37-3.38-2.37-5.86s1.01-4.47,2.37-5.82c1.35-1.32,3.31-2.23,5.68-2.23,1,0,2.17.21,3.65.86v4.13c-.78-.83-1.94-1.65-3.56-1.65-1.28,0-2.31.42-3.1,1.2-.84.84-1.44,2.09-1.44,3.57,0,1.6.64,2.74,1.32,3.41.32.32,1.42,1.3,3.29,1.3.91,0,2.15-.26,3.49-1.6v4.1Z"/>
  </g>
  <polygon class="cls-6" points="46.18 27.11 41.09 27.11 41.09 30.1 45.93 30.1 45.93 33.11 41.09 33.11 41.09 36.54 46.18 36.54 46.18 39.56 37.58 39.56 37.58 24.1 46.18 24.1 46.18 27.11"/>
  <polygon class="cls-6" points="47.21 39.56 47.21 24.1 50.27 24.1 58.53 34.07 58.53 24.1 62.05 24.1 62.05 39.56 58.99 39.56 50.72 29.55 50.72 39.56 47.21 39.56"/>
  <rect class="cls-6" x="63.08" y="24.1" width="3.51" height="15.46"/>
  <g class="cls-5">
    <path class="cls-6" d="M45.15,13.21c-.12.92-.61,1.48-1.55,1.77-.34.11-1.22.06-1.35.05v-4.19h1.23c.44,0,.84.19,1.15.55.4.47.6,1.16.52,1.8M47.74,18.78c-.08-.16-.45-.98-.53-1.16.07-.08.11-.18.28-.37.11-.12.17-.2.19-.23,1.01-1.12,1.41-2.07,1.53-3.63.14-1.68-.45-3.37-1.6-4.64-1.12-1.24-2.62-1.92-4.22-1.92h-5.6v15.46h4.44v-5.73l2.93,5.69.02.04h4.21l-1.67-3.51Z"/>
    <path class="cls-6" d="M74.51,13.21c-.12.92-.61,1.48-1.55,1.77-.34.11-1.22.06-1.35.05v-4.19h1.23c.44,0,.84.19,1.15.55.4.47.6,1.16.52,1.8M77.1,18.78c-.08-.16-.45-.98-.53-1.16.07-.08.11-.18.28-.37.11-.12.17-.2.19-.23,1.01-1.12,1.41-2.07,1.53-3.63.14-1.68-.45-3.37-1.6-4.64-1.12-1.24-2.62-1.92-4.22-1.92h-5.6v15.46h4.44v-5.73l2.92,5.69.02.04h4.21l-1.66-3.51Z"/>
  </g>
  <polygon class="cls-6" points="24.57 22.28 20.32 22.28 20.32 11.53 16.37 11.53 16.37 6.83 24.58 6.83 24.57 22.28"/>
  <g class="cls-4">
    <path class="cls-6" d="M37.27,6.83h-4.3v9.73c0,.87-.7,1.58-1.55,1.58h-.75c-.86,0-1.55-.71-1.55-1.58v-.15h0v-5.23h3.41v-4.35h-7.48v4.35h0v6.11c0,2.76,2.2,4.99,4.92,4.99h2.37c2.72,0,4.92-2.24,4.92-4.99V6.83Z"/>
    <path class="cls-6" d="M66.63,10.68v-3.85h-4.22s-4.42,0-4.42,0v6.52l-3.9-6.49v-.02h-4.25v15.46h4.25v-7.22l2.46,4.1s1.64,2.87,4.6,3.12c.13.02.27.02.41.02h.85s4.22,0,4.22,0v-4.6h-4.22v-1.43h4.22v-3.85h-4.22v-1.75h4.22Z"/>
    <path class="cls-2" d="M97.14,73.93s-.97-18.92-25.25-23.9c-24.27-4.98-46.35,8.53-71.9-6.96,0,0,10.63,21.47,49.63,15.55,39-5.92,47.51,15.31,47.51,15.31"/>
  </g>
</svg>