<?xml version="1.0" encoding="UTF-8"?>
<svg id="Layer_1" data-name="Layer 1" xmlns="http://www.w3.org/2000/svg" xmlns:xlink="http://www.w3.org/1999/xlink" viewBox="0 0 154.79 47.91">
  <defs>
    <style>
      .cls-1 {
        fill: none;
      }

      .cls-2 {
        fill: #464d53;
      }

      .cls-3 {
        clip-path: url(#clippath-1);
      }

      .cls-4 {
        clip-path: url(#clippath);
      }
    </style>
    <clipPath id="clippath">
      <rect class="cls-1" y="0" width="154.79" height="47.91"/>
    </clipPath>
    <clipPath id="clippath-1">
      <rect class="cls-1" y="0" width="154.79" height="47.91"/>
    </clipPath>
  </defs>
  <path class="cls-2" d="M41.74,31.77l4.96-.47v4.96l-4.96.47v-4.96ZM1.51,28.01L17.78,9.94h18.92v4.64l-13.06,16.09v2.45L1.51,28.01ZM41.49,0v4h-4.79v3.78h-14.46v-3.67h-2.99V.87h-2.73v3.24h-2.81l-.02,7.9L0,26.69l.11,11.77,8.67,3.14v-9.76l6.41,1.53.06,10.57,9.59,3.47,36.59-4.23v-15.92l-12.09-13.96V4h-4.03V0h-3.81Z"/>
  <g class="cls-4">
    <path class="cls-2" d="M77.3,22.91h-1.65l-.55-.84c-.16.22-.42.44-.77.64-.34.21-.85.31-1.5.31-.53,0-1.04-.1-1.52-.29-.48-.2-.91-.47-1.27-.84-.37-.36-.66-.81-.88-1.34-.21-.53-.32-1.13-.32-1.81V5.73h2.48v13c0,.51.16.94.49,1.28.33.35.75.52,1.26.52s.91-.17,1.24-.52c.34-.35.51-.78.51-1.28V5.73h2.48v17.18Z"/>
    <path class="cls-2" d="M82.89,5.6c.35,0,.64.05.89.14.24.09.44.21.58.35l-.86,2.2c-.24-.14-.45-.21-.61-.21-.51,0-.94.18-1.29.53-.35.36-.52.78-.52,1.27v13.03h-2.48V5.73h1.65l.55,1.08c.14-.28.39-.56.74-.82.35-.26.79-.4,1.35-.4"/>
    <path class="cls-2" d="M89.45,7.86c-.51,0-.96.18-1.35.53-.39.36-.58.78-.58,1.27v9.08c0,.51.19.93.58,1.28.39.35.84.52,1.35.52s.93-.17,1.33-.52c.4-.35.6-.77.6-1.28v-9.08c0-.49-.2-.91-.6-1.27-.4-.35-.84-.53-1.33-.53M93.86,18.74c0,.59-.1,1.15-.31,1.67-.2.52-.49.97-.84,1.36-.36.39-.78.69-1.27.92-.49.22-1.03.34-1.62.34-.65,0-1.2-.1-1.65-.31-.45-.2-.76-.42-.92-.64l-.55.84h-1.65V.82L87.52,0v6.23c.1-.23.37-.42.8-.6.43-.17.92-.26,1.47-.26.59,0,1.14.11,1.64.34.5.23.93.53,1.29.92.36.39.64.84.84,1.36.2.52.31,1.08.31,1.67v9.08Z"/>
    <path class="cls-2" d="M100.94,18.6v-4.89c-.31.2-.68.46-1.1.76-.42.31-.82.67-1.2,1.07-.38.41-.71.89-.97,1.44-.27.55-.4,1.17-.4,1.86,0,.51.17.94.52,1.28.35.35.78.52,1.29.52s.92-.21,1.29-.64c.37-.43.56-.9.56-1.41M103.42,22.91h-1.66l-.55-.98c-.21.37-.51.66-.92.87-.41.22-.97.32-1.69.32-.47,0-.93-.09-1.38-.28-.45-.19-.86-.44-1.21-.78-.36-.34-.65-.75-.88-1.25-.23-.5-.34-1.07-.34-1.7,0-.9.11-1.69.34-2.37.22-.69.51-1.29.86-1.82.35-.53.75-1,1.2-1.41.45-.41.91-.78,1.37-1.12.46-.34.9-.65,1.31-.95.41-.29.77-.6,1.08-.93v-.86c0-.49-.12-.91-.37-1.27-.25-.36-.61-.53-1.11-.53-.92,0-1.52.4-1.79,1.22l-2.11-1.44c.12-.27.3-.54.54-.81.23-.27.52-.52.86-.73.34-.22.71-.39,1.13-.52.42-.13.88-.2,1.37-.2.57,0,1.11.11,1.6.34.49.23.91.53,1.26.92.35.39.62.84.81,1.36.19.52.29,1.08.29,1.67v13.25Z"/>
    <path class="cls-2" d="M113.5,22.91h-2.48v-13.03c0-.49-.2-.91-.6-1.27-.4-.36-.84-.54-1.33-.54s-.96.18-1.36.54c-.4.36-.6.78-.6,1.27v13.03h-2.48V5.73h1.65l.55.81c.22-.33.53-.57.93-.72.4-.15.83-.23,1.3-.23.59,0,1.15.11,1.68.34.53.23,1,.53,1.41.92.41.39.73.84.97,1.36.24.52.35,1.08.35,1.67v13.03Z"/>
    <path class="cls-2" d="M118.94,7.86c-.51,0-.93.18-1.28.53-.35.36-.52.78-.52,1.27v9.35c0,.51.17.94.52,1.28.34.35.77.52,1.28.52s.91-.17,1.26-.52c.35-.35.53-.77.53-1.28v-.28l2.48-.83v1.1c0,.59-.11,1.15-.33,1.67-.23.52-.53.98-.92,1.36-.39.38-.84.69-1.36.92-.52.22-1.07.34-1.66.34s-1.14-.11-1.66-.34c-.52-.23-.97-.53-1.36-.92-.39-.39-.69-.84-.92-1.36-.22-.52-.33-1.08-.33-1.67v-9.36c0-.67.11-1.28.33-1.81.22-.53.53-.98.92-1.34.38-.37.84-.65,1.36-.84.52-.19,1.07-.29,1.66-.29s1.15.1,1.66.31c.52.2.97.48,1.36.85.39.37.69.81.92,1.34.22.53.33,1.12.33,1.76v.73h-2.48v-.73c0-.48-.18-.9-.53-1.26-.36-.35-.77-.53-1.26-.53"/>
    <path class="cls-2" d="M128.62,5.6c.35,0,.64.05.89.14.24.09.44.21.58.35l-.86,2.2c-.24-.14-.45-.21-.61-.21-.51,0-.94.18-1.29.53-.35.36-.52.78-.52,1.27v13.06h-2.48V5.73h1.65l.55,1.08c.14-.28.39-.56.74-.82.35-.26.8-.4,1.35-.4"/>
    <path class="cls-2" d="M136.38,19.01v-9.35c0-.49-.18-.91-.54-1.27-.36-.36-.78-.53-1.27-.53-.51,0-.94.18-1.29.53-.35.36-.52.78-.52,1.27v9.35c0,.51.17.94.52,1.28s.78.52,1.29.52.91-.17,1.27-.52c.36-.35.54-.77.54-1.28M138.86,19.02c0,.59-.11,1.15-.34,1.67-.23.52-.53.98-.92,1.36-.39.38-.85.69-1.37.92-.52.22-1.08.34-1.67.34s-1.15-.11-1.67-.34c-.52-.22-.98-.53-1.36-.92-.39-.39-.7-.84-.92-1.36-.23-.52-.34-1.08-.34-1.67v-9.36c0-.59.11-1.15.34-1.67.22-.52.53-.98.92-1.36.39-.39.84-.69,1.36-.92.52-.22,1.08-.34,1.67-.34s1.15.11,1.67.34c.52.23.98.53,1.37.92.38.39.69.84.92,1.36.22.52.34,1.08.34,1.67v9.36Z"/>
    <path class="cls-2" d="M145.16,0c.69,0,1.36.14,1.99.43l-.98,2.35c-.26-.2-.6-.31-1.01-.31-.51,0-.94.17-1.29.52-.35.35-.52.77-.52,1.28v1.46h1.79v2.18h-1.79v15.02h-2.48V7.91h-1.1v-2.18h1.1v-1.47c0-.59.11-1.14.34-1.66.22-.52.53-.97.92-1.36.39-.39.84-.69,1.36-.91.52-.22,1.08-.34,1.67-.34"/>
    <path class="cls-2" d="M151.97,20.85c.24,0,.47-.06.67-.17.2-.11.36-.25.46-.41l1.68,1.84c-.31.37-.71.66-1.21.87-.5.22-1,.32-1.52.32-1.22,0-2.17-.4-2.85-1.19-.67-.8-1.01-1.81-1.01-3.06V7.91h-1.56v-2.18h1.56v-3.12l2.48-.83v3.94h3.27v2.18h-3.27v11.13c0,1.2.43,1.81,1.29,1.81"/>
    <path class="cls-2" d="M69.91,47.52h1.73v-14.51h1.75v-1.44h-1.75v-1.75c0-.58.2-1.08.6-1.48.4-.4.89-.6,1.48-.6.3,0,.57.05.82.15l.67-1.62c-.96-.35-2.06-.36-2.97.03-.46.2-.87.47-1.21.82s-.62.75-.82,1.21c-.2.46-.3.96-.3,1.48v1.75h-1.07v1.44h1.07v14.51Z"/>
  </g>
  <rect class="cls-2" x="75.12" y="31.58" width="1.74" height="15.95"/>
  <polygon class="cls-2" points="79.35 26.72 79.35 47.52 81.09 47.52 81.09 26.14 79.35 26.72"/>
  <g class="cls-3">
    <path class="cls-2" d="M94.72,47.52h1.73v-12.28c0-.53-.09-1.03-.27-1.49-.18-.46-.44-.87-.76-1.21-.32-.34-.71-.61-1.15-.81-.44-.2-.92-.3-1.45-.3-.64,0-1.16.12-1.53.35-.37.23-.67.58-.9,1.04l-.24.47-.32-.42c-.37-.48-.76-.85-1.15-1.09-.38-.23-.85-.35-1.4-.35-.4,0-.71.06-.94.18-.23.12-.44.32-.62.59l-.27.39-.71-1.02h-1.09v15.95h1.73v-12.28c0-.55.17-1.03.49-1.43.34-.43.82-.64,1.42-.64s1.04.22,1.39.64c.34.41.51.89.51,1.44v12.28h1.74v-12.28c0-.55.16-1.03.49-1.44.34-.43.82-.64,1.41-.64s1.04.22,1.4.64c.34.41.51.89.51,1.44v12.28Z"/>
    <path class="cls-2" d="M98.19,43.36v.74c0,.53.09,1.04.26,1.5.17.46.42.86.75,1.2.32.34.72.61,1.19.81.91.39,2.26.41,3.25,0,.48-.2.9-.47,1.24-.82.34-.34.61-.75.8-1.21.19-.46.28-.96.28-1.49-.02-.78-.15-1.47-.38-2.05-.23-.59-.57-1.14-1.02-1.63-.38-.41-.81-.79-1.27-1.12-.49-.34-.97-.71-1.43-1.08-.47-.39-.87-.83-1.19-1.3-.34-.51-.52-1.14-.52-1.87,0-.57.17-1.06.51-1.46.35-.41.83-.62,1.42-.62s1.04.21,1.41.61c.36.39.55.89.55,1.47v.36l1.67.38v-.74c0-.54-.07-1.05-.22-1.51-.14-.46-.37-.86-.66-1.2-.29-.34-.66-.61-1.1-.8-.86-.39-2.2-.4-3.14,0-.46.2-.86.47-1.18.81-.32.34-.57.75-.74,1.2-.17.46-.26.97-.26,1.5,0,.69.1,1.34.29,1.92.19.58.51,1.15.94,1.69.34.43.75.82,1.24,1.16.51.36,1.02.75,1.5,1.14.49.4.92.84,1.27,1.32.38.51.57,1.12.57,1.82,0,.59-.23,1.1-.69,1.49-.91.79-2.2.77-3-.01-.41-.4-.62-.89-.62-1.48v-.35l-1.73-.39Z"/>
  </g>
  <polygon class="cls-2" points="75.16 30.05 76.9 30.05 76.9 27.91 75.16 28.49 75.16 30.05"/>
</svg>